<mxfile host="app.diagrams.net" modified="2021-10-19T15:26:46.029Z" agent="5.0 (Windows NT 10.0; Win64; x64) AppleWebKit/537.36 (KHTML, like Gecko) Chrome/94.0.4606.81 Safari/537.36" etag="BlwGyqd8bf3pV-2U0uQh" version="15.5.0" type="github">
  <diagram id="9JrSqewKfM9jdmpe-DgF" name="Page-1">
    <mxGraphModel dx="1924" dy="-3116" grid="1" gridSize="10" guides="1" tooltips="1" connect="1" arrows="1" fold="1" page="1" pageScale="1" pageWidth="1169" pageHeight="827" math="0" shadow="0">
      <root>
        <mxCell id="0" />
        <mxCell id="1" parent="0" />
        <mxCell id="iwu1MowWG5Aq7Ths03g3-1" style="edgeStyle=orthogonalEdgeStyle;rounded=0;orthogonalLoop=1;jettySize=auto;html=1;exitX=0.5;exitY=1;exitDx=0;exitDy=0;entryX=0.5;entryY=0;entryDx=0;entryDy=0;fontSize=24;" parent="1" source="iwu1MowWG5Aq7Ths03g3-2" target="iwu1MowWG5Aq7Ths03g3-63" edge="1">
          <mxGeometry relative="1" as="geometry" />
        </mxCell>
        <mxCell id="iwu1MowWG5Aq7Ths03g3-2" value="&lt;p class=&quot;MsoNormal&quot; style=&quot;margin-bottom: 0.0001pt; line-height: normal; font-size: 24px;&quot;&gt;&lt;span style=&quot;font-size: 24px; line-height: 107%; font-family: calibri, sans-serif;&quot;&gt;Pangehang&amp;nbsp;&lt;/span&gt;&lt;br style=&quot;font-size: 24px;&quot;&gt;&lt;/p&gt;" style="whiteSpace=wrap;html=1;rounded=1;shadow=1;strokeWidth=1;fontSize=24;align=center;fillColor=#f5f5f5;strokeColor=#666666;verticalAlign=bottom;" parent="1" vertex="1">
          <mxGeometry x="60" y="4280" width="150" height="40" as="geometry" />
        </mxCell>
        <mxCell id="iwu1MowWG5Aq7Ths03g3-3" style="edgeStyle=orthogonalEdgeStyle;rounded=0;orthogonalLoop=1;jettySize=auto;html=1;exitX=0.5;exitY=1;exitDx=0;exitDy=0;entryX=0.5;entryY=0;entryDx=0;entryDy=0;fontSize=24;" parent="1" source="iwu1MowWG5Aq7Ths03g3-4" target="iwu1MowWG5Aq7Ths03g3-48" edge="1">
          <mxGeometry relative="1" as="geometry" />
        </mxCell>
        <mxCell id="iwu1MowWG5Aq7Ths03g3-4" value="&lt;p class=&quot;MsoNormal&quot; style=&quot;margin-bottom: 0.0001pt; line-height: normal; font-size: 24px;&quot;&gt;&lt;span style=&quot;font-size: 24px; line-height: 107%; font-family: calibri, sans-serif;&quot;&gt;Namghonhang&lt;/span&gt;&lt;br style=&quot;font-size: 24px;&quot;&gt;&lt;/p&gt;" style="whiteSpace=wrap;html=1;rounded=1;shadow=1;strokeWidth=1;fontSize=24;align=center;fillColor=#f5f5f5;strokeColor=#666666;verticalAlign=bottom;" parent="1" vertex="1">
          <mxGeometry x="260" y="4280" width="150" height="40" as="geometry" />
        </mxCell>
        <mxCell id="iwu1MowWG5Aq7Ths03g3-5" style="edgeStyle=orthogonalEdgeStyle;rounded=0;orthogonalLoop=1;jettySize=auto;html=1;exitX=0.5;exitY=1;exitDx=0;exitDy=0;entryX=0.5;entryY=0;entryDx=0;entryDy=0;fontSize=24;fontColor=#000000;endArrow=classic;endFill=1;" parent="1" source="iwu1MowWG5Aq7Ths03g3-6" target="iwu1MowWG5Aq7Ths03g3-10" edge="1">
          <mxGeometry relative="1" as="geometry" />
        </mxCell>
        <mxCell id="iwu1MowWG5Aq7Ths03g3-6" value="&lt;p class=&quot;MsoNormal&quot; style=&quot;margin-bottom: 0.0001pt; line-height: normal; font-size: 24px;&quot;&gt;&lt;span style=&quot;font-size: 24px; line-height: 107%; font-family: calibri, sans-serif;&quot;&gt;Manguhang&lt;/span&gt;&lt;br style=&quot;font-size: 24px;&quot;&gt;&lt;/p&gt;" style="whiteSpace=wrap;html=1;rounded=1;shadow=1;strokeWidth=1;fontSize=24;align=center;fillColor=#f5f5f5;strokeColor=#666666;verticalAlign=bottom;" parent="1" vertex="1">
          <mxGeometry x="511" y="4280" width="150" height="40" as="geometry" />
        </mxCell>
        <mxCell id="iwu1MowWG5Aq7Ths03g3-7" style="edgeStyle=orthogonalEdgeStyle;rounded=0;orthogonalLoop=1;jettySize=auto;html=1;exitX=0.5;exitY=1;exitDx=0;exitDy=0;entryX=0.496;entryY=-0.043;entryDx=0;entryDy=0;entryPerimeter=0;fontSize=24;" parent="1" source="iwu1MowWG5Aq7Ths03g3-8" target="iwu1MowWG5Aq7Ths03g3-34" edge="1">
          <mxGeometry relative="1" as="geometry" />
        </mxCell>
        <mxCell id="iwu1MowWG5Aq7Ths03g3-8" value="&lt;p class=&quot;MsoNormal&quot; style=&quot;margin-bottom: 0.0001pt; line-height: normal; font-size: 24px;&quot;&gt;&lt;span style=&quot;font-size: 24px; line-height: 107%; font-family: calibri, sans-serif;&quot;&gt;Yabokhang&lt;/span&gt;&lt;br style=&quot;font-size: 24px;&quot;&gt;&lt;/p&gt;" style="whiteSpace=wrap;html=1;rounded=1;shadow=1;strokeWidth=1;fontSize=24;align=center;fillColor=#f5f5f5;strokeColor=#666666;verticalAlign=bottom;" parent="1" vertex="1">
          <mxGeometry x="811" y="4280" width="150" height="40" as="geometry" />
        </mxCell>
        <mxCell id="iwu1MowWG5Aq7Ths03g3-69" style="edgeStyle=orthogonalEdgeStyle;rounded=0;orthogonalLoop=1;jettySize=auto;html=1;exitX=0.5;exitY=1;exitDx=0;exitDy=0;fontSize=16;" parent="1" source="iwu1MowWG5Aq7Ths03g3-10" target="iwu1MowWG5Aq7Ths03g3-12" edge="1">
          <mxGeometry relative="1" as="geometry" />
        </mxCell>
        <mxCell id="iwu1MowWG5Aq7Ths03g3-10" value="&lt;p class=&quot;MsoNormal&quot; style=&quot;margin-bottom: 0.0001pt; line-height: normal; font-size: 24px;&quot;&gt;&lt;span style=&quot;font-size: 24px; line-height: 107%; font-family: calibri, sans-serif;&quot;&gt;Sayakhang&lt;/span&gt;&lt;br style=&quot;font-size: 24px;&quot;&gt;&lt;/p&gt;" style="whiteSpace=wrap;html=1;rounded=1;shadow=1;strokeWidth=1;fontSize=24;align=center;fillColor=#f5f5f5;strokeColor=#666666;verticalAlign=bottom;" parent="1" vertex="1">
          <mxGeometry x="510" y="4345" width="150" height="40" as="geometry" />
        </mxCell>
        <mxCell id="iwu1MowWG5Aq7Ths03g3-11" style="edgeStyle=orthogonalEdgeStyle;rounded=0;orthogonalLoop=1;jettySize=auto;html=1;exitX=0.5;exitY=1;exitDx=0;exitDy=0;entryX=0.5;entryY=0;entryDx=0;entryDy=0;fontSize=24;fontColor=#000000;endArrow=classic;endFill=1;" parent="1" source="iwu1MowWG5Aq7Ths03g3-12" target="iwu1MowWG5Aq7Ths03g3-14" edge="1">
          <mxGeometry relative="1" as="geometry" />
        </mxCell>
        <mxCell id="iwu1MowWG5Aq7Ths03g3-12" value="&lt;p class=&quot;MsoNormal&quot; style=&quot;margin-bottom: 0.0001pt; line-height: normal; font-size: 24px;&quot;&gt;&lt;span style=&quot;font-size: 24px; line-height: 107%; font-family: calibri, sans-serif;&quot;&gt;Aaphuhang&lt;/span&gt;&lt;br style=&quot;font-size: 24px;&quot;&gt;&lt;/p&gt;" style="whiteSpace=wrap;html=1;rounded=1;shadow=1;strokeWidth=1;fontSize=24;align=center;fillColor=#f5f5f5;strokeColor=#666666;verticalAlign=bottom;" parent="1" vertex="1">
          <mxGeometry x="510" y="4405" width="150" height="40" as="geometry" />
        </mxCell>
        <mxCell id="iwu1MowWG5Aq7Ths03g3-13" style="edgeStyle=orthogonalEdgeStyle;rounded=0;orthogonalLoop=1;jettySize=auto;html=1;exitX=0.5;exitY=1;exitDx=0;exitDy=0;entryX=0.5;entryY=0;entryDx=0;entryDy=0;fontSize=24;fontColor=#000000;endArrow=classic;endFill=1;" parent="1" source="iwu1MowWG5Aq7Ths03g3-14" target="iwu1MowWG5Aq7Ths03g3-16" edge="1">
          <mxGeometry relative="1" as="geometry" />
        </mxCell>
        <mxCell id="iwu1MowWG5Aq7Ths03g3-14" value="&lt;p class=&quot;MsoNormal&quot; style=&quot;margin-bottom: 0.0001pt; line-height: normal; font-size: 24px;&quot;&gt;&lt;span style=&quot;font-size: 24px; line-height: 107%; font-family: calibri, sans-serif;&quot;&gt;Dhankarna Rai&lt;/span&gt;&lt;br style=&quot;font-size: 24px;&quot;&gt;&lt;/p&gt;" style="whiteSpace=wrap;html=1;rounded=1;shadow=1;strokeWidth=1;fontSize=24;align=center;fillColor=#f5f5f5;strokeColor=#666666;verticalAlign=bottom;" parent="1" vertex="1">
          <mxGeometry x="510" y="4465" width="150" height="40" as="geometry" />
        </mxCell>
        <mxCell id="iwu1MowWG5Aq7Ths03g3-15" style="edgeStyle=orthogonalEdgeStyle;rounded=0;orthogonalLoop=1;jettySize=auto;html=1;exitX=0.5;exitY=1;exitDx=0;exitDy=0;fontSize=24;fontColor=#000000;endArrow=classic;endFill=1;" parent="1" source="iwu1MowWG5Aq7Ths03g3-16" target="iwu1MowWG5Aq7Ths03g3-18" edge="1">
          <mxGeometry relative="1" as="geometry" />
        </mxCell>
        <mxCell id="iwu1MowWG5Aq7Ths03g3-95" style="edgeStyle=orthogonalEdgeStyle;rounded=0;orthogonalLoop=1;jettySize=auto;html=1;exitX=0.5;exitY=1;exitDx=0;exitDy=0;fontSize=16;" parent="1" source="iwu1MowWG5Aq7Ths03g3-16" target="iwu1MowWG5Aq7Ths03g3-94" edge="1">
          <mxGeometry relative="1" as="geometry" />
        </mxCell>
        <mxCell id="iwu1MowWG5Aq7Ths03g3-16" value="&lt;p class=&quot;MsoNormal&quot; style=&quot;margin-bottom: 0.0001pt; line-height: normal; font-size: 24px;&quot;&gt;&lt;span style=&quot;font-size: 24px; line-height: 107%; font-family: calibri, sans-serif;&quot;&gt;Aadrai&lt;/span&gt;&lt;br style=&quot;font-size: 24px;&quot;&gt;&lt;/p&gt;" style="whiteSpace=wrap;html=1;rounded=1;shadow=1;strokeWidth=1;fontSize=24;align=center;fillColor=#f5f5f5;strokeColor=#666666;verticalAlign=bottom;" parent="1" vertex="1">
          <mxGeometry x="510" y="4525" width="150" height="40" as="geometry" />
        </mxCell>
        <mxCell id="iwu1MowWG5Aq7Ths03g3-17" style="edgeStyle=orthogonalEdgeStyle;rounded=0;orthogonalLoop=1;jettySize=auto;html=1;exitX=0.5;exitY=1;exitDx=0;exitDy=0;entryX=0.5;entryY=0;entryDx=0;entryDy=0;fontSize=24;fontColor=#000000;endArrow=classic;endFill=1;" parent="1" source="iwu1MowWG5Aq7Ths03g3-18" target="iwu1MowWG5Aq7Ths03g3-19" edge="1">
          <mxGeometry relative="1" as="geometry" />
        </mxCell>
        <mxCell id="iwu1MowWG5Aq7Ths03g3-18" value="&lt;p class=&quot;MsoNormal&quot; style=&quot;margin-bottom: 0.0001pt; line-height: normal; font-size: 24px;&quot;&gt;&lt;span style=&quot;font-size: 24px; line-height: 107%; font-family: calibri, sans-serif;&quot;&gt;Sarup Rai&lt;/span&gt;&lt;br style=&quot;font-size: 24px;&quot;&gt;&lt;/p&gt;" style="whiteSpace=wrap;html=1;rounded=1;shadow=1;strokeWidth=1;fontSize=24;align=center;fillColor=#f5f5f5;strokeColor=#666666;verticalAlign=bottom;" parent="1" vertex="1">
          <mxGeometry x="450" y="4610" width="120" height="40" as="geometry" />
        </mxCell>
        <mxCell id="iwu1MowWG5Aq7Ths03g3-19" value="&lt;p class=&quot;MsoNormal&quot; style=&quot;margin-bottom: 0.0001pt; line-height: normal; font-size: 24px;&quot;&gt;&lt;span style=&quot;font-size: 24px; line-height: 107%; font-family: calibri, sans-serif;&quot;&gt;Billakarna Rai&lt;/span&gt;&lt;br style=&quot;font-size: 24px;&quot;&gt;&lt;/p&gt;" style="whiteSpace=wrap;html=1;rounded=1;shadow=1;strokeWidth=1;fontSize=24;align=center;fillColor=#f5f5f5;strokeColor=#666666;verticalAlign=bottom;" parent="1" vertex="1">
          <mxGeometry x="450" y="4670" width="150" height="40" as="geometry" />
        </mxCell>
        <mxCell id="iwu1MowWG5Aq7Ths03g3-20" style="edgeStyle=orthogonalEdgeStyle;rounded=0;orthogonalLoop=1;jettySize=auto;html=1;exitX=0.5;exitY=1;exitDx=0;exitDy=0;entryX=0.5;entryY=0;entryDx=0;entryDy=0;fontSize=24;" parent="1" source="iwu1MowWG5Aq7Ths03g3-21" target="iwu1MowWG5Aq7Ths03g3-22" edge="1">
          <mxGeometry relative="1" as="geometry" />
        </mxCell>
        <mxCell id="iwu1MowWG5Aq7Ths03g3-21" value="&lt;p class=&quot;MsoNormal&quot; style=&quot;margin-bottom: 0.0001pt; line-height: normal; font-size: 18px;&quot;&gt;&lt;span style=&quot;line-height: 107%; font-family: calibri, sans-serif; font-size: 18px;&quot;&gt;&lt;font style=&quot;font-size: 18px;&quot;&gt;Shyam Dhoj&lt;/font&gt;&lt;/span&gt;&lt;br style=&quot;font-size: 18px;&quot;&gt;&lt;/p&gt;" style="whiteSpace=wrap;html=1;rounded=1;shadow=1;strokeWidth=1;fontSize=18;align=center;fillColor=#f5f5f5;strokeColor=#666666;verticalAlign=bottom;" parent="1" vertex="1">
          <mxGeometry x="760" y="4770" width="120" height="40" as="geometry" />
        </mxCell>
        <mxCell id="iwu1MowWG5Aq7Ths03g3-22" value="&lt;p class=&quot;MsoNormal&quot; style=&quot;margin-bottom: 0.0001pt; line-height: normal; font-size: 18px;&quot;&gt;&lt;span style=&quot;line-height: 107%; font-family: calibri, sans-serif; font-size: 18px;&quot;&gt;&lt;font style=&quot;font-size: 18px;&quot;&gt;Kaji Man Rai&lt;/font&gt;&lt;/span&gt;&lt;br style=&quot;font-size: 18px;&quot;&gt;&lt;/p&gt;" style="whiteSpace=wrap;html=1;rounded=1;shadow=1;strokeWidth=1;fontSize=18;align=center;fillColor=#f5f5f5;strokeColor=#666666;verticalAlign=bottom;" parent="1" vertex="1">
          <mxGeometry x="760" y="4830" width="120" height="40" as="geometry" />
        </mxCell>
        <mxCell id="iwu1MowWG5Aq7Ths03g3-23" style="edgeStyle=orthogonalEdgeStyle;rounded=0;orthogonalLoop=1;jettySize=auto;html=1;exitX=0.5;exitY=1;exitDx=0;exitDy=0;entryX=0.5;entryY=0;entryDx=0;entryDy=0;fontSize=24;" parent="1" source="iwu1MowWG5Aq7Ths03g3-24" target="iwu1MowWG5Aq7Ths03g3-21" edge="1">
          <mxGeometry relative="1" as="geometry" />
        </mxCell>
        <mxCell id="iwu1MowWG5Aq7Ths03g3-84" style="edgeStyle=orthogonalEdgeStyle;rounded=0;orthogonalLoop=1;jettySize=auto;html=1;exitX=0.5;exitY=1;exitDx=0;exitDy=0;fontSize=18;" parent="1" source="iwu1MowWG5Aq7Ths03g3-24" target="iwu1MowWG5Aq7Ths03g3-82" edge="1">
          <mxGeometry relative="1" as="geometry" />
        </mxCell>
        <mxCell id="iwu1MowWG5Aq7Ths03g3-24" value="&lt;p class=&quot;MsoNormal&quot; style=&quot;margin-bottom: 0.0001pt; line-height: normal; font-size: 18px;&quot;&gt;&lt;span style=&quot;line-height: 107%; font-family: calibri, sans-serif; font-size: 18px;&quot;&gt;&lt;font style=&quot;font-size: 18px;&quot;&gt;Driya Singh Rai&lt;/font&gt;&lt;/span&gt;&lt;br style=&quot;font-size: 18px;&quot;&gt;&lt;/p&gt;" style="whiteSpace=wrap;html=1;rounded=1;shadow=1;strokeWidth=1;fontSize=18;align=center;fillColor=#f5f5f5;strokeColor=#666666;verticalAlign=bottom;" parent="1" vertex="1">
          <mxGeometry x="841" y="4670" width="120" height="40" as="geometry" />
        </mxCell>
        <mxCell id="iwu1MowWG5Aq7Ths03g3-80" style="edgeStyle=orthogonalEdgeStyle;rounded=0;orthogonalLoop=1;jettySize=auto;html=1;exitX=0.5;exitY=1;exitDx=0;exitDy=0;fontSize=18;" parent="1" source="iwu1MowWG5Aq7Ths03g3-26" target="iwu1MowWG5Aq7Ths03g3-24" edge="1">
          <mxGeometry relative="1" as="geometry" />
        </mxCell>
        <mxCell id="iwu1MowWG5Aq7Ths03g3-81" style="edgeStyle=orthogonalEdgeStyle;rounded=0;orthogonalLoop=1;jettySize=auto;html=1;exitX=0.5;exitY=1;exitDx=0;exitDy=0;fontSize=18;" parent="1" source="iwu1MowWG5Aq7Ths03g3-26" target="iwu1MowWG5Aq7Ths03g3-79" edge="1">
          <mxGeometry relative="1" as="geometry" />
        </mxCell>
        <mxCell id="iwu1MowWG5Aq7Ths03g3-26" value="&lt;p class=&quot;MsoNormal&quot; style=&quot;margin-bottom: 0.0001pt; line-height: normal; font-size: 24px;&quot;&gt;&lt;span style=&quot;line-height: 107%; font-family: calibri, sans-serif; font-size: 24px;&quot;&gt;&lt;font style=&quot;font-size: 24px;&quot;&gt;Jasbol Rai&lt;/font&gt;&lt;/span&gt;&lt;br style=&quot;font-size: 24px;&quot;&gt;&lt;/p&gt;" style="whiteSpace=wrap;html=1;rounded=1;shadow=1;strokeWidth=1;fontSize=24;align=center;fillColor=#f5f5f5;strokeColor=#666666;verticalAlign=bottom;" parent="1" vertex="1">
          <mxGeometry x="811" y="4580" width="150" height="40" as="geometry" />
        </mxCell>
        <mxCell id="iwu1MowWG5Aq7Ths03g3-27" style="edgeStyle=orthogonalEdgeStyle;rounded=0;orthogonalLoop=1;jettySize=auto;html=1;exitX=0.5;exitY=1;exitDx=0;exitDy=0;entryX=0.5;entryY=0;entryDx=0;entryDy=0;fontSize=24;" parent="1" source="iwu1MowWG5Aq7Ths03g3-28" target="iwu1MowWG5Aq7Ths03g3-26" edge="1">
          <mxGeometry relative="1" as="geometry" />
        </mxCell>
        <mxCell id="iwu1MowWG5Aq7Ths03g3-28" value="&lt;p class=&quot;MsoNormal&quot; style=&quot;margin-bottom: 0.0001pt; line-height: normal; font-size: 24px;&quot;&gt;&lt;span style=&quot;line-height: 107%; font-family: calibri, sans-serif; font-size: 24px;&quot;&gt;&lt;font style=&quot;font-size: 24px;&quot;&gt;Yujok SIngh&lt;/font&gt;&lt;/span&gt;&lt;br style=&quot;font-size: 24px;&quot;&gt;&lt;/p&gt;" style="whiteSpace=wrap;html=1;rounded=1;shadow=1;strokeWidth=1;fontSize=24;align=center;fillColor=#f5f5f5;strokeColor=#666666;verticalAlign=bottom;" parent="1" vertex="1">
          <mxGeometry x="811" y="4525" width="150" height="40" as="geometry" />
        </mxCell>
        <mxCell id="iwu1MowWG5Aq7Ths03g3-29" style="edgeStyle=orthogonalEdgeStyle;rounded=0;orthogonalLoop=1;jettySize=auto;html=1;exitX=0.5;exitY=1;exitDx=0;exitDy=0;entryX=0.5;entryY=0;entryDx=0;entryDy=0;fontSize=24;" parent="1" source="iwu1MowWG5Aq7Ths03g3-30" target="iwu1MowWG5Aq7Ths03g3-32" edge="1">
          <mxGeometry relative="1" as="geometry" />
        </mxCell>
        <mxCell id="iwu1MowWG5Aq7Ths03g3-30" value="&lt;p class=&quot;MsoNormal&quot; style=&quot;margin-bottom: 0.0001pt; line-height: normal; font-size: 24px;&quot;&gt;&lt;span style=&quot;line-height: 107%; font-family: calibri, sans-serif; font-size: 24px;&quot;&gt;&lt;font style=&quot;font-size: 24px;&quot;&gt;Lasuphang&lt;/font&gt;&lt;/span&gt;&lt;br style=&quot;font-size: 24px;&quot;&gt;&lt;/p&gt;" style="whiteSpace=wrap;html=1;rounded=1;shadow=1;strokeWidth=1;fontSize=24;align=center;fillColor=#f5f5f5;strokeColor=#666666;verticalAlign=bottom;" parent="1" vertex="1">
          <mxGeometry x="811" y="4405" width="150" height="40" as="geometry" />
        </mxCell>
        <mxCell id="iwu1MowWG5Aq7Ths03g3-31" style="edgeStyle=orthogonalEdgeStyle;rounded=0;orthogonalLoop=1;jettySize=auto;html=1;exitX=0.5;exitY=1;exitDx=0;exitDy=0;entryX=0.5;entryY=0;entryDx=0;entryDy=0;fontSize=24;" parent="1" source="iwu1MowWG5Aq7Ths03g3-32" target="iwu1MowWG5Aq7Ths03g3-28" edge="1">
          <mxGeometry relative="1" as="geometry" />
        </mxCell>
        <mxCell id="iwu1MowWG5Aq7Ths03g3-32" value="&lt;p class=&quot;MsoNormal&quot; style=&quot;margin-bottom: 0.0001pt; line-height: normal; font-size: 24px;&quot;&gt;&lt;span style=&quot;line-height: 107%; font-family: calibri, sans-serif; font-size: 24px;&quot;&gt;&lt;font style=&quot;font-size: 24px;&quot;&gt;Sura Singh Rai&lt;/font&gt;&lt;/span&gt;&lt;br style=&quot;font-size: 24px;&quot;&gt;&lt;/p&gt;" style="whiteSpace=wrap;html=1;rounded=1;shadow=1;strokeWidth=1;fontSize=24;align=center;fillColor=#f5f5f5;strokeColor=#666666;verticalAlign=bottom;" parent="1" vertex="1">
          <mxGeometry x="811" y="4465" width="150" height="40" as="geometry" />
        </mxCell>
        <mxCell id="iwu1MowWG5Aq7Ths03g3-33" style="edgeStyle=orthogonalEdgeStyle;rounded=0;orthogonalLoop=1;jettySize=auto;html=1;exitX=0.5;exitY=1;exitDx=0;exitDy=0;entryX=0.5;entryY=0;entryDx=0;entryDy=0;fontSize=24;" parent="1" source="iwu1MowWG5Aq7Ths03g3-34" target="iwu1MowWG5Aq7Ths03g3-30" edge="1">
          <mxGeometry relative="1" as="geometry" />
        </mxCell>
        <mxCell id="iwu1MowWG5Aq7Ths03g3-77" value="" style="edgeStyle=orthogonalEdgeStyle;rounded=0;orthogonalLoop=1;jettySize=auto;html=1;fontSize=16;" parent="1" source="iwu1MowWG5Aq7Ths03g3-34" target="iwu1MowWG5Aq7Ths03g3-8" edge="1">
          <mxGeometry relative="1" as="geometry" />
        </mxCell>
        <mxCell id="iwu1MowWG5Aq7Ths03g3-34" value="&lt;p class=&quot;MsoNormal&quot; style=&quot;margin-bottom: 0.0001pt; line-height: normal; font-size: 24px;&quot;&gt;&lt;span style=&quot;line-height: 107%; font-family: calibri, sans-serif; font-size: 24px;&quot;&gt;&lt;font style=&quot;font-size: 24px;&quot;&gt;Sanjokhang&lt;/font&gt;&lt;/span&gt;&lt;br style=&quot;font-size: 24px;&quot;&gt;&lt;/p&gt;" style="whiteSpace=wrap;html=1;rounded=1;shadow=1;strokeWidth=1;fontSize=24;align=center;fillColor=#f5f5f5;strokeColor=#666666;verticalAlign=bottom;" parent="1" vertex="1">
          <mxGeometry x="811" y="4345" width="150" height="40" as="geometry" />
        </mxCell>
        <mxCell id="iwu1MowWG5Aq7Ths03g3-35" style="edgeStyle=orthogonalEdgeStyle;rounded=0;orthogonalLoop=1;jettySize=auto;html=1;exitX=0.5;exitY=1;exitDx=0;exitDy=0;entryX=0.5;entryY=0;entryDx=0;entryDy=0;fontSize=24;" parent="1" source="iwu1MowWG5Aq7Ths03g3-36" target="iwu1MowWG5Aq7Ths03g3-49" edge="1">
          <mxGeometry relative="1" as="geometry" />
        </mxCell>
        <mxCell id="iwu1MowWG5Aq7Ths03g3-36" value="&lt;p class=&quot;MsoNormal&quot; style=&quot;margin-bottom: 0.0001pt; line-height: normal; font-size: 24px;&quot;&gt;&lt;span style=&quot;line-height: 107%; font-family: calibri, sans-serif; font-size: 24px;&quot;&gt;&lt;font style=&quot;font-size: 24px;&quot;&gt;Jitu Rai&lt;/font&gt;&lt;/span&gt;&lt;br style=&quot;font-size: 24px;&quot;&gt;&lt;/p&gt;" style="whiteSpace=wrap;html=1;rounded=1;shadow=1;strokeWidth=1;fontSize=24;align=center;fillColor=#f5f5f5;strokeColor=#666666;verticalAlign=bottom;" parent="1" vertex="1">
          <mxGeometry x="260" y="4700" width="150" height="40" as="geometry" />
        </mxCell>
        <mxCell id="iwu1MowWG5Aq7Ths03g3-37" style="edgeStyle=orthogonalEdgeStyle;rounded=0;orthogonalLoop=1;jettySize=auto;html=1;exitX=0.5;exitY=1;exitDx=0;exitDy=0;entryX=0.5;entryY=0;entryDx=0;entryDy=0;fontSize=24;" parent="1" source="iwu1MowWG5Aq7Ths03g3-38" target="iwu1MowWG5Aq7Ths03g3-36" edge="1">
          <mxGeometry relative="1" as="geometry" />
        </mxCell>
        <mxCell id="iwu1MowWG5Aq7Ths03g3-38" value="&lt;p class=&quot;MsoNormal&quot; style=&quot;margin-bottom: 0.0001pt; line-height: normal; font-size: 24px;&quot;&gt;&lt;span style=&quot;line-height: 107%; font-family: calibri, sans-serif; font-size: 24px;&quot;&gt;&lt;font style=&quot;font-size: 24px;&quot;&gt;Ranagunja Rai&lt;/font&gt;&lt;/span&gt;&lt;br style=&quot;font-size: 24px;&quot;&gt;&lt;/p&gt;" style="whiteSpace=wrap;html=1;rounded=1;shadow=1;strokeWidth=1;fontSize=24;align=center;fillColor=#f5f5f5;strokeColor=#666666;verticalAlign=bottom;" parent="1" vertex="1">
          <mxGeometry x="260" y="4640" width="150" height="40" as="geometry" />
        </mxCell>
        <mxCell id="iwu1MowWG5Aq7Ths03g3-39" style="edgeStyle=orthogonalEdgeStyle;rounded=0;orthogonalLoop=1;jettySize=auto;html=1;exitX=0.5;exitY=1;exitDx=0;exitDy=0;entryX=0.5;entryY=0;entryDx=0;entryDy=0;fontSize=24;" parent="1" source="iwu1MowWG5Aq7Ths03g3-40" target="iwu1MowWG5Aq7Ths03g3-38" edge="1">
          <mxGeometry relative="1" as="geometry" />
        </mxCell>
        <mxCell id="iwu1MowWG5Aq7Ths03g3-40" value="&lt;p class=&quot;MsoNormal&quot; style=&quot;margin-bottom: 0.0001pt; line-height: normal; font-size: 24px;&quot;&gt;&lt;span style=&quot;line-height: 107%; font-family: calibri, sans-serif; font-size: 24px;&quot;&gt;&lt;font style=&quot;font-size: 24px;&quot;&gt;Surat Rai&lt;/font&gt;&lt;/span&gt;&lt;br style=&quot;font-size: 24px;&quot;&gt;&lt;/p&gt;" style="whiteSpace=wrap;html=1;rounded=1;shadow=1;strokeWidth=1;fontSize=24;align=center;fillColor=#f5f5f5;strokeColor=#666666;verticalAlign=bottom;" parent="1" vertex="1">
          <mxGeometry x="260" y="4580" width="150" height="40" as="geometry" />
        </mxCell>
        <mxCell id="iwu1MowWG5Aq7Ths03g3-41" style="edgeStyle=orthogonalEdgeStyle;rounded=0;orthogonalLoop=1;jettySize=auto;html=1;exitX=0.5;exitY=1;exitDx=0;exitDy=0;entryX=0.5;entryY=0;entryDx=0;entryDy=0;fontSize=24;" parent="1" source="iwu1MowWG5Aq7Ths03g3-42" target="iwu1MowWG5Aq7Ths03g3-40" edge="1">
          <mxGeometry relative="1" as="geometry" />
        </mxCell>
        <mxCell id="iwu1MowWG5Aq7Ths03g3-42" value="&lt;p class=&quot;MsoNormal&quot; style=&quot;margin-bottom: 0.0001pt; line-height: normal; font-size: 24px;&quot;&gt;&lt;span style=&quot;line-height: 107%; font-family: calibri, sans-serif; font-size: 24px;&quot;&gt;&lt;font style=&quot;font-size: 24px;&quot;&gt;Panchajeet Rai&lt;/font&gt;&lt;/span&gt;&lt;br style=&quot;font-size: 24px;&quot;&gt;&lt;/p&gt;" style="whiteSpace=wrap;html=1;rounded=1;shadow=1;strokeWidth=1;fontSize=24;align=center;fillColor=#f5f5f5;strokeColor=#666666;verticalAlign=bottom;" parent="1" vertex="1">
          <mxGeometry x="260" y="4525" width="150" height="40" as="geometry" />
        </mxCell>
        <mxCell id="iwu1MowWG5Aq7Ths03g3-43" style="edgeStyle=orthogonalEdgeStyle;rounded=0;orthogonalLoop=1;jettySize=auto;html=1;exitX=0.5;exitY=1;exitDx=0;exitDy=0;entryX=0.5;entryY=0;entryDx=0;entryDy=0;fontSize=24;" parent="1" source="iwu1MowWG5Aq7Ths03g3-44" target="iwu1MowWG5Aq7Ths03g3-46" edge="1">
          <mxGeometry relative="1" as="geometry" />
        </mxCell>
        <mxCell id="iwu1MowWG5Aq7Ths03g3-44" value="&lt;p class=&quot;MsoNormal&quot; style=&quot;margin-bottom: 0.0001pt; line-height: normal; font-size: 24px;&quot;&gt;&lt;span style=&quot;line-height: 107%; font-family: calibri, sans-serif; font-size: 24px;&quot;&gt;&lt;font style=&quot;font-size: 24px;&quot;&gt;Mikshehang&lt;/font&gt;&lt;/span&gt;&lt;br style=&quot;font-size: 24px;&quot;&gt;&lt;/p&gt;" style="whiteSpace=wrap;html=1;rounded=1;shadow=1;strokeWidth=1;fontSize=24;align=center;fillColor=#f5f5f5;strokeColor=#666666;verticalAlign=bottom;" parent="1" vertex="1">
          <mxGeometry x="260" y="4405" width="150" height="40" as="geometry" />
        </mxCell>
        <mxCell id="iwu1MowWG5Aq7Ths03g3-45" style="edgeStyle=orthogonalEdgeStyle;rounded=0;orthogonalLoop=1;jettySize=auto;html=1;exitX=0.5;exitY=1;exitDx=0;exitDy=0;entryX=0.5;entryY=0;entryDx=0;entryDy=0;fontSize=24;" parent="1" source="iwu1MowWG5Aq7Ths03g3-46" target="iwu1MowWG5Aq7Ths03g3-42" edge="1">
          <mxGeometry relative="1" as="geometry" />
        </mxCell>
        <mxCell id="iwu1MowWG5Aq7Ths03g3-46" value="&lt;p class=&quot;MsoNormal&quot; style=&quot;margin-bottom: 0.0001pt; line-height: normal; font-size: 24px;&quot;&gt;&lt;font face=&quot;calibri, sans-serif&quot; style=&quot;font-size: 24px;&quot;&gt;&lt;span style=&quot;font-size: 24px;&quot;&gt;Radha Rai&lt;/span&gt;&lt;/font&gt;&lt;/p&gt;" style="whiteSpace=wrap;html=1;rounded=1;shadow=1;strokeWidth=1;fontSize=24;align=center;fillColor=#f5f5f5;strokeColor=#666666;verticalAlign=bottom;" parent="1" vertex="1">
          <mxGeometry x="260" y="4465" width="150" height="40" as="geometry" />
        </mxCell>
        <mxCell id="iwu1MowWG5Aq7Ths03g3-47" style="edgeStyle=orthogonalEdgeStyle;rounded=0;orthogonalLoop=1;jettySize=auto;html=1;exitX=0.5;exitY=1;exitDx=0;exitDy=0;entryX=0.5;entryY=0;entryDx=0;entryDy=0;fontSize=24;" parent="1" source="iwu1MowWG5Aq7Ths03g3-48" target="iwu1MowWG5Aq7Ths03g3-44" edge="1">
          <mxGeometry relative="1" as="geometry" />
        </mxCell>
        <mxCell id="iwu1MowWG5Aq7Ths03g3-48" value="&lt;p class=&quot;MsoNormal&quot; style=&quot;margin-bottom: 0.0001pt; line-height: normal; font-size: 24px;&quot;&gt;&lt;span style=&quot;line-height: 107%; font-family: calibri, sans-serif; font-size: 24px;&quot;&gt;&lt;font style=&quot;font-size: 24px;&quot;&gt;Mugehang&lt;/font&gt;&lt;/span&gt;&lt;br style=&quot;font-size: 24px;&quot;&gt;&lt;/p&gt;" style="whiteSpace=wrap;html=1;rounded=1;shadow=1;strokeWidth=1;fontSize=24;align=center;fillColor=#f5f5f5;strokeColor=#666666;verticalAlign=bottom;" parent="1" vertex="1">
          <mxGeometry x="260" y="4345" width="150" height="40" as="geometry" />
        </mxCell>
        <mxCell id="iwu1MowWG5Aq7Ths03g3-49" value="&lt;p class=&quot;MsoNormal&quot; style=&quot;margin-bottom: 0.0001pt; line-height: normal; font-size: 24px;&quot;&gt;&lt;span style=&quot;line-height: 107%; font-family: calibri, sans-serif; font-size: 24px;&quot;&gt;&lt;font style=&quot;font-size: 24px;&quot;&gt;Gore Rai&lt;/font&gt;&lt;/span&gt;&lt;br style=&quot;font-size: 24px;&quot;&gt;&lt;/p&gt;" style="whiteSpace=wrap;html=1;rounded=1;shadow=1;strokeWidth=1;fontSize=24;align=center;fillColor=#f5f5f5;strokeColor=#666666;verticalAlign=bottom;" parent="1" vertex="1">
          <mxGeometry x="260" y="4760" width="150" height="40" as="geometry" />
        </mxCell>
        <mxCell id="iwu1MowWG5Aq7Ths03g3-50" style="edgeStyle=orthogonalEdgeStyle;rounded=0;orthogonalLoop=1;jettySize=auto;html=1;exitX=0.5;exitY=1;exitDx=0;exitDy=0;entryX=0.5;entryY=0;entryDx=0;entryDy=0;fontSize=24;" parent="1" source="iwu1MowWG5Aq7Ths03g3-51" target="iwu1MowWG5Aq7Ths03g3-64" edge="1">
          <mxGeometry relative="1" as="geometry" />
        </mxCell>
        <mxCell id="iwu1MowWG5Aq7Ths03g3-51" value="&lt;p class=&quot;MsoNormal&quot; style=&quot;margin-bottom: 0.0001pt ; line-height: normal&quot;&gt;&lt;span style=&quot;line-height: 107% ; font-family: &amp;#34;calibri&amp;#34; , sans-serif&quot;&gt;&lt;font style=&quot;font-size: 16px&quot;&gt;Mathavar Singh&lt;/font&gt;&lt;/span&gt;&lt;br style=&quot;font-size: 24px&quot;&gt;&lt;/p&gt;" style="whiteSpace=wrap;html=1;rounded=1;shadow=1;strokeWidth=1;fontSize=24;align=center;fillColor=#f5f5f5;strokeColor=#666666;verticalAlign=bottom;" parent="1" vertex="1">
          <mxGeometry x="60" y="4700" width="150" height="40" as="geometry" />
        </mxCell>
        <mxCell id="iwu1MowWG5Aq7Ths03g3-52" style="edgeStyle=orthogonalEdgeStyle;rounded=0;orthogonalLoop=1;jettySize=auto;html=1;exitX=0.5;exitY=1;exitDx=0;exitDy=0;entryX=0.5;entryY=0;entryDx=0;entryDy=0;fontSize=24;" parent="1" source="iwu1MowWG5Aq7Ths03g3-53" target="iwu1MowWG5Aq7Ths03g3-51" edge="1">
          <mxGeometry relative="1" as="geometry" />
        </mxCell>
        <mxCell id="iwu1MowWG5Aq7Ths03g3-53" value="&lt;p class=&quot;MsoNormal&quot; style=&quot;margin-bottom: 0.0001pt ; line-height: normal&quot;&gt;&lt;span style=&quot;line-height: 107% ; font-family: &amp;#34;calibri&amp;#34; , sans-serif&quot;&gt;&lt;font style=&quot;font-size: 16px&quot;&gt;Agam Singh Rai&lt;/font&gt;&lt;/span&gt;&lt;br style=&quot;font-size: 24px&quot;&gt;&lt;/p&gt;" style="whiteSpace=wrap;html=1;rounded=1;shadow=1;strokeWidth=1;fontSize=24;align=center;fillColor=#f5f5f5;strokeColor=#666666;verticalAlign=bottom;" parent="1" vertex="1">
          <mxGeometry x="60" y="4640" width="150" height="40" as="geometry" />
        </mxCell>
        <mxCell id="iwu1MowWG5Aq7Ths03g3-54" style="edgeStyle=orthogonalEdgeStyle;rounded=0;orthogonalLoop=1;jettySize=auto;html=1;exitX=0.5;exitY=1;exitDx=0;exitDy=0;entryX=0.5;entryY=0;entryDx=0;entryDy=0;fontSize=24;" parent="1" source="iwu1MowWG5Aq7Ths03g3-55" target="iwu1MowWG5Aq7Ths03g3-53" edge="1">
          <mxGeometry relative="1" as="geometry" />
        </mxCell>
        <mxCell id="iwu1MowWG5Aq7Ths03g3-55" value="&lt;p class=&quot;MsoNormal&quot; style=&quot;margin-bottom: 0.0001pt; line-height: normal; font-size: 24px;&quot;&gt;&lt;span style=&quot;line-height: 107%; font-family: calibri, sans-serif; font-size: 24px;&quot;&gt;&lt;font style=&quot;font-size: 24px;&quot;&gt;Dhanamol Rai&lt;/font&gt;&lt;/span&gt;&lt;br style=&quot;font-size: 24px;&quot;&gt;&lt;/p&gt;" style="whiteSpace=wrap;html=1;rounded=1;shadow=1;strokeWidth=1;fontSize=24;align=center;fillColor=#f5f5f5;strokeColor=#666666;verticalAlign=bottom;" parent="1" vertex="1">
          <mxGeometry x="60" y="4580" width="150" height="40" as="geometry" />
        </mxCell>
        <mxCell id="iwu1MowWG5Aq7Ths03g3-56" style="edgeStyle=orthogonalEdgeStyle;rounded=0;orthogonalLoop=1;jettySize=auto;html=1;exitX=0.5;exitY=1;exitDx=0;exitDy=0;entryX=0.5;entryY=0;entryDx=0;entryDy=0;fontSize=24;" parent="1" source="iwu1MowWG5Aq7Ths03g3-57" target="iwu1MowWG5Aq7Ths03g3-55" edge="1">
          <mxGeometry relative="1" as="geometry" />
        </mxCell>
        <mxCell id="iwu1MowWG5Aq7Ths03g3-57" value="&lt;p class=&quot;MsoNormal&quot; style=&quot;margin-bottom: 0.0001pt; line-height: normal; font-size: 24px;&quot;&gt;&lt;span style=&quot;line-height: 107%; font-family: calibri, sans-serif; font-size: 24px;&quot;&gt;&lt;font style=&quot;font-size: 24px;&quot;&gt;Shanbal Rai&lt;/font&gt;&lt;/span&gt;&lt;br style=&quot;font-size: 24px;&quot;&gt;&lt;/p&gt;" style="whiteSpace=wrap;html=1;rounded=1;shadow=1;strokeWidth=1;fontSize=24;align=center;fillColor=#f5f5f5;strokeColor=#666666;verticalAlign=bottom;" parent="1" vertex="1">
          <mxGeometry x="60" y="4525" width="150" height="40" as="geometry" />
        </mxCell>
        <mxCell id="iwu1MowWG5Aq7Ths03g3-58" style="edgeStyle=orthogonalEdgeStyle;rounded=0;orthogonalLoop=1;jettySize=auto;html=1;exitX=0.5;exitY=1;exitDx=0;exitDy=0;entryX=0.5;entryY=0;entryDx=0;entryDy=0;fontSize=24;" parent="1" source="iwu1MowWG5Aq7Ths03g3-59" target="iwu1MowWG5Aq7Ths03g3-61" edge="1">
          <mxGeometry relative="1" as="geometry" />
        </mxCell>
        <mxCell id="iwu1MowWG5Aq7Ths03g3-59" value="&lt;p class=&quot;MsoNormal&quot; style=&quot;margin-bottom: 0.0001pt; line-height: normal; font-size: 24px;&quot;&gt;&lt;span style=&quot;line-height: 107%; font-family: calibri, sans-serif; font-size: 24px;&quot;&gt;&lt;font style=&quot;font-size: 24px;&quot;&gt;Lajinhang&lt;/font&gt;&lt;/span&gt;&lt;br style=&quot;font-size: 24px;&quot;&gt;&lt;/p&gt;" style="whiteSpace=wrap;html=1;rounded=1;shadow=1;strokeWidth=1;fontSize=24;align=center;fillColor=#f5f5f5;strokeColor=#666666;verticalAlign=bottom;" parent="1" vertex="1">
          <mxGeometry x="60" y="4405" width="150" height="40" as="geometry" />
        </mxCell>
        <mxCell id="iwu1MowWG5Aq7Ths03g3-60" style="edgeStyle=orthogonalEdgeStyle;rounded=0;orthogonalLoop=1;jettySize=auto;html=1;exitX=0.5;exitY=1;exitDx=0;exitDy=0;entryX=0.5;entryY=0;entryDx=0;entryDy=0;fontSize=24;" parent="1" source="iwu1MowWG5Aq7Ths03g3-61" target="iwu1MowWG5Aq7Ths03g3-57" edge="1">
          <mxGeometry relative="1" as="geometry" />
        </mxCell>
        <mxCell id="iwu1MowWG5Aq7Ths03g3-61" value="&lt;p class=&quot;MsoNormal&quot; style=&quot;margin-bottom: 0.0001pt; line-height: normal; font-size: 24px;&quot;&gt;&lt;font face=&quot;calibri, sans-serif&quot; style=&quot;font-size: 24px;&quot;&gt;&lt;span style=&quot;font-size: 24px;&quot;&gt;Dhanbal Rai&lt;/span&gt;&lt;/font&gt;&lt;/p&gt;" style="whiteSpace=wrap;html=1;rounded=1;shadow=1;strokeWidth=1;fontSize=24;align=center;fillColor=#f5f5f5;strokeColor=#666666;verticalAlign=bottom;" parent="1" vertex="1">
          <mxGeometry x="60" y="4465" width="150" height="40" as="geometry" />
        </mxCell>
        <mxCell id="iwu1MowWG5Aq7Ths03g3-62" style="edgeStyle=orthogonalEdgeStyle;rounded=0;orthogonalLoop=1;jettySize=auto;html=1;exitX=0.5;exitY=1;exitDx=0;exitDy=0;entryX=0.5;entryY=0;entryDx=0;entryDy=0;fontSize=24;" parent="1" source="iwu1MowWG5Aq7Ths03g3-63" target="iwu1MowWG5Aq7Ths03g3-59" edge="1">
          <mxGeometry relative="1" as="geometry" />
        </mxCell>
        <mxCell id="iwu1MowWG5Aq7Ths03g3-63" value="&lt;p class=&quot;MsoNormal&quot; style=&quot;margin-bottom: 0.0001pt; line-height: normal; font-size: 24px;&quot;&gt;&lt;span style=&quot;line-height: 107%; font-family: calibri, sans-serif; font-size: 24px;&quot;&gt;&lt;font style=&quot;font-size: 24px;&quot;&gt;Putu Rai&lt;/font&gt;&lt;/span&gt;&lt;br style=&quot;font-size: 24px;&quot;&gt;&lt;/p&gt;" style="whiteSpace=wrap;html=1;rounded=1;shadow=1;strokeWidth=1;fontSize=24;align=center;fillColor=#f5f5f5;strokeColor=#666666;verticalAlign=bottom;" parent="1" vertex="1">
          <mxGeometry x="60" y="4345" width="150" height="40" as="geometry" />
        </mxCell>
        <mxCell id="iwu1MowWG5Aq7Ths03g3-64" value="&lt;p class=&quot;MsoNormal&quot; style=&quot;margin-bottom: 0.0001pt; line-height: normal; font-size: 24px;&quot;&gt;&lt;span style=&quot;line-height: 107%; font-family: calibri, sans-serif; font-size: 24px;&quot;&gt;&lt;font style=&quot;font-size: 24px;&quot;&gt;Lalitbom Rai&lt;/font&gt;&lt;/span&gt;&lt;br style=&quot;font-size: 24px;&quot;&gt;&lt;/p&gt;" style="whiteSpace=wrap;html=1;rounded=1;shadow=1;strokeWidth=1;fontSize=24;align=center;fillColor=#f5f5f5;strokeColor=#666666;verticalAlign=bottom;" parent="1" vertex="1">
          <mxGeometry x="60" y="4760" width="150" height="40" as="geometry" />
        </mxCell>
        <mxCell id="iwu1MowWG5Aq7Ths03g3-73" style="edgeStyle=orthogonalEdgeStyle;rounded=0;orthogonalLoop=1;jettySize=auto;html=1;exitX=0.5;exitY=1;exitDx=0;exitDy=0;fontSize=16;" parent="1" source="iwu1MowWG5Aq7Ths03g3-72" target="iwu1MowWG5Aq7Ths03g3-2" edge="1">
          <mxGeometry relative="1" as="geometry" />
        </mxCell>
        <mxCell id="iwu1MowWG5Aq7Ths03g3-74" style="edgeStyle=orthogonalEdgeStyle;rounded=0;orthogonalLoop=1;jettySize=auto;html=1;exitX=0.5;exitY=1;exitDx=0;exitDy=0;fontSize=16;" parent="1" source="iwu1MowWG5Aq7Ths03g3-72" target="iwu1MowWG5Aq7Ths03g3-4" edge="1">
          <mxGeometry relative="1" as="geometry" />
        </mxCell>
        <mxCell id="iwu1MowWG5Aq7Ths03g3-75" style="edgeStyle=orthogonalEdgeStyle;rounded=0;orthogonalLoop=1;jettySize=auto;html=1;exitX=0.5;exitY=1;exitDx=0;exitDy=0;fontSize=16;" parent="1" source="iwu1MowWG5Aq7Ths03g3-72" target="iwu1MowWG5Aq7Ths03g3-6" edge="1">
          <mxGeometry relative="1" as="geometry" />
        </mxCell>
        <mxCell id="iwu1MowWG5Aq7Ths03g3-76" style="edgeStyle=orthogonalEdgeStyle;rounded=0;orthogonalLoop=1;jettySize=auto;html=1;exitX=0.5;exitY=1;exitDx=0;exitDy=0;entryX=0.5;entryY=0;entryDx=0;entryDy=0;fontSize=16;" parent="1" source="iwu1MowWG5Aq7Ths03g3-72" target="iwu1MowWG5Aq7Ths03g3-8" edge="1">
          <mxGeometry relative="1" as="geometry" />
        </mxCell>
        <mxCell id="iwu1MowWG5Aq7Ths03g3-72" value="&lt;p class=&quot;MsoNormal&quot; style=&quot;margin-bottom: 0.0001pt ; line-height: normal ; font-size: 24px&quot;&gt;&lt;span style=&quot;font-size: 24px ; line-height: 107% ; font-family: &amp;#34;calibri&amp;#34; , sans-serif&quot;&gt;Sayahang&lt;/span&gt;&lt;br style=&quot;font-size: 24px&quot;&gt;&lt;/p&gt;" style="whiteSpace=wrap;html=1;rounded=1;shadow=1;strokeWidth=1;fontSize=24;align=center;fillColor=#f5f5f5;strokeColor=#666666;verticalAlign=bottom;" parent="1" vertex="1">
          <mxGeometry x="510" y="4190" width="150" height="40" as="geometry" />
        </mxCell>
        <mxCell id="iwu1MowWG5Aq7Ths03g3-79" value="&lt;p class=&quot;MsoNormal&quot; style=&quot;margin-bottom: 0.0001pt ; line-height: normal ; font-size: 18px&quot;&gt;&lt;span style=&quot;line-height: 107% ; font-family: &amp;#34;calibri&amp;#34; , sans-serif ; font-size: 18px&quot;&gt;&lt;font style=&quot;font-size: 18px&quot;&gt;Ledukmang&lt;/font&gt;&lt;/span&gt;&lt;br style=&quot;font-size: 18px&quot;&gt;&lt;/p&gt;" style="whiteSpace=wrap;html=1;rounded=1;shadow=1;strokeWidth=1;fontSize=18;align=center;fillColor=#f5f5f5;strokeColor=#666666;verticalAlign=bottom;" parent="1" vertex="1">
          <mxGeometry x="1002" y="4670" width="120" height="40" as="geometry" />
        </mxCell>
        <mxCell id="iwu1MowWG5Aq7Ths03g3-82" value="&lt;p class=&quot;MsoNormal&quot; style=&quot;margin-bottom: 0.0001pt ; line-height: normal ; font-size: 18px&quot;&gt;&lt;span style=&quot;line-height: 107% ; font-family: &amp;#34;calibri&amp;#34; , sans-serif ; font-size: 18px&quot;&gt;&lt;font style=&quot;font-size: 18px&quot;&gt;Bhandra Bir&amp;nbsp;&lt;/font&gt;&lt;/span&gt;&lt;br style=&quot;font-size: 18px&quot;&gt;&lt;/p&gt;" style="whiteSpace=wrap;html=1;rounded=1;shadow=1;strokeWidth=1;fontSize=18;align=center;fillColor=#f5f5f5;strokeColor=#666666;verticalAlign=bottom;" parent="1" vertex="1">
          <mxGeometry x="931" y="4770" width="120" height="40" as="geometry" />
        </mxCell>
        <mxCell id="iwu1MowWG5Aq7Ths03g3-85" value="&lt;font style=&quot;font-size: 16px&quot;&gt;(Kanchi pati)&lt;/font&gt;" style="text;html=1;align=center;verticalAlign=middle;resizable=0;points=[];autosize=1;strokeColor=none;fillColor=none;fontSize=18;" parent="1" vertex="1">
          <mxGeometry x="936" y="4820" width="110" height="30" as="geometry" />
        </mxCell>
        <mxCell id="iwu1MowWG5Aq7Ths03g3-94" value="&lt;p class=&quot;MsoNormal&quot; style=&quot;margin-bottom: 0.0001pt ; line-height: normal ; font-size: 24px&quot;&gt;&lt;span style=&quot;font-size: 24px ; line-height: 107% ; font-family: &amp;#34;calibri&amp;#34; , sans-serif&quot;&gt;Dhanpai&lt;/span&gt;&lt;br style=&quot;font-size: 24px&quot;&gt;&lt;/p&gt;" style="whiteSpace=wrap;html=1;rounded=1;shadow=1;strokeWidth=1;fontSize=24;align=center;fillColor=#f5f5f5;strokeColor=#666666;verticalAlign=bottom;" parent="1" vertex="1">
          <mxGeometry x="610" y="4610" width="120" height="40" as="geometry" />
        </mxCell>
        <mxCell id="iwu1MowWG5Aq7Ths03g3-100" style="edgeStyle=orthogonalEdgeStyle;rounded=0;orthogonalLoop=1;jettySize=auto;html=1;exitX=0.5;exitY=1;exitDx=0;exitDy=0;fontSize=16;" parent="1" source="iwu1MowWG5Aq7Ths03g3-96" target="iwu1MowWG5Aq7Ths03g3-98" edge="1">
          <mxGeometry relative="1" as="geometry" />
        </mxCell>
        <mxCell id="iwu1MowWG5Aq7Ths03g3-101" style="edgeStyle=orthogonalEdgeStyle;rounded=0;orthogonalLoop=1;jettySize=auto;html=1;exitX=0.5;exitY=1;exitDx=0;exitDy=0;fontSize=16;" parent="1" source="iwu1MowWG5Aq7Ths03g3-96" target="iwu1MowWG5Aq7Ths03g3-97" edge="1">
          <mxGeometry relative="1" as="geometry" />
        </mxCell>
        <mxCell id="iwu1MowWG5Aq7Ths03g3-96" value="&lt;p class=&quot;MsoNormal&quot; style=&quot;margin-bottom: 0.0001pt; line-height: normal; font-size: 24px;&quot;&gt;&lt;span style=&quot;font-size: 24px; line-height: 107%; font-family: calibri, sans-serif;&quot;&gt;Billakarna Rai&lt;/span&gt;&lt;br style=&quot;font-size: 24px;&quot;&gt;&lt;/p&gt;" style="whiteSpace=wrap;html=1;rounded=1;shadow=1;strokeWidth=1;fontSize=24;align=center;fillColor=#f5f5f5;strokeColor=#666666;verticalAlign=bottom;" parent="1" vertex="1">
          <mxGeometry x="500" y="5060" width="150" height="40" as="geometry" />
        </mxCell>
        <mxCell id="iwu1MowWG5Aq7Ths03g3-103" style="edgeStyle=orthogonalEdgeStyle;rounded=0;orthogonalLoop=1;jettySize=auto;html=1;exitX=0.5;exitY=1;exitDx=0;exitDy=0;fontSize=16;" parent="1" source="iwu1MowWG5Aq7Ths03g3-97" target="iwu1MowWG5Aq7Ths03g3-102" edge="1">
          <mxGeometry relative="1" as="geometry" />
        </mxCell>
        <mxCell id="iwu1MowWG5Aq7Ths03g3-97" value="&lt;p class=&quot;MsoNormal&quot; style=&quot;margin-bottom: 0.0001pt ; line-height: normal ; font-size: 24px&quot;&gt;&lt;span style=&quot;font-size: 24px ; line-height: 107% ; font-family: &amp;#34;calibri&amp;#34; , sans-serif&quot;&gt;Rupkarna&lt;/span&gt;&lt;br style=&quot;font-size: 24px&quot;&gt;&lt;/p&gt;" style="whiteSpace=wrap;html=1;rounded=1;shadow=1;strokeWidth=1;fontSize=24;align=center;fillColor=#f5f5f5;strokeColor=#666666;verticalAlign=bottom;" parent="1" vertex="1">
          <mxGeometry x="400" y="5140" width="150" height="40" as="geometry" />
        </mxCell>
        <mxCell id="iwu1MowWG5Aq7Ths03g3-98" value="&lt;p class=&quot;MsoNormal&quot; style=&quot;margin-bottom: 0.0001pt ; line-height: normal ; font-size: 24px&quot;&gt;&lt;span style=&quot;font-size: 24px ; line-height: 107% ; font-family: &amp;#34;calibri&amp;#34; , sans-serif&quot;&gt;Kulbol&lt;/span&gt;&lt;br style=&quot;font-size: 24px&quot;&gt;&lt;/p&gt;" style="whiteSpace=wrap;html=1;rounded=1;shadow=1;strokeWidth=1;fontSize=24;align=center;fillColor=#f5f5f5;strokeColor=#666666;verticalAlign=bottom;" parent="1" vertex="1">
          <mxGeometry x="620" y="5140" width="150" height="40" as="geometry" />
        </mxCell>
        <mxCell id="iwu1MowWG5Aq7Ths03g3-107" style="edgeStyle=orthogonalEdgeStyle;rounded=0;orthogonalLoop=1;jettySize=auto;html=1;exitX=0.5;exitY=1;exitDx=0;exitDy=0;fontSize=16;" parent="1" source="iwu1MowWG5Aq7Ths03g3-102" target="iwu1MowWG5Aq7Ths03g3-104" edge="1">
          <mxGeometry relative="1" as="geometry" />
        </mxCell>
        <mxCell id="iwu1MowWG5Aq7Ths03g3-108" style="edgeStyle=orthogonalEdgeStyle;rounded=0;orthogonalLoop=1;jettySize=auto;html=1;exitX=0.5;exitY=1;exitDx=0;exitDy=0;fontSize=16;" parent="1" source="iwu1MowWG5Aq7Ths03g3-102" target="iwu1MowWG5Aq7Ths03g3-105" edge="1">
          <mxGeometry relative="1" as="geometry" />
        </mxCell>
        <mxCell id="iwu1MowWG5Aq7Ths03g3-102" value="&lt;p class=&quot;MsoNormal&quot; style=&quot;margin-bottom: 0.0001pt ; line-height: normal ; font-size: 24px&quot;&gt;&lt;span style=&quot;font-size: 24px ; line-height: 107% ; font-family: &amp;#34;calibri&amp;#34; , sans-serif&quot;&gt;Dal Bdr.&lt;/span&gt;&lt;br style=&quot;font-size: 24px&quot;&gt;&lt;/p&gt;" style="whiteSpace=wrap;html=1;rounded=1;shadow=1;strokeWidth=1;fontSize=24;align=center;fillColor=#f5f5f5;strokeColor=#666666;verticalAlign=bottom;" parent="1" vertex="1">
          <mxGeometry x="400" y="5220" width="150" height="40" as="geometry" />
        </mxCell>
        <mxCell id="iwu1MowWG5Aq7Ths03g3-111" style="edgeStyle=orthogonalEdgeStyle;rounded=0;orthogonalLoop=1;jettySize=auto;html=1;exitX=0.5;exitY=1;exitDx=0;exitDy=0;entryX=0.5;entryY=0;entryDx=0;entryDy=0;fontSize=16;" parent="1" source="iwu1MowWG5Aq7Ths03g3-104" target="iwu1MowWG5Aq7Ths03g3-109" edge="1">
          <mxGeometry relative="1" as="geometry" />
        </mxCell>
        <mxCell id="iwu1MowWG5Aq7Ths03g3-104" value="&lt;p class=&quot;MsoNormal&quot; style=&quot;margin-bottom: 0.0001pt ; line-height: normal ; font-size: 24px&quot;&gt;&lt;span style=&quot;font-size: 24px ; line-height: 107% ; font-family: &amp;#34;calibri&amp;#34; , sans-serif&quot;&gt;Hitman&lt;/span&gt;&lt;br style=&quot;font-size: 24px&quot;&gt;&lt;/p&gt;" style="whiteSpace=wrap;html=1;rounded=1;shadow=1;strokeWidth=1;fontSize=24;align=center;fillColor=#f5f5f5;strokeColor=#666666;verticalAlign=bottom;" parent="1" vertex="1">
          <mxGeometry x="69" y="5300" width="120" height="40" as="geometry" />
        </mxCell>
        <mxCell id="iwu1MowWG5Aq7Ths03g3-122" style="edgeStyle=orthogonalEdgeStyle;rounded=0;orthogonalLoop=1;jettySize=auto;html=1;exitX=0.5;exitY=1;exitDx=0;exitDy=0;fontSize=16;" parent="1" source="iwu1MowWG5Aq7Ths03g3-105" target="iwu1MowWG5Aq7Ths03g3-120" edge="1">
          <mxGeometry relative="1" as="geometry" />
        </mxCell>
        <mxCell id="2rr1QFybe_x9lLwn6GRt-1" style="edgeStyle=orthogonalEdgeStyle;rounded=0;orthogonalLoop=1;jettySize=auto;html=1;exitX=0.5;exitY=1;exitDx=0;exitDy=0;fontSize=18;" edge="1" parent="1" source="iwu1MowWG5Aq7Ths03g3-105" target="iwu1MowWG5Aq7Ths03g3-158">
          <mxGeometry relative="1" as="geometry" />
        </mxCell>
        <mxCell id="iwu1MowWG5Aq7Ths03g3-105" value="&lt;p class=&quot;MsoNormal&quot; style=&quot;margin-bottom: 0.0001pt ; line-height: normal ; font-size: 24px&quot;&gt;&lt;span style=&quot;font-size: 24px ; line-height: 107% ; font-family: &amp;#34;calibri&amp;#34; , sans-serif&quot;&gt;Bakhat Jung&lt;/span&gt;&lt;br style=&quot;font-size: 24px&quot;&gt;&lt;/p&gt;" style="whiteSpace=wrap;html=1;rounded=1;shadow=1;strokeWidth=1;fontSize=24;align=center;fillColor=#f5f5f5;strokeColor=#666666;verticalAlign=bottom;" parent="1" vertex="1">
          <mxGeometry x="770" y="5300" width="150" height="40" as="geometry" />
        </mxCell>
        <mxCell id="iwu1MowWG5Aq7Ths03g3-112" style="edgeStyle=orthogonalEdgeStyle;rounded=0;orthogonalLoop=1;jettySize=auto;html=1;exitX=0.5;exitY=1;exitDx=0;exitDy=0;entryX=0.5;entryY=0;entryDx=0;entryDy=0;fontSize=16;" parent="1" source="iwu1MowWG5Aq7Ths03g3-109" target="iwu1MowWG5Aq7Ths03g3-110" edge="1">
          <mxGeometry relative="1" as="geometry" />
        </mxCell>
        <mxCell id="iwu1MowWG5Aq7Ths03g3-109" value="&lt;p class=&quot;MsoNormal&quot; style=&quot;margin-bottom: 0.0001pt ; line-height: normal ; font-size: 24px&quot;&gt;&lt;span style=&quot;font-size: 24px ; line-height: 107% ; font-family: &amp;#34;calibri&amp;#34; , sans-serif&quot;&gt;Manpati&lt;/span&gt;&lt;br style=&quot;font-size: 24px&quot;&gt;&lt;/p&gt;" style="whiteSpace=wrap;html=1;rounded=1;shadow=1;strokeWidth=1;fontSize=24;align=center;fillColor=#f5f5f5;strokeColor=#666666;verticalAlign=bottom;" parent="1" vertex="1">
          <mxGeometry x="69" y="5380" width="120" height="40" as="geometry" />
        </mxCell>
        <mxCell id="iwu1MowWG5Aq7Ths03g3-116" style="edgeStyle=orthogonalEdgeStyle;rounded=0;orthogonalLoop=1;jettySize=auto;html=1;exitX=0.5;exitY=1;exitDx=0;exitDy=0;fontSize=16;" parent="1" source="iwu1MowWG5Aq7Ths03g3-110" target="iwu1MowWG5Aq7Ths03g3-113" edge="1">
          <mxGeometry relative="1" as="geometry" />
        </mxCell>
        <mxCell id="iwu1MowWG5Aq7Ths03g3-117" style="edgeStyle=orthogonalEdgeStyle;rounded=0;orthogonalLoop=1;jettySize=auto;html=1;exitX=0.5;exitY=1;exitDx=0;exitDy=0;fontSize=16;" parent="1" source="iwu1MowWG5Aq7Ths03g3-110" target="iwu1MowWG5Aq7Ths03g3-114" edge="1">
          <mxGeometry relative="1" as="geometry" />
        </mxCell>
        <mxCell id="iwu1MowWG5Aq7Ths03g3-118" style="edgeStyle=orthogonalEdgeStyle;rounded=0;orthogonalLoop=1;jettySize=auto;html=1;exitX=0.5;exitY=1;exitDx=0;exitDy=0;fontSize=16;" parent="1" source="iwu1MowWG5Aq7Ths03g3-110" target="iwu1MowWG5Aq7Ths03g3-115" edge="1">
          <mxGeometry relative="1" as="geometry" />
        </mxCell>
        <mxCell id="iwu1MowWG5Aq7Ths03g3-110" value="&lt;p class=&quot;MsoNormal&quot; style=&quot;margin-bottom: 0.0001pt ; line-height: normal ; font-size: 24px&quot;&gt;&lt;span style=&quot;font-size: 24px ; line-height: 107% ; font-family: &amp;#34;calibri&amp;#34; , sans-serif&quot;&gt;Man Bdr.&lt;/span&gt;&lt;br style=&quot;font-size: 24px&quot;&gt;&lt;/p&gt;" style="whiteSpace=wrap;html=1;rounded=1;shadow=1;strokeWidth=1;fontSize=24;align=center;fillColor=#f5f5f5;strokeColor=#666666;verticalAlign=bottom;" parent="1" vertex="1">
          <mxGeometry x="69" y="5460" width="120" height="40" as="geometry" />
        </mxCell>
        <mxCell id="iwu1MowWG5Aq7Ths03g3-113" value="&lt;p class=&quot;MsoNormal&quot; style=&quot;margin-bottom: 0.0001pt; line-height: normal; font-size: 16px;&quot;&gt;&lt;span style=&quot;font-size: 16px; line-height: 107%; font-family: calibri, sans-serif;&quot;&gt;Chhature = I&lt;/span&gt;&lt;br style=&quot;font-size: 16px;&quot;&gt;&lt;/p&gt;" style="whiteSpace=wrap;html=1;rounded=1;shadow=1;strokeWidth=1;fontSize=16;align=center;fillColor=#f5f5f5;strokeColor=#666666;verticalAlign=bottom;" parent="1" vertex="1">
          <mxGeometry x="29" y="5550" width="90" height="40" as="geometry" />
        </mxCell>
        <mxCell id="iwu1MowWG5Aq7Ths03g3-114" value="&lt;p class=&quot;MsoNormal&quot; style=&quot;margin-bottom: 0.0001pt; line-height: normal; font-size: 16px;&quot;&gt;&lt;span style=&quot;font-size: 16px; line-height: 107%; font-family: calibri, sans-serif;&quot;&gt;Mabine = I&lt;/span&gt;&lt;br style=&quot;font-size: 16px;&quot;&gt;&lt;/p&gt;" style="whiteSpace=wrap;html=1;rounded=1;shadow=1;strokeWidth=1;fontSize=16;align=center;fillColor=#f5f5f5;strokeColor=#666666;verticalAlign=bottom;" parent="1" vertex="1">
          <mxGeometry x="139" y="5550" width="90" height="40" as="geometry" />
        </mxCell>
        <mxCell id="iwu1MowWG5Aq7Ths03g3-115" value="&lt;p class=&quot;MsoNormal&quot; style=&quot;margin-bottom: 0.0001pt; line-height: normal; font-size: 16px;&quot;&gt;&lt;span style=&quot;font-size: 16px; line-height: 107%; font-family: calibri, sans-serif;&quot;&gt;Khisbire = I&lt;/span&gt;&lt;br style=&quot;font-size: 16px;&quot;&gt;&lt;/p&gt;" style="whiteSpace=wrap;html=1;rounded=1;shadow=1;strokeWidth=1;fontSize=16;align=center;fillColor=#f5f5f5;strokeColor=#666666;verticalAlign=bottom;" parent="1" vertex="1">
          <mxGeometry x="245" y="5550" width="90" height="40" as="geometry" />
        </mxCell>
        <mxCell id="2rr1QFybe_x9lLwn6GRt-13" style="edgeStyle=orthogonalEdgeStyle;rounded=0;orthogonalLoop=1;jettySize=auto;html=1;exitX=0.5;exitY=1;exitDx=0;exitDy=0;fontSize=18;" edge="1" parent="1" source="iwu1MowWG5Aq7Ths03g3-120" target="2rr1QFybe_x9lLwn6GRt-9">
          <mxGeometry relative="1" as="geometry" />
        </mxCell>
        <mxCell id="2rr1QFybe_x9lLwn6GRt-14" style="edgeStyle=orthogonalEdgeStyle;rounded=0;orthogonalLoop=1;jettySize=auto;html=1;exitX=0.5;exitY=1;exitDx=0;exitDy=0;fontSize=18;" edge="1" parent="1" source="iwu1MowWG5Aq7Ths03g3-120" target="2rr1QFybe_x9lLwn6GRt-5">
          <mxGeometry relative="1" as="geometry" />
        </mxCell>
        <mxCell id="2rr1QFybe_x9lLwn6GRt-15" style="edgeStyle=orthogonalEdgeStyle;rounded=0;orthogonalLoop=1;jettySize=auto;html=1;exitX=0.5;exitY=1;exitDx=0;exitDy=0;fontSize=18;" edge="1" parent="1" source="iwu1MowWG5Aq7Ths03g3-120" target="2rr1QFybe_x9lLwn6GRt-6">
          <mxGeometry relative="1" as="geometry" />
        </mxCell>
        <mxCell id="iwu1MowWG5Aq7Ths03g3-120" value="&lt;p class=&quot;MsoNormal&quot; style=&quot;margin-bottom: 0.0001pt ; line-height: normal ; font-size: 24px&quot;&gt;&lt;span style=&quot;font-size: 24px ; line-height: 107% ; font-family: &amp;#34;calibri&amp;#34; , sans-serif&quot;&gt;Dilliman&lt;/span&gt;&lt;br style=&quot;font-size: 24px&quot;&gt;&lt;/p&gt;" style="whiteSpace=wrap;html=1;rounded=1;shadow=1;strokeWidth=1;fontSize=24;align=center;fillColor=#f5f5f5;strokeColor=#666666;verticalAlign=bottom;" parent="1" vertex="1">
          <mxGeometry x="910" y="5380" width="150" height="40" as="geometry" />
        </mxCell>
        <mxCell id="iwu1MowWG5Aq7Ths03g3-134" value="&lt;p class=&quot;MsoNormal&quot; style=&quot;margin-bottom: 0.0001pt ; line-height: normal ; font-size: 24px&quot;&gt;&lt;span style=&quot;font-size: 24px ; line-height: 107% ; font-family: &amp;#34;calibri&amp;#34; , sans-serif&quot;&gt;Bajra = I&lt;/span&gt;&lt;br style=&quot;font-size: 24px&quot;&gt;&lt;/p&gt;" style="whiteSpace=wrap;html=1;rounded=1;shadow=1;strokeWidth=1;fontSize=24;align=center;fillColor=#f5f5f5;strokeColor=#666666;verticalAlign=bottom;" parent="1" vertex="1">
          <mxGeometry x="297" y="5470" width="100" height="40" as="geometry" />
        </mxCell>
        <mxCell id="iwu1MowWG5Aq7Ths03g3-154" value="&lt;span style=&quot;font-size: 20px ; text-align: center&quot;&gt;Singhbhuwa-1, Thulo ghar&lt;/span&gt;" style="text;whiteSpace=wrap;html=1;fontSize=16;" parent="1" vertex="1">
          <mxGeometry x="365" y="5300" width="275" height="30" as="geometry" />
        </mxCell>
        <mxCell id="iwu1MowWG5Aq7Ths03g3-179" style="edgeStyle=orthogonalEdgeStyle;rounded=0;orthogonalLoop=1;jettySize=auto;html=1;exitX=0.5;exitY=1;exitDx=0;exitDy=0;fontSize=18;" parent="1" source="iwu1MowWG5Aq7Ths03g3-158" target="iwu1MowWG5Aq7Ths03g3-134" edge="1">
          <mxGeometry relative="1" as="geometry" />
        </mxCell>
        <mxCell id="iwu1MowWG5Aq7Ths03g3-180" style="edgeStyle=orthogonalEdgeStyle;rounded=0;orthogonalLoop=1;jettySize=auto;html=1;exitX=0.5;exitY=1;exitDx=0;exitDy=0;fontSize=18;" parent="1" source="iwu1MowWG5Aq7Ths03g3-158" target="iwu1MowWG5Aq7Ths03g3-168" edge="1">
          <mxGeometry relative="1" as="geometry" />
        </mxCell>
        <mxCell id="iwu1MowWG5Aq7Ths03g3-181" style="edgeStyle=orthogonalEdgeStyle;rounded=0;orthogonalLoop=1;jettySize=auto;html=1;exitX=0.5;exitY=1;exitDx=0;exitDy=0;fontSize=18;" parent="1" source="iwu1MowWG5Aq7Ths03g3-158" target="iwu1MowWG5Aq7Ths03g3-161" edge="1">
          <mxGeometry relative="1" as="geometry" />
        </mxCell>
        <mxCell id="iwu1MowWG5Aq7Ths03g3-158" value="&lt;p class=&quot;MsoNormal&quot; style=&quot;margin-bottom: 0.0001pt ; line-height: normal ; font-size: 24px&quot;&gt;&lt;span style=&quot;font-size: 24px ; line-height: 107% ; font-family: &amp;#34;calibri&amp;#34; , sans-serif&quot;&gt;Jagadip&lt;/span&gt;&lt;br style=&quot;font-size: 24px&quot;&gt;&lt;/p&gt;" style="whiteSpace=wrap;html=1;rounded=1;shadow=1;strokeWidth=1;fontSize=24;align=center;fillColor=#f5f5f5;strokeColor=#666666;verticalAlign=bottom;" parent="1" vertex="1">
          <mxGeometry x="321.5" y="5380" width="150" height="40" as="geometry" />
        </mxCell>
        <mxCell id="iwu1MowWG5Aq7Ths03g3-159" style="edgeStyle=orthogonalEdgeStyle;rounded=0;orthogonalLoop=1;jettySize=auto;html=1;exitX=0.5;exitY=1;exitDx=0;exitDy=0;fontSize=16;" parent="1" source="iwu1MowWG5Aq7Ths03g3-161" target="iwu1MowWG5Aq7Ths03g3-164" edge="1">
          <mxGeometry relative="1" as="geometry" />
        </mxCell>
        <mxCell id="iwu1MowWG5Aq7Ths03g3-160" style="edgeStyle=orthogonalEdgeStyle;rounded=0;orthogonalLoop=1;jettySize=auto;html=1;exitX=0.5;exitY=1;exitDx=0;exitDy=0;fontSize=16;" parent="1" source="iwu1MowWG5Aq7Ths03g3-168" target="iwu1MowWG5Aq7Ths03g3-167" edge="1">
          <mxGeometry relative="1" as="geometry" />
        </mxCell>
        <mxCell id="iwu1MowWG5Aq7Ths03g3-161" value="&lt;p class=&quot;MsoNormal&quot; style=&quot;margin-bottom: 0.0001pt ; line-height: normal&quot;&gt;&lt;span style=&quot;line-height: 107% ; font-family: &amp;#34;calibri&amp;#34; , sans-serif&quot;&gt;&lt;font style=&quot;font-size: 18px&quot;&gt;Udaya Bdr.&lt;/font&gt;&lt;/span&gt;&lt;br style=&quot;font-size: 24px&quot;&gt;&lt;/p&gt;" style="whiteSpace=wrap;html=1;rounded=1;shadow=1;strokeWidth=1;fontSize=24;align=center;fillColor=#f5f5f5;strokeColor=#666666;verticalAlign=bottom;" parent="1" vertex="1">
          <mxGeometry x="533" y="5470" width="100" height="40" as="geometry" />
        </mxCell>
        <mxCell id="iwu1MowWG5Aq7Ths03g3-162" style="edgeStyle=orthogonalEdgeStyle;rounded=0;orthogonalLoop=1;jettySize=auto;html=1;exitX=0.5;exitY=1;exitDx=0;exitDy=0;" parent="1" source="iwu1MowWG5Aq7Ths03g3-164" target="iwu1MowWG5Aq7Ths03g3-165" edge="1">
          <mxGeometry relative="1" as="geometry" />
        </mxCell>
        <mxCell id="iwu1MowWG5Aq7Ths03g3-163" style="edgeStyle=orthogonalEdgeStyle;rounded=0;orthogonalLoop=1;jettySize=auto;html=1;exitX=0.5;exitY=1;exitDx=0;exitDy=0;entryX=0.5;entryY=0;entryDx=0;entryDy=0;" parent="1" source="iwu1MowWG5Aq7Ths03g3-164" target="iwu1MowWG5Aq7Ths03g3-166" edge="1">
          <mxGeometry relative="1" as="geometry" />
        </mxCell>
        <mxCell id="iwu1MowWG5Aq7Ths03g3-164" value="&lt;p class=&quot;MsoNormal&quot; style=&quot;margin-bottom: 0.0001pt; line-height: normal; font-size: 24px;&quot;&gt;&lt;span style=&quot;font-size: 24px; line-height: 107%; font-family: calibri, sans-serif;&quot;&gt;Surya Bdr.&lt;/span&gt;&lt;br style=&quot;font-size: 24px;&quot;&gt;&lt;/p&gt;" style="whiteSpace=wrap;html=1;rounded=1;shadow=1;strokeWidth=1;fontSize=24;align=center;fillColor=#f5f5f5;strokeColor=#666666;verticalAlign=bottom;" parent="1" vertex="1">
          <mxGeometry x="533" y="5540" width="100" height="40" as="geometry" />
        </mxCell>
        <mxCell id="iwu1MowWG5Aq7Ths03g3-165" value="&lt;p class=&quot;MsoNormal&quot; style=&quot;margin-bottom: 0.0001pt; line-height: normal; font-size: 24px;&quot;&gt;&lt;span style=&quot;font-size: 24px; line-height: 107%; font-family: calibri, sans-serif;&quot;&gt;Mukti&lt;/span&gt;&lt;br style=&quot;font-size: 24px;&quot;&gt;&lt;/p&gt;" style="whiteSpace=wrap;html=1;rounded=1;shadow=1;strokeWidth=1;fontSize=24;align=center;fillColor=#f5f5f5;strokeColor=#666666;verticalAlign=bottom;" parent="1" vertex="1">
          <mxGeometry x="443" y="5640.5" width="80" height="40" as="geometry" />
        </mxCell>
        <mxCell id="iwu1MowWG5Aq7Ths03g3-166" value="&lt;p class=&quot;MsoNormal&quot; style=&quot;margin-bottom: 0.0001pt; line-height: normal; font-size: 24px;&quot;&gt;&lt;span style=&quot;font-size: 24px; line-height: 107%; font-family: calibri, sans-serif;&quot;&gt;Yukti&lt;/span&gt;&lt;br style=&quot;font-size: 24px;&quot;&gt;&lt;/p&gt;" style="whiteSpace=wrap;html=1;rounded=1;shadow=1;strokeWidth=1;fontSize=24;align=center;fillColor=#f5f5f5;strokeColor=#666666;verticalAlign=bottom;" parent="1" vertex="1">
          <mxGeometry x="543" y="5640.5" width="80" height="40" as="geometry" />
        </mxCell>
        <mxCell id="iwu1MowWG5Aq7Ths03g3-167" value="&lt;p class=&quot;MsoNormal&quot; style=&quot;margin-bottom: 0.0001pt; line-height: normal; font-size: 24px;&quot;&gt;&lt;span style=&quot;font-size: 24px; line-height: 107%; font-family: calibri, sans-serif;&quot;&gt;Tek Bdr.&lt;/span&gt;&lt;br style=&quot;font-size: 24px;&quot;&gt;&lt;/p&gt;" style="whiteSpace=wrap;html=1;rounded=1;shadow=1;strokeWidth=1;fontSize=24;align=center;fillColor=#f5f5f5;strokeColor=#666666;verticalAlign=bottom;" parent="1" vertex="1">
          <mxGeometry x="414.5" y="5540" width="100" height="40" as="geometry" />
        </mxCell>
        <mxCell id="iwu1MowWG5Aq7Ths03g3-168" value="&lt;p class=&quot;MsoNormal&quot; style=&quot;margin-bottom: 0.0001pt; line-height: normal; font-size: 24px;&quot;&gt;&lt;span style=&quot;font-size: 24px; line-height: 107%; font-family: calibri, sans-serif;&quot;&gt;Ghondrok&lt;/span&gt;&lt;br style=&quot;font-size: 24px;&quot;&gt;&lt;/p&gt;" style="whiteSpace=wrap;html=1;rounded=1;shadow=1;strokeWidth=1;fontSize=24;align=center;fillColor=#f5f5f5;strokeColor=#666666;verticalAlign=bottom;" parent="1" vertex="1">
          <mxGeometry x="414.5" y="5470" width="100" height="40" as="geometry" />
        </mxCell>
        <mxCell id="iwu1MowWG5Aq7Ths03g3-182" value="&lt;span style=&quot;color: rgb(0 , 0 , 0) ; font-family: &amp;#34;helvetica&amp;#34; ; font-style: normal ; font-weight: 400 ; letter-spacing: normal ; text-align: center ; text-indent: 0px ; text-transform: none ; word-spacing: 0px ; background-color: rgb(248 , 249 , 250) ; display: inline ; float: none&quot;&gt;&lt;font style=&quot;font-size: 18px&quot;&gt;(2 missing out of 5 )&lt;/font&gt;&lt;/span&gt;" style="text;whiteSpace=wrap;html=1;fontSize=18;" parent="1" vertex="1">
          <mxGeometry x="297" y="5510" width="260" height="40" as="geometry" />
        </mxCell>
        <mxCell id="2rr1QFybe_x9lLwn6GRt-4" value="&lt;p class=&quot;MsoNormal&quot; style=&quot;margin-bottom: 0.0001pt; line-height: normal; font-size: 18px;&quot;&gt;&lt;span style=&quot;font-size: 18px; line-height: 107%; font-family: calibri, sans-serif;&quot;&gt;Chandra&lt;/span&gt;&lt;br style=&quot;font-size: 18px;&quot;&gt;&lt;/p&gt;" style="whiteSpace=wrap;html=1;rounded=1;shadow=1;strokeWidth=1;fontSize=18;align=center;fillColor=#f5f5f5;strokeColor=#666666;verticalAlign=bottom;" vertex="1" parent="1">
          <mxGeometry x="1060" y="5540" width="80" height="40" as="geometry" />
        </mxCell>
        <mxCell id="2rr1QFybe_x9lLwn6GRt-23" style="edgeStyle=orthogonalEdgeStyle;rounded=0;orthogonalLoop=1;jettySize=auto;html=1;exitX=0.5;exitY=1;exitDx=0;exitDy=0;fontSize=15;" edge="1" parent="1" source="2rr1QFybe_x9lLwn6GRt-5" target="2rr1QFybe_x9lLwn6GRt-11">
          <mxGeometry relative="1" as="geometry" />
        </mxCell>
        <mxCell id="2rr1QFybe_x9lLwn6GRt-24" style="edgeStyle=orthogonalEdgeStyle;rounded=0;orthogonalLoop=1;jettySize=auto;html=1;exitX=0.5;exitY=1;exitDx=0;exitDy=0;entryX=0.5;entryY=0;entryDx=0;entryDy=0;fontSize=15;" edge="1" parent="1" source="2rr1QFybe_x9lLwn6GRt-5" target="2rr1QFybe_x9lLwn6GRt-22">
          <mxGeometry relative="1" as="geometry" />
        </mxCell>
        <mxCell id="2rr1QFybe_x9lLwn6GRt-25" style="edgeStyle=orthogonalEdgeStyle;rounded=0;orthogonalLoop=1;jettySize=auto;html=1;exitX=0.5;exitY=1;exitDx=0;exitDy=0;fontSize=15;" edge="1" parent="1" source="2rr1QFybe_x9lLwn6GRt-5" target="2rr1QFybe_x9lLwn6GRt-7">
          <mxGeometry relative="1" as="geometry" />
        </mxCell>
        <mxCell id="2rr1QFybe_x9lLwn6GRt-5" value="&lt;p class=&quot;MsoNormal&quot; style=&quot;margin-bottom: 0.0001pt; line-height: normal; font-size: 18px;&quot;&gt;&lt;span style=&quot;font-size: 18px; line-height: 107%; font-family: calibri, sans-serif;&quot;&gt;Dil Bdr.&lt;/span&gt;&lt;br style=&quot;font-size: 18px;&quot;&gt;&lt;/p&gt;" style="whiteSpace=wrap;html=1;rounded=1;shadow=1;strokeWidth=1;fontSize=18;align=center;fillColor=#f5f5f5;strokeColor=#666666;verticalAlign=bottom;" vertex="1" parent="1">
          <mxGeometry x="831" y="5460" width="100" height="40" as="geometry" />
        </mxCell>
        <mxCell id="2rr1QFybe_x9lLwn6GRt-27" style="edgeStyle=orthogonalEdgeStyle;rounded=0;orthogonalLoop=1;jettySize=auto;html=1;exitX=0.5;exitY=1;exitDx=0;exitDy=0;entryX=0.5;entryY=0;entryDx=0;entryDy=0;fontSize=15;" edge="1" parent="1" source="2rr1QFybe_x9lLwn6GRt-6" target="2rr1QFybe_x9lLwn6GRt-4">
          <mxGeometry relative="1" as="geometry" />
        </mxCell>
        <mxCell id="2rr1QFybe_x9lLwn6GRt-6" value="&lt;p class=&quot;MsoNormal&quot; style=&quot;margin-bottom: 0.0001pt; line-height: normal; font-size: 18px;&quot;&gt;&lt;span style=&quot;font-size: 18px; line-height: 107%; font-family: calibri, sans-serif;&quot;&gt;Bhim Bdr.&lt;/span&gt;&lt;br style=&quot;font-size: 18px;&quot;&gt;&lt;/p&gt;" style="whiteSpace=wrap;html=1;rounded=1;shadow=1;strokeWidth=1;fontSize=18;align=center;fillColor=#f5f5f5;strokeColor=#666666;verticalAlign=bottom;" vertex="1" parent="1">
          <mxGeometry x="960" y="5460" width="100" height="40" as="geometry" />
        </mxCell>
        <mxCell id="2rr1QFybe_x9lLwn6GRt-7" value="&lt;p class=&quot;MsoNormal&quot; style=&quot;margin-bottom: 0.0001pt; line-height: normal; font-size: 15px;&quot;&gt;&lt;span style=&quot;font-size: 15px; line-height: 107%; font-family: calibri, sans-serif;&quot;&gt;Som Bdr. (A)&lt;/span&gt;&lt;br style=&quot;font-size: 15px;&quot;&gt;&lt;/p&gt;" style="whiteSpace=wrap;html=1;rounded=1;shadow=1;strokeWidth=1;fontSize=15;align=center;fillColor=#f5f5f5;strokeColor=#666666;verticalAlign=bottom;" vertex="1" parent="1">
          <mxGeometry x="960" y="5540" width="80" height="40" as="geometry" />
        </mxCell>
        <mxCell id="2rr1QFybe_x9lLwn6GRt-17" style="edgeStyle=orthogonalEdgeStyle;rounded=0;orthogonalLoop=1;jettySize=auto;html=1;exitX=0.5;exitY=1;exitDx=0;exitDy=0;fontSize=18;" edge="1" parent="1" source="2rr1QFybe_x9lLwn6GRt-8">
          <mxGeometry relative="1" as="geometry">
            <mxPoint x="709" y="5640.5" as="targetPoint" />
          </mxGeometry>
        </mxCell>
        <mxCell id="2rr1QFybe_x9lLwn6GRt-21" style="edgeStyle=orthogonalEdgeStyle;rounded=0;orthogonalLoop=1;jettySize=auto;html=1;exitX=0.5;exitY=1;exitDx=0;exitDy=0;fontSize=18;" edge="1" parent="1" source="2rr1QFybe_x9lLwn6GRt-8" target="2rr1QFybe_x9lLwn6GRt-19">
          <mxGeometry relative="1" as="geometry" />
        </mxCell>
        <mxCell id="2rr1QFybe_x9lLwn6GRt-8" value="&lt;p class=&quot;MsoNormal&quot; style=&quot;margin-bottom: 0.0001pt; line-height: normal; font-size: 18px;&quot;&gt;&lt;span style=&quot;font-size: 18px; line-height: 107%; font-family: calibri, sans-serif;&quot;&gt;Prem Bdr.&lt;/span&gt;&lt;br style=&quot;font-size: 18px;&quot;&gt;&lt;/p&gt;" style="whiteSpace=wrap;html=1;rounded=1;shadow=1;strokeWidth=1;fontSize=18;align=center;fillColor=#f5f5f5;strokeColor=#666666;verticalAlign=bottom;" vertex="1" parent="1">
          <mxGeometry x="659" y="5540" width="80" height="40" as="geometry" />
        </mxCell>
        <mxCell id="2rr1QFybe_x9lLwn6GRt-16" style="edgeStyle=orthogonalEdgeStyle;rounded=0;orthogonalLoop=1;jettySize=auto;html=1;exitX=0.5;exitY=1;exitDx=0;exitDy=0;fontSize=18;" edge="1" parent="1" source="2rr1QFybe_x9lLwn6GRt-9" target="2rr1QFybe_x9lLwn6GRt-8">
          <mxGeometry relative="1" as="geometry" />
        </mxCell>
        <mxCell id="2rr1QFybe_x9lLwn6GRt-9" value="&lt;p class=&quot;MsoNormal&quot; style=&quot;margin-bottom: 0.0001pt; line-height: normal; font-size: 18px;&quot;&gt;&lt;span style=&quot;font-size: 18px; line-height: 107%; font-family: calibri, sans-serif;&quot;&gt;Agam Bdr.&lt;/span&gt;&lt;br style=&quot;font-size: 18px;&quot;&gt;&lt;/p&gt;" style="whiteSpace=wrap;html=1;rounded=1;shadow=1;strokeWidth=1;fontSize=18;align=center;fillColor=#f5f5f5;strokeColor=#666666;verticalAlign=bottom;" vertex="1" parent="1">
          <mxGeometry x="688" y="5460" width="100" height="40" as="geometry" />
        </mxCell>
        <mxCell id="2rr1QFybe_x9lLwn6GRt-11" value="&lt;p class=&quot;MsoNormal&quot; style=&quot;margin-bottom: 0.0001pt; line-height: normal; font-size: 15px;&quot;&gt;&lt;span style=&quot;font-size: 15px; line-height: 107%; font-family: calibri, sans-serif;&quot;&gt;Bharat (A)&lt;/span&gt;&lt;br style=&quot;font-size: 15px;&quot;&gt;&lt;/p&gt;" style="whiteSpace=wrap;html=1;rounded=1;shadow=1;strokeWidth=1;fontSize=15;align=center;fillColor=#f5f5f5;strokeColor=#666666;verticalAlign=bottom;" vertex="1" parent="1">
          <mxGeometry x="769" y="5540" width="80" height="40" as="geometry" />
        </mxCell>
        <mxCell id="2rr1QFybe_x9lLwn6GRt-19" value="&lt;p class=&quot;MsoNormal&quot; style=&quot;margin-bottom: 0.0001pt; line-height: normal; font-size: 18px;&quot;&gt;&lt;span style=&quot;font-size: 18px; line-height: 107%; font-family: calibri, sans-serif;&quot;&gt;Jagat&lt;/span&gt;&lt;br style=&quot;font-size: 18px;&quot;&gt;&lt;/p&gt;" style="whiteSpace=wrap;html=1;rounded=1;shadow=1;strokeWidth=1;fontSize=18;align=center;fillColor=#f5f5f5;strokeColor=#666666;verticalAlign=bottom;" vertex="1" parent="1">
          <mxGeometry x="740" y="5640.5" width="80" height="40" as="geometry" />
        </mxCell>
        <mxCell id="2rr1QFybe_x9lLwn6GRt-20" value="&lt;p class=&quot;MsoNormal&quot; style=&quot;margin-bottom: 0.0001pt; line-height: normal; font-size: 18px;&quot;&gt;&lt;span style=&quot;font-size: 18px; line-height: 107%; font-family: calibri, sans-serif;&quot;&gt;Kaman&lt;/span&gt;&lt;br style=&quot;font-size: 18px;&quot;&gt;&lt;/p&gt;" style="whiteSpace=wrap;html=1;rounded=1;shadow=1;strokeWidth=1;fontSize=18;align=center;fillColor=#f5f5f5;strokeColor=#666666;verticalAlign=bottom;" vertex="1" parent="1">
          <mxGeometry x="648" y="5640.5" width="80" height="40" as="geometry" />
        </mxCell>
        <mxCell id="2rr1QFybe_x9lLwn6GRt-22" value="&lt;p class=&quot;MsoNormal&quot; style=&quot;margin-bottom: 0.0001pt; line-height: normal; font-size: 15px;&quot;&gt;&lt;span style=&quot;font-size: 15px; line-height: 107%; font-family: calibri, sans-serif;&quot;&gt;Phatik (A)&lt;/span&gt;&lt;br style=&quot;font-size: 15px;&quot;&gt;&lt;/p&gt;" style="whiteSpace=wrap;html=1;rounded=1;shadow=1;strokeWidth=1;fontSize=15;align=center;fillColor=#f5f5f5;strokeColor=#666666;verticalAlign=bottom;" vertex="1" parent="1">
          <mxGeometry x="865" y="5540" width="80" height="40" as="geometry" />
        </mxCell>
        <mxCell id="2rr1QFybe_x9lLwn6GRt-35" style="edgeStyle=orthogonalEdgeStyle;rounded=0;orthogonalLoop=1;jettySize=auto;html=1;exitX=0.5;exitY=1;exitDx=0;exitDy=0;entryX=0.5;entryY=0;entryDx=0;entryDy=0;fontSize=15;" edge="1" parent="1" source="2rr1QFybe_x9lLwn6GRt-29" target="2rr1QFybe_x9lLwn6GRt-30">
          <mxGeometry relative="1" as="geometry" />
        </mxCell>
        <mxCell id="2rr1QFybe_x9lLwn6GRt-29" value="&lt;p class=&quot;MsoNormal&quot; style=&quot;margin-bottom: 0.0001pt ; line-height: normal ; font-size: 24px&quot;&gt;&lt;span style=&quot;font-size: 24px ; line-height: 107% ; font-family: &amp;#34;calibri&amp;#34; , sans-serif&quot;&gt;Kulbol&lt;/span&gt;&lt;br style=&quot;font-size: 24px&quot;&gt;&lt;/p&gt;" style="whiteSpace=wrap;html=1;rounded=1;shadow=1;strokeWidth=1;fontSize=24;align=center;fillColor=#f5f5f5;strokeColor=#666666;verticalAlign=bottom;" vertex="1" parent="1">
          <mxGeometry x="500" y="5860" width="150" height="40" as="geometry" />
        </mxCell>
        <mxCell id="2rr1QFybe_x9lLwn6GRt-34" style="edgeStyle=orthogonalEdgeStyle;rounded=0;orthogonalLoop=1;jettySize=auto;html=1;exitX=0.5;exitY=1;exitDx=0;exitDy=0;fontSize=15;" edge="1" parent="1" source="2rr1QFybe_x9lLwn6GRt-30" target="2rr1QFybe_x9lLwn6GRt-32">
          <mxGeometry relative="1" as="geometry" />
        </mxCell>
        <mxCell id="2rr1QFybe_x9lLwn6GRt-177" style="edgeStyle=orthogonalEdgeStyle;rounded=0;orthogonalLoop=1;jettySize=auto;html=1;exitX=0.5;exitY=1;exitDx=0;exitDy=0;fontSize=18;" edge="1" parent="1" source="2rr1QFybe_x9lLwn6GRt-30" target="2rr1QFybe_x9lLwn6GRt-176">
          <mxGeometry relative="1" as="geometry" />
        </mxCell>
        <mxCell id="2rr1QFybe_x9lLwn6GRt-30" value="&lt;p class=&quot;MsoNormal&quot; style=&quot;margin-bottom: 0.0001pt ; line-height: normal ; font-size: 24px&quot;&gt;&lt;span style=&quot;font-size: 24px ; line-height: 107% ; font-family: &amp;#34;calibri&amp;#34; , sans-serif&quot;&gt;Nardal&lt;/span&gt;&lt;br style=&quot;font-size: 24px&quot;&gt;&lt;/p&gt;" style="whiteSpace=wrap;html=1;rounded=1;shadow=1;strokeWidth=1;fontSize=24;align=center;fillColor=#f5f5f5;strokeColor=#666666;verticalAlign=bottom;" vertex="1" parent="1">
          <mxGeometry x="500" y="5940" width="150" height="40" as="geometry" />
        </mxCell>
        <mxCell id="2rr1QFybe_x9lLwn6GRt-172" style="edgeStyle=orthogonalEdgeStyle;rounded=0;orthogonalLoop=1;jettySize=auto;html=1;exitX=0.5;exitY=1;exitDx=0;exitDy=0;entryX=0.5;entryY=0;entryDx=0;entryDy=0;fontSize=18;" edge="1" parent="1" source="2rr1QFybe_x9lLwn6GRt-31" target="2rr1QFybe_x9lLwn6GRt-129">
          <mxGeometry relative="1" as="geometry" />
        </mxCell>
        <mxCell id="2rr1QFybe_x9lLwn6GRt-173" style="edgeStyle=orthogonalEdgeStyle;rounded=0;orthogonalLoop=1;jettySize=auto;html=1;exitX=0.5;exitY=1;exitDx=0;exitDy=0;entryX=0.5;entryY=0;entryDx=0;entryDy=0;fontSize=18;" edge="1" parent="1" source="2rr1QFybe_x9lLwn6GRt-31" target="2rr1QFybe_x9lLwn6GRt-133">
          <mxGeometry relative="1" as="geometry" />
        </mxCell>
        <mxCell id="2rr1QFybe_x9lLwn6GRt-174" style="edgeStyle=orthogonalEdgeStyle;rounded=0;orthogonalLoop=1;jettySize=auto;html=1;exitX=0.5;exitY=1;exitDx=0;exitDy=0;fontSize=18;" edge="1" parent="1" source="2rr1QFybe_x9lLwn6GRt-31" target="2rr1QFybe_x9lLwn6GRt-137">
          <mxGeometry relative="1" as="geometry" />
        </mxCell>
        <mxCell id="2rr1QFybe_x9lLwn6GRt-175" style="edgeStyle=orthogonalEdgeStyle;rounded=0;orthogonalLoop=1;jettySize=auto;html=1;exitX=0.5;exitY=1;exitDx=0;exitDy=0;fontSize=18;" edge="1" parent="1" source="2rr1QFybe_x9lLwn6GRt-31" target="2rr1QFybe_x9lLwn6GRt-140">
          <mxGeometry relative="1" as="geometry" />
        </mxCell>
        <mxCell id="2rr1QFybe_x9lLwn6GRt-31" value="&lt;p class=&quot;MsoNormal&quot; style=&quot;margin-bottom: 0.0001pt ; line-height: normal ; font-size: 24px&quot;&gt;&lt;span style=&quot;font-size: 24px ; line-height: 107% ; font-family: &amp;#34;calibri&amp;#34; , sans-serif&quot;&gt;Birbal&lt;/span&gt;&lt;br style=&quot;font-size: 24px&quot;&gt;&lt;/p&gt;" style="whiteSpace=wrap;html=1;rounded=1;shadow=1;strokeWidth=1;fontSize=24;align=center;fillColor=#f5f5f5;strokeColor=#666666;verticalAlign=bottom;" vertex="1" parent="1">
          <mxGeometry x="332.99" y="6120" width="150" height="40" as="geometry" />
        </mxCell>
        <mxCell id="2rr1QFybe_x9lLwn6GRt-32" value="&lt;p class=&quot;MsoNormal&quot; style=&quot;margin-bottom: 0.0001pt ; line-height: normal ; font-size: 24px&quot;&gt;&lt;span style=&quot;font-size: 24px ; line-height: 107% ; font-family: &amp;#34;calibri&amp;#34; , sans-serif&quot;&gt;Shreedhoj&lt;/span&gt;&lt;br style=&quot;font-size: 24px&quot;&gt;&lt;/p&gt;" style="whiteSpace=wrap;html=1;rounded=1;shadow=1;strokeWidth=1;fontSize=24;align=center;fillColor=#f5f5f5;strokeColor=#666666;verticalAlign=bottom;" vertex="1" parent="1">
          <mxGeometry x="659" y="6030" width="150" height="40" as="geometry" />
        </mxCell>
        <mxCell id="2rr1QFybe_x9lLwn6GRt-128" style="edgeStyle=orthogonalEdgeStyle;rounded=0;orthogonalLoop=1;jettySize=auto;html=1;exitX=0.5;exitY=1;exitDx=0;exitDy=0;" edge="1" parent="1" source="2rr1QFybe_x9lLwn6GRt-129" target="2rr1QFybe_x9lLwn6GRt-143">
          <mxGeometry relative="1" as="geometry" />
        </mxCell>
        <mxCell id="2rr1QFybe_x9lLwn6GRt-129" value="&lt;p class=&quot;MsoNormal&quot; style=&quot;margin-bottom: 0.0001pt ; line-height: normal ; font-size: 24px&quot;&gt;&lt;span style=&quot;font-size: 24px ; line-height: 107% ; font-family: &amp;#34;calibri&amp;#34; , sans-serif&quot;&gt;Jagadhan&lt;/span&gt;&lt;br style=&quot;font-size: 24px&quot;&gt;&lt;/p&gt;" style="whiteSpace=wrap;html=1;rounded=1;shadow=1;strokeWidth=1;fontSize=24;align=center;fillColor=#f5f5f5;strokeColor=#666666;verticalAlign=bottom;" vertex="1" parent="1">
          <mxGeometry x="61.99" y="6240" width="120" height="40" as="geometry" />
        </mxCell>
        <mxCell id="2rr1QFybe_x9lLwn6GRt-155" style="edgeStyle=orthogonalEdgeStyle;rounded=0;orthogonalLoop=1;jettySize=auto;html=1;exitX=0.5;exitY=1;exitDx=0;exitDy=0;fontSize=15;" edge="1" parent="1" source="2rr1QFybe_x9lLwn6GRt-133" target="2rr1QFybe_x9lLwn6GRt-145">
          <mxGeometry relative="1" as="geometry" />
        </mxCell>
        <mxCell id="2rr1QFybe_x9lLwn6GRt-156" style="edgeStyle=orthogonalEdgeStyle;rounded=0;orthogonalLoop=1;jettySize=auto;html=1;exitX=0.5;exitY=1;exitDx=0;exitDy=0;fontSize=15;" edge="1" parent="1" source="2rr1QFybe_x9lLwn6GRt-133" target="2rr1QFybe_x9lLwn6GRt-146">
          <mxGeometry relative="1" as="geometry" />
        </mxCell>
        <mxCell id="2rr1QFybe_x9lLwn6GRt-157" style="edgeStyle=orthogonalEdgeStyle;rounded=0;orthogonalLoop=1;jettySize=auto;html=1;exitX=0.5;exitY=1;exitDx=0;exitDy=0;fontSize=15;" edge="1" parent="1" source="2rr1QFybe_x9lLwn6GRt-133" target="2rr1QFybe_x9lLwn6GRt-147">
          <mxGeometry relative="1" as="geometry" />
        </mxCell>
        <mxCell id="2rr1QFybe_x9lLwn6GRt-133" value="&lt;p class=&quot;MsoNormal&quot; style=&quot;margin-bottom: 0.0001pt ; line-height: normal ; font-size: 24px&quot;&gt;&lt;span style=&quot;font-size: 24px ; line-height: 107% ; font-family: &amp;#34;calibri&amp;#34; , sans-serif&quot;&gt;Ratnadhan&lt;/span&gt;&lt;br style=&quot;font-size: 24px&quot;&gt;&lt;/p&gt;" style="whiteSpace=wrap;html=1;rounded=1;shadow=1;strokeWidth=1;fontSize=24;align=center;fillColor=#f5f5f5;strokeColor=#666666;verticalAlign=bottom;" vertex="1" parent="1">
          <mxGeometry x="362.99" y="6240" width="120" height="40" as="geometry" />
        </mxCell>
        <mxCell id="2rr1QFybe_x9lLwn6GRt-158" style="edgeStyle=orthogonalEdgeStyle;rounded=0;orthogonalLoop=1;jettySize=auto;html=1;exitX=0.5;exitY=1;exitDx=0;exitDy=0;fontSize=15;entryX=0.5;entryY=0;entryDx=0;entryDy=0;" edge="1" parent="1" source="2rr1QFybe_x9lLwn6GRt-137" target="2rr1QFybe_x9lLwn6GRt-148">
          <mxGeometry relative="1" as="geometry">
            <Array as="points">
              <mxPoint x="735.99" y="6440" />
              <mxPoint x="301.99" y="6440" />
            </Array>
          </mxGeometry>
        </mxCell>
        <mxCell id="2rr1QFybe_x9lLwn6GRt-164" style="edgeStyle=orthogonalEdgeStyle;rounded=0;orthogonalLoop=1;jettySize=auto;html=1;exitX=0.5;exitY=1;exitDx=0;exitDy=0;fontSize=15;" edge="1" parent="1" source="2rr1QFybe_x9lLwn6GRt-137" target="2rr1QFybe_x9lLwn6GRt-163">
          <mxGeometry relative="1" as="geometry">
            <Array as="points">
              <mxPoint x="735.99" y="6440" />
              <mxPoint x="977.99" y="6440" />
            </Array>
          </mxGeometry>
        </mxCell>
        <mxCell id="2rr1QFybe_x9lLwn6GRt-165" style="edgeStyle=orthogonalEdgeStyle;rounded=0;orthogonalLoop=1;jettySize=auto;html=1;exitX=0.5;exitY=1;exitDx=0;exitDy=0;fontSize=15;" edge="1" parent="1" source="2rr1QFybe_x9lLwn6GRt-137" target="2rr1QFybe_x9lLwn6GRt-162">
          <mxGeometry relative="1" as="geometry">
            <Array as="points">
              <mxPoint x="735.99" y="6440" />
              <mxPoint x="861.99" y="6440" />
            </Array>
          </mxGeometry>
        </mxCell>
        <mxCell id="2rr1QFybe_x9lLwn6GRt-166" style="edgeStyle=orthogonalEdgeStyle;rounded=0;orthogonalLoop=1;jettySize=auto;html=1;exitX=0.5;exitY=1;exitDx=0;exitDy=0;fontSize=15;" edge="1" parent="1" source="2rr1QFybe_x9lLwn6GRt-137" target="2rr1QFybe_x9lLwn6GRt-161">
          <mxGeometry relative="1" as="geometry">
            <Array as="points">
              <mxPoint x="735.99" y="6420" />
              <mxPoint x="735.99" y="6420" />
            </Array>
          </mxGeometry>
        </mxCell>
        <mxCell id="2rr1QFybe_x9lLwn6GRt-167" style="edgeStyle=orthogonalEdgeStyle;rounded=0;orthogonalLoop=1;jettySize=auto;html=1;exitX=0.5;exitY=1;exitDx=0;exitDy=0;entryX=0.5;entryY=0;entryDx=0;entryDy=0;fontSize=15;" edge="1" parent="1" source="2rr1QFybe_x9lLwn6GRt-137" target="2rr1QFybe_x9lLwn6GRt-160">
          <mxGeometry relative="1" as="geometry">
            <Array as="points">
              <mxPoint x="735.99" y="6440" />
              <mxPoint x="635.99" y="6440" />
            </Array>
          </mxGeometry>
        </mxCell>
        <mxCell id="2rr1QFybe_x9lLwn6GRt-168" style="edgeStyle=orthogonalEdgeStyle;rounded=0;orthogonalLoop=1;jettySize=auto;html=1;exitX=0.5;exitY=1;exitDx=0;exitDy=0;fontSize=15;" edge="1" parent="1" source="2rr1QFybe_x9lLwn6GRt-137" target="2rr1QFybe_x9lLwn6GRt-150">
          <mxGeometry relative="1" as="geometry">
            <Array as="points">
              <mxPoint x="735.99" y="6440" />
              <mxPoint x="522.99" y="6440" />
            </Array>
          </mxGeometry>
        </mxCell>
        <mxCell id="2rr1QFybe_x9lLwn6GRt-137" value="&lt;p class=&quot;MsoNormal&quot; style=&quot;margin-bottom: 0.0001pt ; line-height: normal ; font-size: 24px&quot;&gt;&lt;span style=&quot;font-size: 24px ; line-height: 107% ; font-family: &amp;#34;calibri&amp;#34; , sans-serif&quot;&gt;Udaya Bdr.&lt;/span&gt;&lt;br style=&quot;font-size: 24px&quot;&gt;&lt;/p&gt;" style="whiteSpace=wrap;html=1;rounded=1;shadow=1;strokeWidth=1;fontSize=24;align=center;fillColor=#f5f5f5;strokeColor=#666666;verticalAlign=bottom;" vertex="1" parent="1">
          <mxGeometry x="675.99" y="6240" width="120" height="40" as="geometry" />
        </mxCell>
        <mxCell id="2rr1QFybe_x9lLwn6GRt-185" style="edgeStyle=orthogonalEdgeStyle;rounded=0;orthogonalLoop=1;jettySize=auto;html=1;exitX=0.5;exitY=1;exitDx=0;exitDy=0;fontSize=18;" edge="1" parent="1" source="2rr1QFybe_x9lLwn6GRt-140" target="2rr1QFybe_x9lLwn6GRt-183">
          <mxGeometry relative="1" as="geometry" />
        </mxCell>
        <mxCell id="2rr1QFybe_x9lLwn6GRt-186" style="edgeStyle=orthogonalEdgeStyle;rounded=0;orthogonalLoop=1;jettySize=auto;html=1;exitX=0.5;exitY=1;exitDx=0;exitDy=0;fontSize=18;" edge="1" parent="1" source="2rr1QFybe_x9lLwn6GRt-140" target="2rr1QFybe_x9lLwn6GRt-184">
          <mxGeometry relative="1" as="geometry" />
        </mxCell>
        <mxCell id="2rr1QFybe_x9lLwn6GRt-140" value="&lt;p class=&quot;MsoNormal&quot; style=&quot;margin-bottom: 0.0001pt ; line-height: normal ; font-size: 24px&quot;&gt;&lt;font face=&quot;calibri, sans-serif&quot;&gt;Jeet Bdr.&lt;/font&gt;&lt;/p&gt;" style="whiteSpace=wrap;html=1;rounded=1;shadow=1;strokeWidth=1;fontSize=24;align=center;fillColor=#f5f5f5;strokeColor=#666666;verticalAlign=bottom;" vertex="1" parent="1">
          <mxGeometry x="950" y="6240" width="120" height="40" as="geometry" />
        </mxCell>
        <mxCell id="2rr1QFybe_x9lLwn6GRt-141" value="&lt;span style=&quot;font-size: 20px&quot;&gt;(Nyake)&lt;/span&gt;" style="text;html=1;align=center;verticalAlign=middle;resizable=0;points=[];autosize=1;strokeColor=none;fillColor=none;" vertex="1" parent="1">
          <mxGeometry x="920" y="6290" width="90" height="20" as="geometry" />
        </mxCell>
        <mxCell id="2rr1QFybe_x9lLwn6GRt-142" style="edgeStyle=orthogonalEdgeStyle;rounded=0;orthogonalLoop=1;jettySize=auto;html=1;exitX=0.5;exitY=1;exitDx=0;exitDy=0;entryX=0.5;entryY=0;entryDx=0;entryDy=0;" edge="1" parent="1" source="2rr1QFybe_x9lLwn6GRt-143" target="2rr1QFybe_x9lLwn6GRt-144">
          <mxGeometry relative="1" as="geometry" />
        </mxCell>
        <mxCell id="2rr1QFybe_x9lLwn6GRt-143" value="&lt;p class=&quot;MsoNormal&quot; style=&quot;margin-bottom: 0.0001pt ; line-height: normal ; font-size: 24px&quot;&gt;&lt;span style=&quot;font-size: 24px ; line-height: 107% ; font-family: &amp;#34;calibri&amp;#34; , sans-serif&quot;&gt;Ganga Prd.&lt;/span&gt;&lt;br style=&quot;font-size: 24px&quot;&gt;&lt;/p&gt;" style="whiteSpace=wrap;html=1;rounded=1;shadow=1;strokeWidth=1;fontSize=24;align=center;fillColor=#f5f5f5;strokeColor=#666666;verticalAlign=bottom;" vertex="1" parent="1">
          <mxGeometry x="46.99" y="6360" width="150" height="40" as="geometry" />
        </mxCell>
        <mxCell id="2rr1QFybe_x9lLwn6GRt-144" value="&lt;p class=&quot;MsoNormal&quot; style=&quot;margin-bottom: 0.0001pt ; line-height: normal ; font-size: 24px&quot;&gt;&lt;span style=&quot;font-size: 24px ; line-height: 107% ; font-family: &amp;#34;calibri&amp;#34; , sans-serif&quot;&gt;Priyajan&lt;/span&gt;&lt;br style=&quot;font-size: 24px&quot;&gt;&lt;/p&gt;" style="whiteSpace=wrap;html=1;rounded=1;shadow=1;strokeWidth=1;fontSize=24;align=center;fillColor=#f5f5f5;strokeColor=#666666;verticalAlign=bottom;" vertex="1" parent="1">
          <mxGeometry x="46.99" y="6470" width="150" height="40" as="geometry" />
        </mxCell>
        <mxCell id="2rr1QFybe_x9lLwn6GRt-145" value="&lt;p class=&quot;MsoNormal&quot; style=&quot;margin-bottom: 0.0001pt ; line-height: normal ; font-size: 24px&quot;&gt;&lt;font face=&quot;calibri, sans-serif&quot;&gt;Chandra&lt;/font&gt;&lt;/p&gt;" style="whiteSpace=wrap;html=1;rounded=1;shadow=1;strokeWidth=1;fontSize=24;align=center;fillColor=#f5f5f5;strokeColor=#666666;verticalAlign=bottom;" vertex="1" parent="1">
          <mxGeometry x="224.49" y="6360" width="120" height="40" as="geometry" />
        </mxCell>
        <mxCell id="2rr1QFybe_x9lLwn6GRt-146" value="&lt;p class=&quot;MsoNormal&quot; style=&quot;margin-bottom: 0.0001pt ; line-height: normal ; font-size: 24px&quot;&gt;&lt;span style=&quot;font-size: 24px ; line-height: 107% ; font-family: &amp;#34;calibri&amp;#34; , sans-serif&quot;&gt;Jeet Bdr.&lt;/span&gt;&lt;br style=&quot;font-size: 24px&quot;&gt;&lt;/p&gt;" style="whiteSpace=wrap;html=1;rounded=1;shadow=1;strokeWidth=1;fontSize=24;align=center;fillColor=#f5f5f5;strokeColor=#666666;verticalAlign=bottom;" vertex="1" parent="1">
          <mxGeometry x="362.99" y="6360" width="120" height="40" as="geometry" />
        </mxCell>
        <mxCell id="2rr1QFybe_x9lLwn6GRt-147" value="&lt;p class=&quot;MsoNormal&quot; style=&quot;margin-bottom: 0.0001pt ; line-height: normal ; font-size: 24px&quot;&gt;&lt;font face=&quot;calibri, sans-serif&quot;&gt;Mansingh&lt;/font&gt;&lt;/p&gt;" style="whiteSpace=wrap;html=1;rounded=1;shadow=1;strokeWidth=1;fontSize=24;align=center;fillColor=#f5f5f5;strokeColor=#666666;verticalAlign=bottom;" vertex="1" parent="1">
          <mxGeometry x="501.99" y="6360" width="120" height="40" as="geometry" />
        </mxCell>
        <mxCell id="2rr1QFybe_x9lLwn6GRt-148" value="&lt;p class=&quot;MsoNormal&quot; style=&quot;margin-bottom: 0.0001pt ; line-height: normal&quot;&gt;&lt;font face=&quot;calibri, sans-serif&quot; style=&quot;font-size: 18px&quot;&gt;Nagendra&lt;/font&gt;&lt;/p&gt;" style="whiteSpace=wrap;html=1;rounded=1;shadow=1;strokeWidth=1;fontSize=24;align=center;fillColor=#f5f5f5;strokeColor=#666666;verticalAlign=bottom;" vertex="1" parent="1">
          <mxGeometry x="261.99" y="6470" width="80" height="40" as="geometry" />
        </mxCell>
        <mxCell id="2rr1QFybe_x9lLwn6GRt-149" value="&lt;p class=&quot;MsoNormal&quot; style=&quot;margin-bottom: 0.0001pt ; line-height: normal ; font-size: 24px&quot;&gt;&lt;span style=&quot;font-family: &amp;#34;calibri&amp;#34; , sans-serif ; font-size: 18px&quot;&gt;Rabin&lt;/span&gt;&lt;br&gt;&lt;/p&gt;" style="whiteSpace=wrap;html=1;rounded=1;shadow=1;strokeWidth=1;fontSize=24;align=center;fillColor=#f5f5f5;strokeColor=#666666;verticalAlign=bottom;" vertex="1" parent="1">
          <mxGeometry x="369.99" y="6470" width="80" height="40" as="geometry" />
        </mxCell>
        <mxCell id="2rr1QFybe_x9lLwn6GRt-150" value="&lt;p class=&quot;MsoNormal&quot; style=&quot;margin-bottom: 0.0001pt ; line-height: normal ; font-size: 24px&quot;&gt;&lt;br&gt;&lt;/p&gt;" style="whiteSpace=wrap;html=1;rounded=1;shadow=1;strokeWidth=1;fontSize=24;align=center;fillColor=#f5f5f5;strokeColor=#666666;verticalAlign=bottom;" vertex="1" parent="1">
          <mxGeometry x="482.99" y="6470" width="80" height="40" as="geometry" />
        </mxCell>
        <mxCell id="2rr1QFybe_x9lLwn6GRt-159" style="edgeStyle=orthogonalEdgeStyle;rounded=0;orthogonalLoop=1;jettySize=auto;html=1;exitX=0.5;exitY=1;exitDx=0;exitDy=0;fontSize=15;entryX=0.5;entryY=0;entryDx=0;entryDy=0;" edge="1" parent="1" source="2rr1QFybe_x9lLwn6GRt-137" target="2rr1QFybe_x9lLwn6GRt-149">
          <mxGeometry relative="1" as="geometry">
            <mxPoint x="745.9899999999996" y="6290" as="sourcePoint" />
            <mxPoint x="311.99" y="6480" as="targetPoint" />
            <Array as="points">
              <mxPoint x="735.99" y="6440" />
              <mxPoint x="409.99" y="6440" />
            </Array>
          </mxGeometry>
        </mxCell>
        <mxCell id="2rr1QFybe_x9lLwn6GRt-160" value="&lt;p class=&quot;MsoNormal&quot; style=&quot;margin-bottom: 0.0001pt ; line-height: normal ; font-size: 24px&quot;&gt;&lt;span style=&quot;font-family: &amp;#34;calibri&amp;#34; , sans-serif ; font-size: 18px&quot;&gt;Khaire&lt;/span&gt;&lt;br&gt;&lt;/p&gt;" style="whiteSpace=wrap;html=1;rounded=1;shadow=1;strokeWidth=1;fontSize=24;align=center;fillColor=#f5f5f5;strokeColor=#666666;verticalAlign=bottom;" vertex="1" parent="1">
          <mxGeometry x="595.99" y="6470" width="80" height="40" as="geometry" />
        </mxCell>
        <mxCell id="2rr1QFybe_x9lLwn6GRt-161" value="&lt;p class=&quot;MsoNormal&quot; style=&quot;margin-bottom: 0.0001pt ; line-height: normal&quot;&gt;&lt;font face=&quot;calibri, sans-serif&quot;&gt;&lt;span style=&quot;font-size: 18px&quot;&gt;Jarnel&lt;/span&gt;&lt;/font&gt;&lt;/p&gt;" style="whiteSpace=wrap;html=1;rounded=1;shadow=1;strokeWidth=1;fontSize=24;align=center;fillColor=#f5f5f5;strokeColor=#666666;verticalAlign=bottom;" vertex="1" parent="1">
          <mxGeometry x="709.99" y="6470" width="80" height="40" as="geometry" />
        </mxCell>
        <mxCell id="2rr1QFybe_x9lLwn6GRt-162" value="&lt;p class=&quot;MsoNormal&quot; style=&quot;margin-bottom: 0.0001pt ; line-height: normal ; font-size: 24px&quot;&gt;&lt;span style=&quot;font-family: &amp;#34;calibri&amp;#34; , sans-serif ; font-size: 18px&quot;&gt;Karnel&lt;/span&gt;&lt;br&gt;&lt;/p&gt;" style="whiteSpace=wrap;html=1;rounded=1;shadow=1;strokeWidth=1;fontSize=24;align=center;fillColor=#f5f5f5;strokeColor=#666666;verticalAlign=bottom;" vertex="1" parent="1">
          <mxGeometry x="821.99" y="6470" width="80" height="40" as="geometry" />
        </mxCell>
        <mxCell id="2rr1QFybe_x9lLwn6GRt-163" value="&lt;p class=&quot;MsoNormal&quot; style=&quot;margin-bottom: 0.0001pt ; line-height: normal ; font-size: 24px&quot;&gt;&lt;span style=&quot;font-family: &amp;#34;calibri&amp;#34; , sans-serif ; font-size: 18px&quot;&gt;Jamdar&lt;/span&gt;&lt;br&gt;&lt;/p&gt;" style="whiteSpace=wrap;html=1;rounded=1;shadow=1;strokeWidth=1;fontSize=24;align=center;fillColor=#f5f5f5;strokeColor=#666666;verticalAlign=bottom;" vertex="1" parent="1">
          <mxGeometry x="937.99" y="6470" width="80" height="40" as="geometry" />
        </mxCell>
        <mxCell id="2rr1QFybe_x9lLwn6GRt-169" value="&lt;span style=&quot;font-size: 20px&quot;&gt;(Jethi)&lt;/span&gt;" style="text;html=1;align=center;verticalAlign=middle;resizable=0;points=[];autosize=1;strokeColor=none;fillColor=none;" vertex="1" parent="1">
          <mxGeometry x="253.49" y="6520" width="70" height="20" as="geometry" />
        </mxCell>
        <mxCell id="2rr1QFybe_x9lLwn6GRt-170" value="&lt;span style=&quot;font-size: 20px&quot;&gt;(Maili)&lt;/span&gt;" style="text;html=1;align=center;verticalAlign=middle;resizable=0;points=[];autosize=1;strokeColor=none;fillColor=none;" vertex="1" parent="1">
          <mxGeometry x="595.99" y="6520" width="70" height="20" as="geometry" />
        </mxCell>
        <mxCell id="2rr1QFybe_x9lLwn6GRt-171" value="&lt;span style=&quot;font-size: 20px&quot;&gt;(Kanchi)&lt;/span&gt;" style="text;html=1;align=center;verticalAlign=middle;resizable=0;points=[];autosize=1;strokeColor=none;fillColor=none;" vertex="1" parent="1">
          <mxGeometry x="699.99" y="6520" width="90" height="20" as="geometry" />
        </mxCell>
        <mxCell id="2rr1QFybe_x9lLwn6GRt-178" style="edgeStyle=orthogonalEdgeStyle;rounded=0;orthogonalLoop=1;jettySize=auto;html=1;exitX=0.5;exitY=1;exitDx=0;exitDy=0;entryX=0.5;entryY=0;entryDx=0;entryDy=0;fontSize=18;" edge="1" parent="1" source="2rr1QFybe_x9lLwn6GRt-176" target="2rr1QFybe_x9lLwn6GRt-31">
          <mxGeometry relative="1" as="geometry" />
        </mxCell>
        <mxCell id="2rr1QFybe_x9lLwn6GRt-176" value="&lt;span style=&quot;font-family: &amp;#34;calibri&amp;#34; , sans-serif&quot;&gt;Pirthi Jung&lt;/span&gt;" style="whiteSpace=wrap;html=1;rounded=1;shadow=1;strokeWidth=1;fontSize=24;align=center;fillColor=#f5f5f5;strokeColor=#666666;verticalAlign=bottom;" vertex="1" parent="1">
          <mxGeometry x="332.99" y="6030" width="150" height="40" as="geometry" />
        </mxCell>
        <mxCell id="2rr1QFybe_x9lLwn6GRt-179" value="&lt;span style=&quot;font-size: 20px&quot;&gt;(Dheba Rai)&lt;/span&gt;" style="text;html=1;align=center;verticalAlign=middle;resizable=0;points=[];autosize=1;strokeColor=none;fillColor=none;" vertex="1" parent="1">
          <mxGeometry x="490" y="6130" width="120" height="20" as="geometry" />
        </mxCell>
        <mxCell id="2rr1QFybe_x9lLwn6GRt-180" value="&lt;span style=&quot;font-size: 20px&quot;&gt;(Kanchi)&lt;/span&gt;" style="text;html=1;align=center;verticalAlign=middle;resizable=0;points=[];autosize=1;strokeColor=none;fillColor=none;" vertex="1" parent="1">
          <mxGeometry x="920" y="6210" width="90" height="20" as="geometry" />
        </mxCell>
        <mxCell id="2rr1QFybe_x9lLwn6GRt-183" value="&lt;p class=&quot;MsoNormal&quot; style=&quot;margin-bottom: 0.0001pt ; line-height: normal ; font-size: 24px&quot;&gt;&lt;span style=&quot;font-family: &amp;#34;calibri&amp;#34; , sans-serif ; font-size: 18px&quot;&gt;(I)&lt;/span&gt;&lt;br&gt;&lt;/p&gt;" style="whiteSpace=wrap;html=1;rounded=1;shadow=1;strokeWidth=1;fontSize=24;align=center;fillColor=#f5f5f5;strokeColor=#666666;verticalAlign=bottom;" vertex="1" parent="1">
          <mxGeometry x="902" y="6360" width="100" height="40" as="geometry" />
        </mxCell>
        <mxCell id="2rr1QFybe_x9lLwn6GRt-184" value="&lt;p class=&quot;MsoNormal&quot; style=&quot;margin-bottom: 0.0001pt ; line-height: normal ; font-size: 24px&quot;&gt;&lt;span style=&quot;font-family: &amp;#34;calibri&amp;#34; , sans-serif ; font-size: 18px&quot;&gt;Mabin&lt;/span&gt;&lt;br&gt;&lt;/p&gt;" style="whiteSpace=wrap;html=1;rounded=1;shadow=1;strokeWidth=1;fontSize=24;align=center;fillColor=#f5f5f5;strokeColor=#666666;verticalAlign=bottom;" vertex="1" parent="1">
          <mxGeometry x="1020" y="6360" width="100" height="40" as="geometry" />
        </mxCell>
        <mxCell id="2rr1QFybe_x9lLwn6GRt-187" value="&lt;span style=&quot;font-size: 20px&quot;&gt;(Jethi)&lt;/span&gt;" style="text;html=1;align=center;verticalAlign=middle;resizable=0;points=[];autosize=1;strokeColor=none;fillColor=none;" vertex="1" parent="1">
          <mxGeometry x="229" y="6210" width="70" height="20" as="geometry" />
        </mxCell>
        <mxCell id="2rr1QFybe_x9lLwn6GRt-246" style="edgeStyle=orthogonalEdgeStyle;rounded=0;orthogonalLoop=1;jettySize=auto;html=1;exitX=0.5;exitY=1;exitDx=0;exitDy=0;fontSize=17;" edge="1" parent="1" source="2rr1QFybe_x9lLwn6GRt-189" target="2rr1QFybe_x9lLwn6GRt-190">
          <mxGeometry relative="1" as="geometry" />
        </mxCell>
        <mxCell id="2rr1QFybe_x9lLwn6GRt-247" style="edgeStyle=orthogonalEdgeStyle;rounded=0;orthogonalLoop=1;jettySize=auto;html=1;exitX=0.5;exitY=1;exitDx=0;exitDy=0;entryX=0.642;entryY=0.25;entryDx=0;entryDy=0;entryPerimeter=0;fontSize=17;" edge="1" parent="1" source="2rr1QFybe_x9lLwn6GRt-189" target="2rr1QFybe_x9lLwn6GRt-192">
          <mxGeometry relative="1" as="geometry" />
        </mxCell>
        <mxCell id="2rr1QFybe_x9lLwn6GRt-248" style="edgeStyle=orthogonalEdgeStyle;rounded=0;orthogonalLoop=1;jettySize=auto;html=1;exitX=0.5;exitY=1;exitDx=0;exitDy=0;fontSize=17;" edge="1" parent="1" source="2rr1QFybe_x9lLwn6GRt-189" target="2rr1QFybe_x9lLwn6GRt-194">
          <mxGeometry relative="1" as="geometry">
            <Array as="points">
              <mxPoint x="547" y="6750" />
              <mxPoint x="1053" y="6750" />
            </Array>
          </mxGeometry>
        </mxCell>
        <mxCell id="2rr1QFybe_x9lLwn6GRt-249" style="edgeStyle=orthogonalEdgeStyle;rounded=0;orthogonalLoop=1;jettySize=auto;html=1;exitX=0.5;exitY=1;exitDx=0;exitDy=0;entryX=0.5;entryY=0;entryDx=0;entryDy=0;fontSize=17;" edge="1" parent="1" source="2rr1QFybe_x9lLwn6GRt-189" target="2rr1QFybe_x9lLwn6GRt-193">
          <mxGeometry relative="1" as="geometry" />
        </mxCell>
        <mxCell id="2rr1QFybe_x9lLwn6GRt-250" style="edgeStyle=orthogonalEdgeStyle;rounded=0;orthogonalLoop=1;jettySize=auto;html=1;exitX=0.5;exitY=1;exitDx=0;exitDy=0;fontSize=17;" edge="1" parent="1" source="2rr1QFybe_x9lLwn6GRt-189" target="2rr1QFybe_x9lLwn6GRt-191">
          <mxGeometry relative="1" as="geometry" />
        </mxCell>
        <mxCell id="2rr1QFybe_x9lLwn6GRt-189" value="&lt;p class=&quot;MsoNormal&quot; style=&quot;margin-bottom: 0.0001pt ; line-height: normal ; font-size: 24px&quot;&gt;&lt;span style=&quot;font-size: 24px ; line-height: 107% ; font-family: &amp;#34;calibri&amp;#34; , sans-serif&quot;&gt;Shreedhoj&lt;/span&gt;&lt;br style=&quot;font-size: 24px&quot;&gt;&lt;/p&gt;" style="whiteSpace=wrap;html=1;rounded=1;shadow=1;strokeWidth=1;fontSize=24;align=center;fillColor=#f5f5f5;strokeColor=#666666;verticalAlign=bottom;" vertex="1" parent="1">
          <mxGeometry x="471.5" y="6680" width="150" height="40" as="geometry" />
        </mxCell>
        <mxCell id="2rr1QFybe_x9lLwn6GRt-232" style="edgeStyle=orthogonalEdgeStyle;rounded=0;orthogonalLoop=1;jettySize=auto;html=1;exitX=0.5;exitY=1;exitDx=0;exitDy=0;fontSize=18;" edge="1" parent="1" source="2rr1QFybe_x9lLwn6GRt-190" target="2rr1QFybe_x9lLwn6GRt-197">
          <mxGeometry relative="1" as="geometry" />
        </mxCell>
        <mxCell id="2rr1QFybe_x9lLwn6GRt-235" style="edgeStyle=orthogonalEdgeStyle;rounded=0;orthogonalLoop=1;jettySize=auto;html=1;exitX=0.5;exitY=1;exitDx=0;exitDy=0;fontSize=18;" edge="1" parent="1" source="2rr1QFybe_x9lLwn6GRt-190" target="2rr1QFybe_x9lLwn6GRt-199">
          <mxGeometry relative="1" as="geometry">
            <Array as="points">
              <mxPoint x="113" y="6900" />
              <mxPoint x="350" y="6900" />
            </Array>
          </mxGeometry>
        </mxCell>
        <mxCell id="2rr1QFybe_x9lLwn6GRt-237" style="edgeStyle=orthogonalEdgeStyle;rounded=0;orthogonalLoop=1;jettySize=auto;html=1;exitX=0.5;exitY=1;exitDx=0;exitDy=0;fontSize=18;entryX=0.5;entryY=0;entryDx=0;entryDy=0;" edge="1" parent="1" source="2rr1QFybe_x9lLwn6GRt-190" target="2rr1QFybe_x9lLwn6GRt-202">
          <mxGeometry relative="1" as="geometry">
            <Array as="points">
              <mxPoint x="113" y="6900" />
              <mxPoint x="835" y="6900" />
            </Array>
          </mxGeometry>
        </mxCell>
        <mxCell id="2rr1QFybe_x9lLwn6GRt-190" value="&lt;p class=&quot;MsoNormal&quot; style=&quot;margin-bottom: 0.0001pt ; line-height: normal ; font-size: 24px&quot;&gt;Kuldeep&lt;/p&gt;" style="whiteSpace=wrap;html=1;rounded=1;shadow=1;strokeWidth=1;fontSize=24;align=center;fillColor=#f5f5f5;strokeColor=#666666;verticalAlign=bottom;" vertex="1" parent="1">
          <mxGeometry x="53" y="6780" width="120" height="40" as="geometry" />
        </mxCell>
        <mxCell id="2rr1QFybe_x9lLwn6GRt-191" value="&lt;p class=&quot;MsoNormal&quot; style=&quot;margin-bottom: 0.0001pt ; line-height: normal ; font-size: 24px&quot;&gt;Udip Singh&lt;/p&gt;" style="whiteSpace=wrap;html=1;rounded=1;shadow=1;strokeWidth=1;fontSize=24;align=center;fillColor=#f5f5f5;strokeColor=#666666;verticalAlign=bottom;" vertex="1" parent="1">
          <mxGeometry x="280" y="6780" width="120" height="40" as="geometry" />
        </mxCell>
        <mxCell id="2rr1QFybe_x9lLwn6GRt-192" value="&lt;p class=&quot;MsoNormal&quot; style=&quot;margin-bottom: 0.0001pt ; line-height: normal ; font-size: 24px&quot;&gt;Jaya Bdr.&lt;/p&gt;" style="whiteSpace=wrap;html=1;rounded=1;shadow=1;strokeWidth=1;fontSize=24;align=center;fillColor=#f5f5f5;strokeColor=#666666;verticalAlign=bottom;" vertex="1" parent="1">
          <mxGeometry x="482.99" y="6780" width="120" height="40" as="geometry" />
        </mxCell>
        <mxCell id="2rr1QFybe_x9lLwn6GRt-193" value="&lt;p class=&quot;MsoNormal&quot; style=&quot;margin-bottom: 0.0001pt ; line-height: normal ; font-size: 24px&quot;&gt;Gyan Bdr.&lt;/p&gt;" style="whiteSpace=wrap;html=1;rounded=1;shadow=1;strokeWidth=1;fontSize=24;align=center;fillColor=#f5f5f5;strokeColor=#666666;verticalAlign=bottom;" vertex="1" parent="1">
          <mxGeometry x="760" y="6780" width="120" height="40" as="geometry" />
        </mxCell>
        <mxCell id="2rr1QFybe_x9lLwn6GRt-194" value="&lt;p class=&quot;MsoNormal&quot; style=&quot;margin-bottom: 0.0001pt ; line-height: normal ; font-size: 24px&quot;&gt;Dhan Bdr.&lt;/p&gt;" style="whiteSpace=wrap;html=1;rounded=1;shadow=1;strokeWidth=1;fontSize=24;align=center;fillColor=#f5f5f5;strokeColor=#666666;verticalAlign=bottom;" vertex="1" parent="1">
          <mxGeometry x="993" y="6770" width="120" height="40" as="geometry" />
        </mxCell>
        <mxCell id="2rr1QFybe_x9lLwn6GRt-195" value="&lt;span style=&quot;font-size: 20px&quot;&gt;(Chautara ghar + Tori gham)&lt;/span&gt;" style="text;html=1;align=center;verticalAlign=middle;resizable=0;points=[];autosize=1;strokeColor=none;fillColor=none;" vertex="1" parent="1">
          <mxGeometry x="648" y="6690" width="270" height="20" as="geometry" />
        </mxCell>
        <mxCell id="2rr1QFybe_x9lLwn6GRt-233" style="edgeStyle=orthogonalEdgeStyle;rounded=0;orthogonalLoop=1;jettySize=auto;html=1;exitX=0.5;exitY=1;exitDx=0;exitDy=0;fontSize=18;" edge="1" parent="1" source="2rr1QFybe_x9lLwn6GRt-197" target="2rr1QFybe_x9lLwn6GRt-204">
          <mxGeometry relative="1" as="geometry" />
        </mxCell>
        <mxCell id="2rr1QFybe_x9lLwn6GRt-197" value="&lt;p class=&quot;MsoNormal&quot; style=&quot;margin-bottom: 0.0001pt ; line-height: normal ; font-size: 24px&quot;&gt;Sanesi&lt;/p&gt;" style="whiteSpace=wrap;html=1;rounded=1;shadow=1;strokeWidth=1;fontSize=24;align=center;fillColor=#f5f5f5;strokeColor=#666666;verticalAlign=bottom;" vertex="1" parent="1">
          <mxGeometry x="53" y="6960" width="120" height="40" as="geometry" />
        </mxCell>
        <mxCell id="2rr1QFybe_x9lLwn6GRt-238" style="edgeStyle=orthogonalEdgeStyle;rounded=0;orthogonalLoop=1;jettySize=auto;html=1;exitX=0.5;exitY=1;exitDx=0;exitDy=0;entryX=0.5;entryY=0;entryDx=0;entryDy=0;fontSize=18;" edge="1" parent="1" source="2rr1QFybe_x9lLwn6GRt-199" target="2rr1QFybe_x9lLwn6GRt-212">
          <mxGeometry relative="1" as="geometry" />
        </mxCell>
        <mxCell id="2rr1QFybe_x9lLwn6GRt-199" value="&lt;p class=&quot;MsoNormal&quot; style=&quot;margin-bottom: 0.0001pt ; line-height: normal ; font-size: 24px&quot;&gt;Rana Bdr.&lt;/p&gt;" style="whiteSpace=wrap;html=1;rounded=1;shadow=1;strokeWidth=1;fontSize=24;align=center;fillColor=#f5f5f5;strokeColor=#666666;verticalAlign=bottom;" vertex="1" parent="1">
          <mxGeometry x="287" y="6960" width="120" height="40" as="geometry" />
        </mxCell>
        <mxCell id="2rr1QFybe_x9lLwn6GRt-200" style="edgeStyle=orthogonalEdgeStyle;rounded=0;orthogonalLoop=1;jettySize=auto;html=1;exitX=0.5;exitY=1;exitDx=0;exitDy=0;" edge="1" parent="1" source="2rr1QFybe_x9lLwn6GRt-202" target="2rr1QFybe_x9lLwn6GRt-222">
          <mxGeometry relative="1" as="geometry" />
        </mxCell>
        <mxCell id="2rr1QFybe_x9lLwn6GRt-201" style="edgeStyle=orthogonalEdgeStyle;rounded=0;orthogonalLoop=1;jettySize=auto;html=1;exitX=0.5;exitY=1;exitDx=0;exitDy=0;" edge="1" parent="1" source="2rr1QFybe_x9lLwn6GRt-202" target="2rr1QFybe_x9lLwn6GRt-223">
          <mxGeometry relative="1" as="geometry" />
        </mxCell>
        <mxCell id="2rr1QFybe_x9lLwn6GRt-202" value="&lt;p class=&quot;MsoNormal&quot; style=&quot;margin-bottom: 0.0001pt ; line-height: normal ; font-size: 24px&quot;&gt;Krishna Bdr.&lt;/p&gt;" style="whiteSpace=wrap;html=1;rounded=1;shadow=1;strokeWidth=1;fontSize=24;align=center;fillColor=#f5f5f5;strokeColor=#666666;verticalAlign=bottom;" vertex="1" parent="1">
          <mxGeometry x="760" y="6960" width="150" height="40" as="geometry" />
        </mxCell>
        <mxCell id="2rr1QFybe_x9lLwn6GRt-234" style="edgeStyle=orthogonalEdgeStyle;rounded=0;orthogonalLoop=1;jettySize=auto;html=1;exitX=0.5;exitY=1;exitDx=0;exitDy=0;entryX=0.5;entryY=0;entryDx=0;entryDy=0;fontSize=18;" edge="1" parent="1" source="2rr1QFybe_x9lLwn6GRt-204" target="2rr1QFybe_x9lLwn6GRt-205">
          <mxGeometry relative="1" as="geometry" />
        </mxCell>
        <mxCell id="2rr1QFybe_x9lLwn6GRt-204" value="&lt;p class=&quot;MsoNormal&quot; style=&quot;margin-bottom: 0.0001pt ; line-height: normal ; font-size: 24px&quot;&gt;Bir Bdr.&lt;/p&gt;" style="whiteSpace=wrap;html=1;rounded=1;shadow=1;strokeWidth=1;fontSize=24;align=center;fillColor=#f5f5f5;strokeColor=#666666;verticalAlign=bottom;" vertex="1" parent="1">
          <mxGeometry x="53" y="7040" width="120" height="40" as="geometry" />
        </mxCell>
        <mxCell id="2rr1QFybe_x9lLwn6GRt-205" value="&lt;p class=&quot;MsoNormal&quot; style=&quot;margin-bottom: 0.0001pt ; line-height: normal ; font-size: 24px&quot;&gt;Aita&lt;/p&gt;" style="whiteSpace=wrap;html=1;rounded=1;shadow=1;strokeWidth=1;fontSize=24;align=center;fillColor=#f5f5f5;strokeColor=#666666;verticalAlign=bottom;" vertex="1" parent="1">
          <mxGeometry x="53" y="7120" width="120" height="40" as="geometry" />
        </mxCell>
        <mxCell id="2rr1QFybe_x9lLwn6GRt-206" value="&lt;p class=&quot;MsoNormal&quot; style=&quot;margin-bottom: 0.0001pt; line-height: normal; font-size: 17px;&quot;&gt;Aita Singh&lt;/p&gt;" style="whiteSpace=wrap;html=1;rounded=1;shadow=1;strokeWidth=1;fontSize=17;align=center;fillColor=#f5f5f5;strokeColor=#666666;verticalAlign=bottom;" vertex="1" parent="1">
          <mxGeometry x="46.99" y="7250" width="80" height="40" as="geometry" />
        </mxCell>
        <mxCell id="2rr1QFybe_x9lLwn6GRt-239" style="edgeStyle=orthogonalEdgeStyle;rounded=0;orthogonalLoop=1;jettySize=auto;html=1;exitX=0.5;exitY=1;exitDx=0;exitDy=0;fontSize=17;" edge="1" parent="1" source="2rr1QFybe_x9lLwn6GRt-212" target="2rr1QFybe_x9lLwn6GRt-206">
          <mxGeometry relative="1" as="geometry">
            <Array as="points">
              <mxPoint x="347" y="7200" />
              <mxPoint x="87" y="7200" />
            </Array>
          </mxGeometry>
        </mxCell>
        <mxCell id="2rr1QFybe_x9lLwn6GRt-240" style="edgeStyle=orthogonalEdgeStyle;rounded=0;orthogonalLoop=1;jettySize=auto;html=1;exitX=0.5;exitY=1;exitDx=0;exitDy=0;entryX=0.5;entryY=0;entryDx=0;entryDy=0;fontSize=17;" edge="1" parent="1" source="2rr1QFybe_x9lLwn6GRt-212" target="2rr1QFybe_x9lLwn6GRt-214">
          <mxGeometry relative="1" as="geometry">
            <Array as="points">
              <mxPoint x="347" y="7200" />
              <mxPoint x="285" y="7200" />
            </Array>
          </mxGeometry>
        </mxCell>
        <mxCell id="2rr1QFybe_x9lLwn6GRt-241" style="edgeStyle=orthogonalEdgeStyle;rounded=0;orthogonalLoop=1;jettySize=auto;html=1;exitX=0.5;exitY=1;exitDx=0;exitDy=0;fontSize=17;entryX=0.5;entryY=0;entryDx=0;entryDy=0;" edge="1" parent="1" source="2rr1QFybe_x9lLwn6GRt-212" target="2rr1QFybe_x9lLwn6GRt-215">
          <mxGeometry relative="1" as="geometry">
            <Array as="points">
              <mxPoint x="347" y="7200" />
              <mxPoint x="382" y="7200" />
            </Array>
          </mxGeometry>
        </mxCell>
        <mxCell id="2rr1QFybe_x9lLwn6GRt-242" style="edgeStyle=orthogonalEdgeStyle;rounded=0;orthogonalLoop=1;jettySize=auto;html=1;exitX=0.5;exitY=1;exitDx=0;exitDy=0;fontSize=17;entryX=0.5;entryY=0;entryDx=0;entryDy=0;" edge="1" parent="1" source="2rr1QFybe_x9lLwn6GRt-212" target="2rr1QFybe_x9lLwn6GRt-216">
          <mxGeometry relative="1" as="geometry">
            <Array as="points">
              <mxPoint x="347" y="7200" />
              <mxPoint x="475" y="7200" />
            </Array>
          </mxGeometry>
        </mxCell>
        <mxCell id="2rr1QFybe_x9lLwn6GRt-245" style="edgeStyle=orthogonalEdgeStyle;rounded=0;orthogonalLoop=1;jettySize=auto;html=1;exitX=0.5;exitY=1;exitDx=0;exitDy=0;entryX=0.5;entryY=0;entryDx=0;entryDy=0;fontSize=17;" edge="1" parent="1" source="2rr1QFybe_x9lLwn6GRt-212" target="2rr1QFybe_x9lLwn6GRt-213">
          <mxGeometry relative="1" as="geometry">
            <Array as="points">
              <mxPoint x="347" y="7200" />
              <mxPoint x="188" y="7200" />
            </Array>
          </mxGeometry>
        </mxCell>
        <mxCell id="2rr1QFybe_x9lLwn6GRt-212" value="&lt;p class=&quot;MsoNormal&quot; style=&quot;margin-bottom: 0.0001pt ; line-height: normal ; font-size: 24px&quot;&gt;Tarahang&lt;/p&gt;" style="whiteSpace=wrap;html=1;rounded=1;shadow=1;strokeWidth=1;fontSize=24;align=center;fillColor=#f5f5f5;strokeColor=#666666;verticalAlign=bottom;" vertex="1" parent="1">
          <mxGeometry x="287" y="7040" width="120" height="40" as="geometry" />
        </mxCell>
        <mxCell id="2rr1QFybe_x9lLwn6GRt-213" value="&lt;p class=&quot;MsoNormal&quot; style=&quot;margin-bottom: 0.0001pt; line-height: normal; font-size: 17px;&quot;&gt;Shankar&lt;/p&gt;" style="whiteSpace=wrap;html=1;rounded=1;shadow=1;strokeWidth=1;fontSize=17;align=center;fillColor=#f5f5f5;strokeColor=#666666;verticalAlign=bottom;" vertex="1" parent="1">
          <mxGeometry x="147.49" y="7250" width="80" height="40" as="geometry" />
        </mxCell>
        <mxCell id="2rr1QFybe_x9lLwn6GRt-214" value="&lt;p class=&quot;MsoNormal&quot; style=&quot;margin-bottom: 0.0001pt; line-height: normal; font-size: 17px;&quot;&gt;Jindagi&lt;/p&gt;" style="whiteSpace=wrap;html=1;rounded=1;shadow=1;strokeWidth=1;fontSize=17;align=center;fillColor=#f5f5f5;strokeColor=#666666;verticalAlign=bottom;" vertex="1" parent="1">
          <mxGeometry x="245" y="7250" width="80" height="40" as="geometry" />
        </mxCell>
        <mxCell id="2rr1QFybe_x9lLwn6GRt-215" value="&lt;p class=&quot;MsoNormal&quot; style=&quot;margin-bottom: 0.0001pt; line-height: normal; font-size: 17px;&quot;&gt;Dipen&lt;/p&gt;" style="whiteSpace=wrap;html=1;rounded=1;shadow=1;strokeWidth=1;fontSize=17;align=center;fillColor=#f5f5f5;strokeColor=#666666;verticalAlign=bottom;" vertex="1" parent="1">
          <mxGeometry x="341.99" y="7250" width="80" height="40" as="geometry" />
        </mxCell>
        <mxCell id="2rr1QFybe_x9lLwn6GRt-216" value="&lt;p class=&quot;MsoNormal&quot; style=&quot;margin-bottom: 0.0001pt; line-height: normal; font-size: 17px;&quot;&gt;Dinesh&lt;/p&gt;" style="whiteSpace=wrap;html=1;rounded=1;shadow=1;strokeWidth=1;fontSize=17;align=center;fillColor=#f5f5f5;strokeColor=#666666;verticalAlign=bottom;" vertex="1" parent="1">
          <mxGeometry x="434.5" y="7250" width="80" height="40" as="geometry" />
        </mxCell>
        <mxCell id="2rr1QFybe_x9lLwn6GRt-217" value="&lt;span style=&quot;font-size: 20px&quot;&gt;(&lt;/span&gt;&lt;span style=&quot;font-size: 20px&quot;&gt;Kanchi-pati&lt;/span&gt;&lt;span style=&quot;font-size: 20px&quot;&gt;)&lt;/span&gt;" style="text;html=1;align=center;verticalAlign=middle;resizable=0;points=[];autosize=1;strokeColor=none;fillColor=none;" vertex="1" parent="1">
          <mxGeometry x="316.99" y="7310" width="130" height="20" as="geometry" />
        </mxCell>
        <mxCell id="2rr1QFybe_x9lLwn6GRt-218" value="&lt;span style=&quot;font-size: 20px&quot;&gt;(&lt;/span&gt;&lt;span style=&quot;font-size: 20px&quot;&gt;Jethi-pati&lt;/span&gt;&lt;span style=&quot;font-size: 20px&quot;&gt;)&lt;/span&gt;" style="text;html=1;align=center;verticalAlign=middle;resizable=0;points=[];autosize=1;strokeColor=none;fillColor=none;" vertex="1" parent="1">
          <mxGeometry x="86.99" y="7310" width="110" height="20" as="geometry" />
        </mxCell>
        <mxCell id="2rr1QFybe_x9lLwn6GRt-260" style="edgeStyle=orthogonalEdgeStyle;rounded=0;orthogonalLoop=1;jettySize=auto;html=1;exitX=0.5;exitY=1;exitDx=0;exitDy=0;fontSize=17;" edge="1" parent="1" source="2rr1QFybe_x9lLwn6GRt-222" target="2rr1QFybe_x9lLwn6GRt-225">
          <mxGeometry relative="1" as="geometry" />
        </mxCell>
        <mxCell id="2rr1QFybe_x9lLwn6GRt-261" style="edgeStyle=orthogonalEdgeStyle;rounded=0;orthogonalLoop=1;jettySize=auto;html=1;exitX=0.5;exitY=1;exitDx=0;exitDy=0;fontSize=17;" edge="1" parent="1" source="2rr1QFybe_x9lLwn6GRt-222" target="2rr1QFybe_x9lLwn6GRt-224">
          <mxGeometry relative="1" as="geometry">
            <Array as="points">
              <mxPoint x="586" y="7320" />
              <mxPoint x="488" y="7320" />
            </Array>
          </mxGeometry>
        </mxCell>
        <mxCell id="2rr1QFybe_x9lLwn6GRt-262" style="edgeStyle=orthogonalEdgeStyle;rounded=0;orthogonalLoop=1;jettySize=auto;html=1;exitX=0.5;exitY=1;exitDx=0;exitDy=0;fontSize=17;" edge="1" parent="1" source="2rr1QFybe_x9lLwn6GRt-222" target="2rr1QFybe_x9lLwn6GRt-226">
          <mxGeometry relative="1" as="geometry">
            <Array as="points">
              <mxPoint x="586" y="7320" />
              <mxPoint x="685" y="7320" />
            </Array>
          </mxGeometry>
        </mxCell>
        <mxCell id="2rr1QFybe_x9lLwn6GRt-222" value="&lt;p class=&quot;MsoNormal&quot; style=&quot;margin-bottom: 0.0001pt ; line-height: normal ; font-size: 24px&quot;&gt;Harka Prd.&lt;/p&gt;" style="whiteSpace=wrap;html=1;rounded=1;shadow=1;strokeWidth=1;fontSize=24;align=center;fillColor=#f5f5f5;strokeColor=#666666;verticalAlign=bottom;" vertex="1" parent="1">
          <mxGeometry x="511" y="7060" width="150" height="40" as="geometry" />
        </mxCell>
        <mxCell id="2rr1QFybe_x9lLwn6GRt-255" style="edgeStyle=orthogonalEdgeStyle;rounded=0;orthogonalLoop=1;jettySize=auto;html=1;exitX=0.5;exitY=1;exitDx=0;exitDy=0;fontSize=17;" edge="1" parent="1" source="2rr1QFybe_x9lLwn6GRt-223" target="2rr1QFybe_x9lLwn6GRt-231">
          <mxGeometry relative="1" as="geometry">
            <Array as="points">
              <mxPoint x="1038" y="7200" />
              <mxPoint x="670" y="7200" />
            </Array>
          </mxGeometry>
        </mxCell>
        <mxCell id="2rr1QFybe_x9lLwn6GRt-256" style="edgeStyle=orthogonalEdgeStyle;rounded=0;orthogonalLoop=1;jettySize=auto;html=1;exitX=0.5;exitY=1;exitDx=0;exitDy=0;fontSize=17;" edge="1" parent="1" source="2rr1QFybe_x9lLwn6GRt-223" target="2rr1QFybe_x9lLwn6GRt-230">
          <mxGeometry relative="1" as="geometry">
            <Array as="points">
              <mxPoint x="1038" y="7200" />
              <mxPoint x="1082" y="7200" />
            </Array>
          </mxGeometry>
        </mxCell>
        <mxCell id="2rr1QFybe_x9lLwn6GRt-257" style="edgeStyle=orthogonalEdgeStyle;rounded=0;orthogonalLoop=1;jettySize=auto;html=1;exitX=0.5;exitY=1;exitDx=0;exitDy=0;fontSize=17;" edge="1" parent="1" source="2rr1QFybe_x9lLwn6GRt-223" target="2rr1QFybe_x9lLwn6GRt-229">
          <mxGeometry relative="1" as="geometry">
            <Array as="points">
              <mxPoint x="1038" y="7200" />
              <mxPoint x="978" y="7200" />
            </Array>
          </mxGeometry>
        </mxCell>
        <mxCell id="2rr1QFybe_x9lLwn6GRt-258" style="edgeStyle=orthogonalEdgeStyle;rounded=0;orthogonalLoop=1;jettySize=auto;html=1;exitX=0.5;exitY=1;exitDx=0;exitDy=0;entryX=0.5;entryY=0;entryDx=0;entryDy=0;fontSize=17;" edge="1" parent="1" source="2rr1QFybe_x9lLwn6GRt-223" target="2rr1QFybe_x9lLwn6GRt-228">
          <mxGeometry relative="1" as="geometry">
            <Array as="points">
              <mxPoint x="1038" y="7200" />
              <mxPoint x="874" y="7200" />
            </Array>
          </mxGeometry>
        </mxCell>
        <mxCell id="2rr1QFybe_x9lLwn6GRt-259" style="edgeStyle=orthogonalEdgeStyle;rounded=0;orthogonalLoop=1;jettySize=auto;html=1;exitX=0.5;exitY=1;exitDx=0;exitDy=0;fontSize=17;" edge="1" parent="1" source="2rr1QFybe_x9lLwn6GRt-223" target="2rr1QFybe_x9lLwn6GRt-227">
          <mxGeometry relative="1" as="geometry">
            <Array as="points">
              <mxPoint x="1038" y="7200" />
              <mxPoint x="771" y="7200" />
            </Array>
          </mxGeometry>
        </mxCell>
        <mxCell id="2rr1QFybe_x9lLwn6GRt-223" value="&lt;p class=&quot;MsoNormal&quot; style=&quot;margin-bottom: 0.0001pt ; line-height: normal ; font-size: 24px&quot;&gt;Suka Prd.&lt;/p&gt;" style="whiteSpace=wrap;html=1;rounded=1;shadow=1;strokeWidth=1;fontSize=24;align=center;fillColor=#f5f5f5;strokeColor=#666666;verticalAlign=bottom;" vertex="1" parent="1">
          <mxGeometry x="963" y="7060" width="150" height="40" as="geometry" />
        </mxCell>
        <mxCell id="2rr1QFybe_x9lLwn6GRt-224" value="&lt;p class=&quot;MsoNormal&quot; style=&quot;margin-bottom: 0.0001pt; line-height: normal; font-size: 17px;&quot;&gt;Jeet Bdr.&lt;/p&gt;" style="whiteSpace=wrap;html=1;rounded=1;shadow=1;strokeWidth=1;fontSize=17;align=center;fillColor=#f5f5f5;strokeColor=#666666;verticalAlign=bottom;" vertex="1" parent="1">
          <mxGeometry x="447.5" y="7350" width="80" height="40" as="geometry" />
        </mxCell>
        <mxCell id="2rr1QFybe_x9lLwn6GRt-225" value="&lt;p class=&quot;MsoNormal&quot; style=&quot;margin-bottom: 0.0001pt; line-height: normal; font-size: 17px;&quot;&gt;Gopal&lt;/p&gt;" style="whiteSpace=wrap;html=1;rounded=1;shadow=1;strokeWidth=1;fontSize=17;align=center;fillColor=#f5f5f5;strokeColor=#666666;verticalAlign=bottom;" vertex="1" parent="1">
          <mxGeometry x="545.5" y="7350" width="80" height="40" as="geometry" />
        </mxCell>
        <mxCell id="2rr1QFybe_x9lLwn6GRt-226" value="&lt;p class=&quot;MsoNormal&quot; style=&quot;margin-bottom: 0.0001pt; line-height: normal; font-size: 17px;&quot;&gt;Sajan&lt;/p&gt;" style="whiteSpace=wrap;html=1;rounded=1;shadow=1;strokeWidth=1;fontSize=17;align=center;fillColor=#f5f5f5;strokeColor=#666666;verticalAlign=bottom;" vertex="1" parent="1">
          <mxGeometry x="644.5" y="7350" width="80" height="40" as="geometry" />
        </mxCell>
        <mxCell id="2rr1QFybe_x9lLwn6GRt-227" value="&lt;p class=&quot;MsoNormal&quot; style=&quot;margin-bottom: 0.0001pt; line-height: normal; font-size: 17px;&quot;&gt;Lalit&lt;/p&gt;" style="whiteSpace=wrap;html=1;rounded=1;shadow=1;strokeWidth=1;fontSize=17;align=center;fillColor=#f5f5f5;strokeColor=#666666;verticalAlign=bottom;" vertex="1" parent="1">
          <mxGeometry x="731" y="7250" width="80" height="40" as="geometry" />
        </mxCell>
        <mxCell id="2rr1QFybe_x9lLwn6GRt-228" value="&lt;p class=&quot;MsoNormal&quot; style=&quot;margin-bottom: 0.0001pt; line-height: normal; font-size: 17px;&quot;&gt;Pramod&lt;/p&gt;" style="whiteSpace=wrap;html=1;rounded=1;shadow=1;strokeWidth=1;fontSize=17;align=center;fillColor=#f5f5f5;strokeColor=#666666;verticalAlign=bottom;" vertex="1" parent="1">
          <mxGeometry x="834" y="7250" width="80" height="40" as="geometry" />
        </mxCell>
        <mxCell id="2rr1QFybe_x9lLwn6GRt-229" value="&lt;p class=&quot;MsoNormal&quot; style=&quot;margin-bottom: 0.0001pt; line-height: normal; font-size: 17px;&quot;&gt;Prashant&lt;/p&gt;" style="whiteSpace=wrap;html=1;rounded=1;shadow=1;strokeWidth=1;fontSize=17;align=center;fillColor=#f5f5f5;strokeColor=#666666;verticalAlign=bottom;" vertex="1" parent="1">
          <mxGeometry x="937.99" y="7250" width="80" height="40" as="geometry" />
        </mxCell>
        <mxCell id="2rr1QFybe_x9lLwn6GRt-230" value="&lt;p class=&quot;MsoNormal&quot; style=&quot;margin-bottom: 0.0001pt; line-height: normal; font-size: 17px;&quot;&gt;Prabesh&lt;/p&gt;" style="whiteSpace=wrap;html=1;rounded=1;shadow=1;strokeWidth=1;fontSize=17;align=center;fillColor=#f5f5f5;strokeColor=#666666;verticalAlign=bottom;" vertex="1" parent="1">
          <mxGeometry x="1042" y="7250" width="80" height="40" as="geometry" />
        </mxCell>
        <mxCell id="2rr1QFybe_x9lLwn6GRt-231" value="&lt;p class=&quot;MsoNormal&quot; style=&quot;margin-bottom: 0.0001pt; line-height: normal; font-size: 17px;&quot;&gt;Prabin&lt;/p&gt;" style="whiteSpace=wrap;html=1;rounded=1;shadow=1;strokeWidth=1;fontSize=17;align=center;fillColor=#f5f5f5;strokeColor=#666666;verticalAlign=bottom;" vertex="1" parent="1">
          <mxGeometry x="629.99" y="7250" width="80" height="40" as="geometry" />
        </mxCell>
        <mxCell id="2rr1QFybe_x9lLwn6GRt-236" value="&lt;span style=&quot;font-size: 20px&quot;&gt;(&lt;/span&gt;&lt;span style=&quot;font-size: 20px&quot;&gt;Jethi-pati&lt;/span&gt;&lt;span style=&quot;font-size: 20px&quot;&gt;)&lt;/span&gt;" style="text;html=1;align=center;verticalAlign=middle;resizable=0;points=[];autosize=1;strokeColor=none;fillColor=none;" vertex="1" parent="1">
          <mxGeometry x="119" y="6930" width="110" height="20" as="geometry" />
        </mxCell>
        <mxCell id="2rr1QFybe_x9lLwn6GRt-301" style="edgeStyle=orthogonalEdgeStyle;rounded=0;orthogonalLoop=1;jettySize=auto;html=1;exitX=0.5;exitY=1;exitDx=0;exitDy=0;fontSize=18;" edge="1" parent="1" source="2rr1QFybe_x9lLwn6GRt-263" target="2rr1QFybe_x9lLwn6GRt-282">
          <mxGeometry relative="1" as="geometry" />
        </mxCell>
        <mxCell id="2rr1QFybe_x9lLwn6GRt-302" style="edgeStyle=orthogonalEdgeStyle;rounded=0;orthogonalLoop=1;jettySize=auto;html=1;exitX=0.5;exitY=1;exitDx=0;exitDy=0;fontSize=18;" edge="1" parent="1" source="2rr1QFybe_x9lLwn6GRt-263" target="2rr1QFybe_x9lLwn6GRt-283">
          <mxGeometry relative="1" as="geometry" />
        </mxCell>
        <mxCell id="2rr1QFybe_x9lLwn6GRt-303" style="edgeStyle=orthogonalEdgeStyle;rounded=0;orthogonalLoop=1;jettySize=auto;html=1;exitX=0.5;exitY=1;exitDx=0;exitDy=0;fontSize=18;" edge="1" parent="1" source="2rr1QFybe_x9lLwn6GRt-263" target="2rr1QFybe_x9lLwn6GRt-284">
          <mxGeometry relative="1" as="geometry" />
        </mxCell>
        <mxCell id="2rr1QFybe_x9lLwn6GRt-304" style="edgeStyle=orthogonalEdgeStyle;rounded=0;orthogonalLoop=1;jettySize=auto;html=1;exitX=0.5;exitY=1;exitDx=0;exitDy=0;fontSize=18;" edge="1" parent="1" source="2rr1QFybe_x9lLwn6GRt-263" target="2rr1QFybe_x9lLwn6GRt-285">
          <mxGeometry relative="1" as="geometry" />
        </mxCell>
        <mxCell id="2rr1QFybe_x9lLwn6GRt-305" style="edgeStyle=orthogonalEdgeStyle;rounded=0;orthogonalLoop=1;jettySize=auto;html=1;exitX=0.5;exitY=1;exitDx=0;exitDy=0;entryX=0.5;entryY=0;entryDx=0;entryDy=0;fontSize=18;" edge="1" parent="1" source="2rr1QFybe_x9lLwn6GRt-263" target="2rr1QFybe_x9lLwn6GRt-286">
          <mxGeometry relative="1" as="geometry" />
        </mxCell>
        <mxCell id="2rr1QFybe_x9lLwn6GRt-306" style="edgeStyle=orthogonalEdgeStyle;rounded=0;orthogonalLoop=1;jettySize=auto;html=1;exitX=0.5;exitY=1;exitDx=0;exitDy=0;fontSize=18;" edge="1" parent="1" source="2rr1QFybe_x9lLwn6GRt-263" target="2rr1QFybe_x9lLwn6GRt-287">
          <mxGeometry relative="1" as="geometry" />
        </mxCell>
        <mxCell id="2rr1QFybe_x9lLwn6GRt-263" value="&lt;p class=&quot;MsoNormal&quot; style=&quot;margin-bottom: 0.0001pt; line-height: normal; font-size: 20px;&quot;&gt;Ram Bdr.&lt;/p&gt;" style="whiteSpace=wrap;html=1;rounded=1;shadow=1;strokeWidth=1;fontSize=20;align=center;fillColor=#f5f5f5;strokeColor=#666666;verticalAlign=bottom;" vertex="1" parent="1">
          <mxGeometry x="490" y="7590" width="120" height="40" as="geometry" />
        </mxCell>
        <mxCell id="2rr1QFybe_x9lLwn6GRt-278" style="edgeStyle=orthogonalEdgeStyle;rounded=0;orthogonalLoop=1;jettySize=auto;html=1;exitX=0.5;exitY=1;exitDx=0;exitDy=0;fontSize=18;" edge="1" parent="1" source="2rr1QFybe_x9lLwn6GRt-264" target="2rr1QFybe_x9lLwn6GRt-273">
          <mxGeometry relative="1" as="geometry" />
        </mxCell>
        <mxCell id="2rr1QFybe_x9lLwn6GRt-279" style="edgeStyle=orthogonalEdgeStyle;rounded=0;orthogonalLoop=1;jettySize=auto;html=1;exitX=0.5;exitY=1;exitDx=0;exitDy=0;entryX=0.5;entryY=0;entryDx=0;entryDy=0;fontSize=18;" edge="1" parent="1" source="2rr1QFybe_x9lLwn6GRt-264" target="2rr1QFybe_x9lLwn6GRt-276">
          <mxGeometry relative="1" as="geometry" />
        </mxCell>
        <mxCell id="2rr1QFybe_x9lLwn6GRt-280" style="edgeStyle=orthogonalEdgeStyle;rounded=0;orthogonalLoop=1;jettySize=auto;html=1;exitX=0.5;exitY=1;exitDx=0;exitDy=0;fontSize=18;" edge="1" parent="1" source="2rr1QFybe_x9lLwn6GRt-264" target="2rr1QFybe_x9lLwn6GRt-277">
          <mxGeometry relative="1" as="geometry" />
        </mxCell>
        <mxCell id="2rr1QFybe_x9lLwn6GRt-264" value="&lt;p class=&quot;MsoNormal&quot; style=&quot;margin-bottom: 0.0001pt ; line-height: normal ; font-size: 20px&quot;&gt;Ananda (A)&lt;/p&gt;" style="whiteSpace=wrap;html=1;rounded=1;shadow=1;strokeWidth=1;fontSize=20;align=center;fillColor=#f5f5f5;strokeColor=#666666;verticalAlign=bottom;" vertex="1" parent="1">
          <mxGeometry x="1000" y="7590" width="120" height="40" as="geometry" />
        </mxCell>
        <mxCell id="2rr1QFybe_x9lLwn6GRt-265" value="&lt;p class=&quot;MsoNormal&quot; style=&quot;margin-bottom: 0.0001pt; line-height: normal; font-size: 20px;&quot;&gt;Jas Bdr. = I&lt;/p&gt;" style="whiteSpace=wrap;html=1;rounded=1;shadow=1;strokeWidth=1;fontSize=20;align=center;fillColor=#f5f5f5;strokeColor=#666666;verticalAlign=bottom;" vertex="1" parent="1">
          <mxGeometry x="40" y="7590" width="120" height="40" as="geometry" />
        </mxCell>
        <mxCell id="2rr1QFybe_x9lLwn6GRt-272" style="edgeStyle=orthogonalEdgeStyle;rounded=0;orthogonalLoop=1;jettySize=auto;html=1;exitX=0.5;exitY=1;exitDx=0;exitDy=0;fontSize=16;" edge="1" parent="1" source="2rr1QFybe_x9lLwn6GRt-271" target="2rr1QFybe_x9lLwn6GRt-265">
          <mxGeometry relative="1" as="geometry" />
        </mxCell>
        <mxCell id="2rr1QFybe_x9lLwn6GRt-275" style="edgeStyle=orthogonalEdgeStyle;rounded=0;orthogonalLoop=1;jettySize=auto;html=1;exitX=0.5;exitY=1;exitDx=0;exitDy=0;fontSize=16;" edge="1" parent="1" source="2rr1QFybe_x9lLwn6GRt-271" target="2rr1QFybe_x9lLwn6GRt-264">
          <mxGeometry relative="1" as="geometry" />
        </mxCell>
        <mxCell id="2rr1QFybe_x9lLwn6GRt-281" style="edgeStyle=orthogonalEdgeStyle;rounded=0;orthogonalLoop=1;jettySize=auto;html=1;exitX=0.5;exitY=1;exitDx=0;exitDy=0;fontSize=18;" edge="1" parent="1" source="2rr1QFybe_x9lLwn6GRt-271" target="2rr1QFybe_x9lLwn6GRt-263">
          <mxGeometry relative="1" as="geometry" />
        </mxCell>
        <mxCell id="2rr1QFybe_x9lLwn6GRt-271" value="&lt;p class=&quot;MsoNormal&quot; style=&quot;margin-bottom: 0.0001pt ; line-height: normal ; font-size: 24px&quot;&gt;Udip Singh&lt;/p&gt;" style="whiteSpace=wrap;html=1;rounded=1;shadow=1;strokeWidth=1;fontSize=24;align=center;fillColor=#f5f5f5;strokeColor=#666666;verticalAlign=bottom;" vertex="1" parent="1">
          <mxGeometry x="475" y="7490" width="150" height="40" as="geometry" />
        </mxCell>
        <mxCell id="2rr1QFybe_x9lLwn6GRt-273" value="&lt;p class=&quot;MsoNormal&quot; style=&quot;margin-bottom: 0.0001pt; line-height: normal; font-size: 18px;&quot;&gt;Tara&amp;nbsp;&lt;/p&gt;&lt;p class=&quot;MsoNormal&quot; style=&quot;margin-bottom: 0.0001pt; line-height: normal; font-size: 18px;&quot;&gt;Kumar (A)&lt;/p&gt;" style="whiteSpace=wrap;html=1;rounded=1;shadow=1;strokeWidth=1;fontSize=18;align=center;fillColor=#f5f5f5;strokeColor=#666666;verticalAlign=bottom;horizontal=1;spacing=-1;spacingTop=-9;" vertex="1" parent="1">
          <mxGeometry x="795.99" y="7670" width="100" height="60" as="geometry" />
        </mxCell>
        <mxCell id="2rr1QFybe_x9lLwn6GRt-276" value="&lt;p class=&quot;MsoNormal&quot; style=&quot;margin-bottom: 0.0001pt; line-height: normal; font-size: 18px;&quot;&gt;Man&amp;nbsp;&lt;/p&gt;&lt;p class=&quot;MsoNormal&quot; style=&quot;margin-bottom: 0.0001pt; line-height: normal; font-size: 18px;&quot;&gt;Kumar = I&lt;/p&gt;" style="whiteSpace=wrap;html=1;rounded=1;shadow=1;strokeWidth=1;fontSize=18;align=center;fillColor=#f5f5f5;strokeColor=#666666;verticalAlign=bottom;horizontal=1;spacing=-1;spacingTop=-9;" vertex="1" parent="1">
          <mxGeometry x="1032" y="7670" width="100" height="60" as="geometry" />
        </mxCell>
        <mxCell id="2rr1QFybe_x9lLwn6GRt-277" value="&lt;p class=&quot;MsoNormal&quot; style=&quot;margin-bottom: 0.0001pt; line-height: normal; font-size: 18px;&quot;&gt;Nanda&amp;nbsp;&lt;/p&gt;&lt;p class=&quot;MsoNormal&quot; style=&quot;margin-bottom: 0.0001pt; line-height: normal; font-size: 18px;&quot;&gt;Kumar (A)&lt;/p&gt;" style="whiteSpace=wrap;html=1;rounded=1;shadow=1;strokeWidth=1;fontSize=18;align=center;fillColor=#f5f5f5;strokeColor=#666666;verticalAlign=bottom;horizontal=1;spacing=-1;spacingTop=-9;" vertex="1" parent="1">
          <mxGeometry x="914" y="7670" width="100" height="60" as="geometry" />
        </mxCell>
        <mxCell id="2rr1QFybe_x9lLwn6GRt-308" style="edgeStyle=orthogonalEdgeStyle;rounded=0;orthogonalLoop=1;jettySize=auto;html=1;exitX=0.5;exitY=1;exitDx=0;exitDy=0;fontSize=18;" edge="1" parent="1" source="2rr1QFybe_x9lLwn6GRt-282" target="2rr1QFybe_x9lLwn6GRt-288">
          <mxGeometry relative="1" as="geometry">
            <Array as="points">
              <mxPoint x="103" y="7780" />
              <mxPoint x="79" y="7780" />
            </Array>
          </mxGeometry>
        </mxCell>
        <mxCell id="2rr1QFybe_x9lLwn6GRt-309" style="edgeStyle=orthogonalEdgeStyle;rounded=0;orthogonalLoop=1;jettySize=auto;html=1;exitX=0.5;exitY=1;exitDx=0;exitDy=0;fontSize=18;" edge="1" parent="1" source="2rr1QFybe_x9lLwn6GRt-282" target="2rr1QFybe_x9lLwn6GRt-289">
          <mxGeometry relative="1" as="geometry">
            <Array as="points">
              <mxPoint x="103" y="7780" />
              <mxPoint x="203" y="7780" />
            </Array>
          </mxGeometry>
        </mxCell>
        <mxCell id="2rr1QFybe_x9lLwn6GRt-282" value="&lt;p class=&quot;MsoNormal&quot; style=&quot;margin-bottom: 0.0001pt ; line-height: normal&quot;&gt;&lt;font style=&quot;font-size: 16px&quot;&gt;Harka Bdr.&lt;/font&gt;&lt;/p&gt;" style="whiteSpace=wrap;html=1;rounded=1;shadow=1;strokeWidth=1;fontSize=24;align=center;fillColor=#f5f5f5;strokeColor=#666666;verticalAlign=bottom;" vertex="1" parent="1">
          <mxGeometry x="53" y="7690" width="100" height="40" as="geometry" />
        </mxCell>
        <mxCell id="2rr1QFybe_x9lLwn6GRt-310" style="edgeStyle=orthogonalEdgeStyle;rounded=0;orthogonalLoop=1;jettySize=auto;html=1;exitX=0.5;exitY=1;exitDx=0;exitDy=0;fontSize=18;" edge="1" parent="1" source="2rr1QFybe_x9lLwn6GRt-283" target="2rr1QFybe_x9lLwn6GRt-290">
          <mxGeometry relative="1" as="geometry">
            <Array as="points">
              <mxPoint x="218" y="7780" />
              <mxPoint x="280" y="7780" />
              <mxPoint x="280" y="7920" />
              <mxPoint x="115" y="7920" />
            </Array>
          </mxGeometry>
        </mxCell>
        <mxCell id="2rr1QFybe_x9lLwn6GRt-312" style="edgeStyle=orthogonalEdgeStyle;rounded=0;orthogonalLoop=1;jettySize=auto;html=1;exitX=0.5;exitY=1;exitDx=0;exitDy=0;fontSize=18;entryX=0.615;entryY=0;entryDx=0;entryDy=0;entryPerimeter=0;" edge="1" parent="1" source="2rr1QFybe_x9lLwn6GRt-283" target="2rr1QFybe_x9lLwn6GRt-291">
          <mxGeometry relative="1" as="geometry">
            <Array as="points">
              <mxPoint x="218" y="7780" />
              <mxPoint x="280" y="7780" />
              <mxPoint x="280" y="7920" />
              <mxPoint x="270" y="7920" />
            </Array>
          </mxGeometry>
        </mxCell>
        <mxCell id="2rr1QFybe_x9lLwn6GRt-313" style="edgeStyle=orthogonalEdgeStyle;rounded=0;orthogonalLoop=1;jettySize=auto;html=1;exitX=0.5;exitY=1;exitDx=0;exitDy=0;fontSize=18;" edge="1" parent="1" source="2rr1QFybe_x9lLwn6GRt-283" target="2rr1QFybe_x9lLwn6GRt-292">
          <mxGeometry relative="1" as="geometry">
            <Array as="points">
              <mxPoint x="218" y="7780" />
              <mxPoint x="280" y="7780" />
              <mxPoint x="280" y="7920" />
              <mxPoint x="406" y="7920" />
            </Array>
          </mxGeometry>
        </mxCell>
        <mxCell id="2rr1QFybe_x9lLwn6GRt-314" style="edgeStyle=orthogonalEdgeStyle;rounded=0;orthogonalLoop=1;jettySize=auto;html=1;exitX=0.5;exitY=1;exitDx=0;exitDy=0;fontSize=18;" edge="1" parent="1" source="2rr1QFybe_x9lLwn6GRt-283" target="2rr1QFybe_x9lLwn6GRt-293">
          <mxGeometry relative="1" as="geometry">
            <Array as="points">
              <mxPoint x="218" y="7780" />
              <mxPoint x="280" y="7780" />
              <mxPoint x="280" y="7920" />
              <mxPoint x="553" y="7920" />
            </Array>
          </mxGeometry>
        </mxCell>
        <mxCell id="2rr1QFybe_x9lLwn6GRt-315" style="edgeStyle=orthogonalEdgeStyle;rounded=0;orthogonalLoop=1;jettySize=auto;html=1;exitX=0.5;exitY=1;exitDx=0;exitDy=0;fontSize=18;" edge="1" parent="1" source="2rr1QFybe_x9lLwn6GRt-283" target="2rr1QFybe_x9lLwn6GRt-294">
          <mxGeometry relative="1" as="geometry">
            <Array as="points">
              <mxPoint x="218" y="7780" />
              <mxPoint x="280" y="7780" />
              <mxPoint x="280" y="7920" />
              <mxPoint x="701" y="7920" />
            </Array>
          </mxGeometry>
        </mxCell>
        <mxCell id="2rr1QFybe_x9lLwn6GRt-283" value="&lt;p class=&quot;MsoNormal&quot; style=&quot;margin-bottom: 0.0001pt ; line-height: normal&quot;&gt;&lt;font style=&quot;font-size: 16px&quot;&gt;Purna Bdr.&lt;/font&gt;&lt;/p&gt;" style="whiteSpace=wrap;html=1;rounded=1;shadow=1;strokeWidth=1;fontSize=24;align=center;fillColor=#f5f5f5;strokeColor=#666666;verticalAlign=bottom;" vertex="1" parent="1">
          <mxGeometry x="168" y="7690" width="100" height="40" as="geometry" />
        </mxCell>
        <mxCell id="2rr1QFybe_x9lLwn6GRt-316" style="edgeStyle=orthogonalEdgeStyle;rounded=0;orthogonalLoop=1;jettySize=auto;html=1;exitX=0.5;exitY=1;exitDx=0;exitDy=0;fontSize=18;" edge="1" parent="1" source="2rr1QFybe_x9lLwn6GRt-284" target="2rr1QFybe_x9lLwn6GRt-295">
          <mxGeometry relative="1" as="geometry" />
        </mxCell>
        <mxCell id="2rr1QFybe_x9lLwn6GRt-284" value="&lt;p class=&quot;MsoNormal&quot; style=&quot;margin-bottom: 0.0001pt ; line-height: normal&quot;&gt;&lt;font style=&quot;font-size: 16px&quot;&gt;Dharma Bdr.&lt;/font&gt;&lt;/p&gt;" style="whiteSpace=wrap;html=1;rounded=1;shadow=1;strokeWidth=1;fontSize=24;align=center;fillColor=#f5f5f5;strokeColor=#666666;verticalAlign=bottom;" vertex="1" parent="1">
          <mxGeometry x="288.5" y="7690" width="100" height="40" as="geometry" />
        </mxCell>
        <mxCell id="2rr1QFybe_x9lLwn6GRt-317" style="edgeStyle=orthogonalEdgeStyle;rounded=0;orthogonalLoop=1;jettySize=auto;html=1;exitX=0.5;exitY=1;exitDx=0;exitDy=0;fontSize=18;" edge="1" parent="1" source="2rr1QFybe_x9lLwn6GRt-285" target="2rr1QFybe_x9lLwn6GRt-297">
          <mxGeometry relative="1" as="geometry">
            <Array as="points">
              <mxPoint x="464" y="7780" />
              <mxPoint x="450" y="7780" />
            </Array>
          </mxGeometry>
        </mxCell>
        <mxCell id="2rr1QFybe_x9lLwn6GRt-318" style="edgeStyle=orthogonalEdgeStyle;rounded=0;orthogonalLoop=1;jettySize=auto;html=1;exitX=0.5;exitY=1;exitDx=0;exitDy=0;fontSize=18;" edge="1" parent="1" source="2rr1QFybe_x9lLwn6GRt-285" target="2rr1QFybe_x9lLwn6GRt-296">
          <mxGeometry relative="1" as="geometry">
            <mxPoint x="550" y="7790" as="targetPoint" />
            <Array as="points">
              <mxPoint x="464" y="7780" />
              <mxPoint x="564" y="7780" />
            </Array>
          </mxGeometry>
        </mxCell>
        <mxCell id="2rr1QFybe_x9lLwn6GRt-285" value="&lt;p class=&quot;MsoNormal&quot; style=&quot;margin-bottom: 0.0001pt ; line-height: normal&quot;&gt;&lt;font style=&quot;font-size: 16px&quot;&gt;Bhagat Prd.&lt;/font&gt;&lt;/p&gt;" style="whiteSpace=wrap;html=1;rounded=1;shadow=1;strokeWidth=1;fontSize=24;align=center;fillColor=#f5f5f5;strokeColor=#666666;verticalAlign=bottom;" vertex="1" parent="1">
          <mxGeometry x="414" y="7690" width="100" height="40" as="geometry" />
        </mxCell>
        <mxCell id="2rr1QFybe_x9lLwn6GRt-319" style="edgeStyle=orthogonalEdgeStyle;rounded=0;orthogonalLoop=1;jettySize=auto;html=1;exitX=0.5;exitY=1;exitDx=0;exitDy=0;entryX=0.57;entryY=-0.013;entryDx=0;entryDy=0;entryPerimeter=0;fontSize=18;" edge="1" parent="1" source="2rr1QFybe_x9lLwn6GRt-286" target="2rr1QFybe_x9lLwn6GRt-299">
          <mxGeometry relative="1" as="geometry">
            <Array as="points">
              <mxPoint x="579" y="7780" />
              <mxPoint x="716" y="7780" />
            </Array>
          </mxGeometry>
        </mxCell>
        <mxCell id="2rr1QFybe_x9lLwn6GRt-320" style="edgeStyle=orthogonalEdgeStyle;rounded=0;orthogonalLoop=1;jettySize=auto;html=1;exitX=0.5;exitY=1;exitDx=0;exitDy=0;fontSize=18;" edge="1" parent="1" source="2rr1QFybe_x9lLwn6GRt-286" target="2rr1QFybe_x9lLwn6GRt-298">
          <mxGeometry relative="1" as="geometry">
            <Array as="points">
              <mxPoint x="579" y="7780" />
              <mxPoint x="840" y="7780" />
            </Array>
          </mxGeometry>
        </mxCell>
        <mxCell id="2rr1QFybe_x9lLwn6GRt-286" value="&lt;p class=&quot;MsoNormal&quot; style=&quot;margin-bottom: 0.0001pt ; line-height: normal&quot;&gt;&lt;font style=&quot;font-size: 16px&quot;&gt;Chandra Bdr.&lt;/font&gt;&lt;/p&gt;" style="whiteSpace=wrap;html=1;rounded=1;shadow=1;strokeWidth=1;fontSize=24;align=center;fillColor=#f5f5f5;strokeColor=#666666;verticalAlign=bottom;" vertex="1" parent="1">
          <mxGeometry x="529" y="7690" width="100" height="40" as="geometry" />
        </mxCell>
        <mxCell id="2rr1QFybe_x9lLwn6GRt-321" style="edgeStyle=orthogonalEdgeStyle;rounded=0;orthogonalLoop=1;jettySize=auto;html=1;exitX=0.5;exitY=1;exitDx=0;exitDy=0;fontSize=18;" edge="1" parent="1" source="2rr1QFybe_x9lLwn6GRt-287" target="2rr1QFybe_x9lLwn6GRt-300">
          <mxGeometry relative="1" as="geometry">
            <Array as="points">
              <mxPoint x="700" y="7750" />
              <mxPoint x="880" y="7750" />
              <mxPoint x="880" y="7780" />
              <mxPoint x="970" y="7780" />
            </Array>
          </mxGeometry>
        </mxCell>
        <mxCell id="2rr1QFybe_x9lLwn6GRt-287" value="&lt;p class=&quot;MsoNormal&quot; style=&quot;margin-bottom: 0.0001pt ; line-height: normal&quot;&gt;&lt;font style=&quot;font-size: 16px&quot;&gt;Dil Bdr.&lt;/font&gt;&lt;/p&gt;" style="whiteSpace=wrap;html=1;rounded=1;shadow=1;strokeWidth=1;fontSize=24;align=center;fillColor=#f5f5f5;strokeColor=#666666;verticalAlign=bottom;" vertex="1" parent="1">
          <mxGeometry x="649.5" y="7690" width="100" height="40" as="geometry" />
        </mxCell>
        <mxCell id="2rr1QFybe_x9lLwn6GRt-288" value="&lt;p class=&quot;MsoNormal&quot; style=&quot;margin-bottom: 0.0001pt; line-height: normal; font-size: 18px;&quot;&gt;Manish&lt;/p&gt;" style="whiteSpace=wrap;html=1;rounded=1;shadow=1;strokeWidth=1;fontSize=18;align=center;fillColor=#f5f5f5;strokeColor=#666666;verticalAlign=bottom;" vertex="1" parent="1">
          <mxGeometry x="28.999999999999993" y="7820" width="100" height="40" as="geometry" />
        </mxCell>
        <mxCell id="2rr1QFybe_x9lLwn6GRt-289" value="&lt;p class=&quot;MsoNormal&quot; style=&quot;margin-bottom: 0.0001pt; line-height: normal; font-size: 18px;&quot;&gt;Chiran Kaji&lt;/p&gt;" style="whiteSpace=wrap;html=1;rounded=1;shadow=1;strokeWidth=1;fontSize=18;align=center;fillColor=#f5f5f5;strokeColor=#666666;verticalAlign=bottom;" vertex="1" parent="1">
          <mxGeometry x="153.49" y="7820" width="100" height="40" as="geometry" />
        </mxCell>
        <mxCell id="2rr1QFybe_x9lLwn6GRt-290" value="&lt;p class=&quot;MsoNormal&quot; style=&quot;margin-bottom: 0.0001pt; line-height: normal; font-size: 18px;&quot;&gt;Puspa Raj&lt;/p&gt;" style="whiteSpace=wrap;html=1;rounded=1;shadow=1;strokeWidth=1;fontSize=18;align=center;fillColor=#f5f5f5;strokeColor=#666666;verticalAlign=bottom;" vertex="1" parent="1">
          <mxGeometry x="64.99" y="7960" width="100" height="40" as="geometry" />
        </mxCell>
        <mxCell id="2rr1QFybe_x9lLwn6GRt-291" value="&lt;p class=&quot;MsoNormal&quot; style=&quot;margin-bottom: 0.0001pt; line-height: normal; font-size: 18px;&quot;&gt;Binod&lt;/p&gt;" style="whiteSpace=wrap;html=1;rounded=1;shadow=1;strokeWidth=1;fontSize=18;align=center;fillColor=#f5f5f5;strokeColor=#666666;verticalAlign=bottom;" vertex="1" parent="1">
          <mxGeometry x="208.49" y="7960" width="100" height="40" as="geometry" />
        </mxCell>
        <mxCell id="2rr1QFybe_x9lLwn6GRt-292" value="&lt;p class=&quot;MsoNormal&quot; style=&quot;margin-bottom: 0.0001pt; line-height: normal; font-size: 18px;&quot;&gt;Ashok&lt;/p&gt;" style="whiteSpace=wrap;html=1;rounded=1;shadow=1;strokeWidth=1;fontSize=18;align=center;fillColor=#f5f5f5;strokeColor=#666666;verticalAlign=bottom;" vertex="1" parent="1">
          <mxGeometry x="355.99" y="7960" width="100" height="40" as="geometry" />
        </mxCell>
        <mxCell id="2rr1QFybe_x9lLwn6GRt-293" value="&lt;p class=&quot;MsoNormal&quot; style=&quot;margin-bottom: 0.0001pt; line-height: normal; font-size: 18px;&quot;&gt;Saroj&lt;/p&gt;" style="whiteSpace=wrap;html=1;rounded=1;shadow=1;strokeWidth=1;fontSize=18;align=center;fillColor=#f5f5f5;strokeColor=#666666;verticalAlign=bottom;" vertex="1" parent="1">
          <mxGeometry x="502.99" y="7960" width="100" height="40" as="geometry" />
        </mxCell>
        <mxCell id="2rr1QFybe_x9lLwn6GRt-294" value="&lt;p class=&quot;MsoNormal&quot; style=&quot;margin-bottom: 0.0001pt; line-height: normal; font-size: 18px;&quot;&gt;Niraj&lt;/p&gt;" style="whiteSpace=wrap;html=1;rounded=1;shadow=1;strokeWidth=1;fontSize=18;align=center;fillColor=#f5f5f5;strokeColor=#666666;verticalAlign=bottom;" vertex="1" parent="1">
          <mxGeometry x="650.99" y="7960" width="100" height="40" as="geometry" />
        </mxCell>
        <mxCell id="2rr1QFybe_x9lLwn6GRt-295" value="&lt;p class=&quot;MsoNormal&quot; style=&quot;margin-bottom: 0.0001pt; line-height: normal; font-size: 18px;&quot;&gt;&lt;font style=&quot;font-size: 18px;&quot;&gt;Santosh&lt;/font&gt;&lt;/p&gt;" style="whiteSpace=wrap;html=1;rounded=1;shadow=1;strokeWidth=1;fontSize=18;align=center;fillColor=#f5f5f5;strokeColor=#666666;verticalAlign=bottom;" vertex="1" parent="1">
          <mxGeometry x="288.5" y="7820" width="100" height="40" as="geometry" />
        </mxCell>
        <mxCell id="2rr1QFybe_x9lLwn6GRt-296" value="&lt;p class=&quot;MsoNormal&quot; style=&quot;margin-bottom: 0.0001pt; line-height: normal; font-size: 18px;&quot;&gt;&lt;font style=&quot;font-size: 18px;&quot;&gt;Sipang&lt;/font&gt;&lt;/p&gt;" style="whiteSpace=wrap;html=1;rounded=1;shadow=1;strokeWidth=1;fontSize=18;align=center;fillColor=#f5f5f5;strokeColor=#666666;verticalAlign=bottom;" vertex="1" parent="1">
          <mxGeometry x="514.5" y="7820" width="100" height="40" as="geometry" />
        </mxCell>
        <mxCell id="2rr1QFybe_x9lLwn6GRt-297" value="&lt;p class=&quot;MsoNormal&quot; style=&quot;margin-bottom: 0.0001pt; line-height: normal; font-size: 18px;&quot;&gt;&lt;font style=&quot;font-size: 18px;&quot;&gt;Pasang&lt;/font&gt;&lt;/p&gt;" style="whiteSpace=wrap;html=1;rounded=1;shadow=1;strokeWidth=1;fontSize=18;align=center;fillColor=#f5f5f5;strokeColor=#666666;verticalAlign=bottom;" vertex="1" parent="1">
          <mxGeometry x="400" y="7820" width="100" height="40" as="geometry" />
        </mxCell>
        <mxCell id="2rr1QFybe_x9lLwn6GRt-298" value="&lt;p class=&quot;MsoNormal&quot; style=&quot;margin-bottom: 0.0001pt; line-height: normal; font-size: 18px;&quot;&gt;&lt;font style=&quot;font-size: 18px;&quot;&gt;Sanjeev&lt;/font&gt;&lt;/p&gt;" style="whiteSpace=wrap;html=1;rounded=1;shadow=1;strokeWidth=1;fontSize=18;align=center;fillColor=#f5f5f5;strokeColor=#666666;verticalAlign=bottom;" vertex="1" parent="1">
          <mxGeometry x="789.99" y="7820" width="100" height="40" as="geometry" />
        </mxCell>
        <mxCell id="2rr1QFybe_x9lLwn6GRt-299" value="&lt;p class=&quot;MsoNormal&quot; style=&quot;margin-bottom: 0.0001pt; line-height: normal; font-size: 18px;&quot;&gt;&lt;font style=&quot;font-size: 18px;&quot;&gt;Rajeev&lt;/font&gt;&lt;/p&gt;" style="whiteSpace=wrap;html=1;rounded=1;shadow=1;strokeWidth=1;fontSize=18;align=center;fillColor=#f5f5f5;strokeColor=#666666;verticalAlign=bottom;" vertex="1" parent="1">
          <mxGeometry x="659" y="7820" width="100" height="40" as="geometry" />
        </mxCell>
        <mxCell id="2rr1QFybe_x9lLwn6GRt-300" value="&lt;p class=&quot;MsoNormal&quot; style=&quot;margin-bottom: 0.0001pt; line-height: normal; font-size: 18px;&quot;&gt;&lt;font style=&quot;font-size: 18px;&quot;&gt;Udip&lt;/font&gt;&lt;/p&gt;" style="whiteSpace=wrap;html=1;rounded=1;shadow=1;strokeWidth=1;fontSize=18;align=center;fillColor=#f5f5f5;strokeColor=#666666;verticalAlign=bottom;" vertex="1" parent="1">
          <mxGeometry x="920" y="7820" width="100" height="40" as="geometry" />
        </mxCell>
        <mxCell id="2rr1QFybe_x9lLwn6GRt-322" value="" style="whiteSpace=wrap;html=1;aspect=fixed;fontSize=22;strokeColor=#10739e;fillColor=#b1ddf0;" vertex="1" parent="1">
          <mxGeometry x="937.99" y="8820" width="180" height="180" as="geometry" />
        </mxCell>
        <mxCell id="2rr1QFybe_x9lLwn6GRt-323" value="&lt;font style=&quot;font-size: 20px&quot;&gt;(A) = Asam, &lt;br&gt;I&amp;nbsp; = Infertile, &lt;br&gt;Prd. = Prasad &lt;br&gt;Bdr. = bahadur, &lt;br&gt;dc = Disconnected&lt;/font&gt;" style="text;html=1;align=center;verticalAlign=middle;resizable=0;points=[];autosize=1;strokeColor=none;fillColor=none;" vertex="1" parent="1">
          <mxGeometry x="943.99" y="8890" width="180" height="80" as="geometry" />
        </mxCell>
        <mxCell id="2rr1QFybe_x9lLwn6GRt-324" value="&lt;b&gt;&lt;u&gt;NOTES&lt;/u&gt;&lt;/b&gt;" style="text;html=1;align=center;verticalAlign=middle;resizable=0;points=[];autosize=1;strokeColor=none;fillColor=none;fontSize=20;" vertex="1" parent="1">
          <mxGeometry x="989.99" y="8830" width="80" height="30" as="geometry" />
        </mxCell>
        <mxCell id="2rr1QFybe_x9lLwn6GRt-385" style="edgeStyle=orthogonalEdgeStyle;rounded=0;orthogonalLoop=1;jettySize=auto;html=1;exitX=0.5;exitY=1;exitDx=0;exitDy=0;entryX=0.5;entryY=0;entryDx=0;entryDy=0;fontSize=12;" edge="1" parent="1" source="2rr1QFybe_x9lLwn6GRt-325">
          <mxGeometry relative="1" as="geometry">
            <mxPoint x="95" y="8490" as="targetPoint" />
          </mxGeometry>
        </mxCell>
        <mxCell id="2rr1QFybe_x9lLwn6GRt-389" style="edgeStyle=orthogonalEdgeStyle;rounded=0;orthogonalLoop=1;jettySize=auto;html=1;exitX=0.5;exitY=1;exitDx=0;exitDy=0;fontSize=17;" edge="1" parent="1" source="2rr1QFybe_x9lLwn6GRt-325" target="2rr1QFybe_x9lLwn6GRt-328">
          <mxGeometry relative="1" as="geometry" />
        </mxCell>
        <mxCell id="2rr1QFybe_x9lLwn6GRt-325" value="&lt;p class=&quot;MsoNormal&quot; style=&quot;margin-bottom: 0.0001pt ; line-height: normal ; font-size: 24px&quot;&gt;Jaya Bdr.&lt;/p&gt;" style="whiteSpace=wrap;html=1;rounded=1;shadow=1;strokeWidth=1;fontSize=24;align=center;fillColor=#f5f5f5;strokeColor=#666666;verticalAlign=bottom;" vertex="1" parent="1">
          <mxGeometry x="94.00000000000001" y="8370" width="150" height="40" as="geometry" />
        </mxCell>
        <mxCell id="2rr1QFybe_x9lLwn6GRt-394" style="edgeStyle=orthogonalEdgeStyle;rounded=0;orthogonalLoop=1;jettySize=auto;html=1;exitX=0.5;exitY=1;exitDx=0;exitDy=0;fontSize=17;" edge="1" parent="1" source="2rr1QFybe_x9lLwn6GRt-326" target="2rr1QFybe_x9lLwn6GRt-336">
          <mxGeometry relative="1" as="geometry" />
        </mxCell>
        <mxCell id="2rr1QFybe_x9lLwn6GRt-395" style="edgeStyle=orthogonalEdgeStyle;rounded=0;orthogonalLoop=1;jettySize=auto;html=1;exitX=0.5;exitY=1;exitDx=0;exitDy=0;fontSize=17;" edge="1" parent="1" source="2rr1QFybe_x9lLwn6GRt-326" target="2rr1QFybe_x9lLwn6GRt-332">
          <mxGeometry relative="1" as="geometry" />
        </mxCell>
        <mxCell id="2rr1QFybe_x9lLwn6GRt-396" style="edgeStyle=orthogonalEdgeStyle;rounded=0;orthogonalLoop=1;jettySize=auto;html=1;exitX=0.5;exitY=1;exitDx=0;exitDy=0;entryX=0.5;entryY=0;entryDx=0;entryDy=0;fontSize=17;" edge="1" parent="1" source="2rr1QFybe_x9lLwn6GRt-326" target="2rr1QFybe_x9lLwn6GRt-333">
          <mxGeometry relative="1" as="geometry" />
        </mxCell>
        <mxCell id="2rr1QFybe_x9lLwn6GRt-397" style="edgeStyle=orthogonalEdgeStyle;rounded=0;orthogonalLoop=1;jettySize=auto;html=1;exitX=0.5;exitY=1;exitDx=0;exitDy=0;fontSize=17;" edge="1" parent="1" source="2rr1QFybe_x9lLwn6GRt-326" target="2rr1QFybe_x9lLwn6GRt-334">
          <mxGeometry relative="1" as="geometry" />
        </mxCell>
        <mxCell id="2rr1QFybe_x9lLwn6GRt-398" value="" style="edgeStyle=orthogonalEdgeStyle;rounded=0;orthogonalLoop=1;jettySize=auto;html=1;fontSize=17;" edge="1" parent="1" source="2rr1QFybe_x9lLwn6GRt-326" target="2rr1QFybe_x9lLwn6GRt-333">
          <mxGeometry relative="1" as="geometry" />
        </mxCell>
        <mxCell id="2rr1QFybe_x9lLwn6GRt-326" value="&lt;p class=&quot;MsoNormal&quot; style=&quot;margin-bottom: 0.0001pt ; line-height: normal ; font-size: 24px&quot;&gt;Gyan Bdr.&lt;/p&gt;" style="whiteSpace=wrap;html=1;rounded=1;shadow=1;strokeWidth=1;fontSize=24;align=center;fillColor=#f5f5f5;strokeColor=#666666;verticalAlign=bottom;" vertex="1" parent="1">
          <mxGeometry x="920" y="8370" width="150" height="40" as="geometry" />
        </mxCell>
        <mxCell id="2rr1QFybe_x9lLwn6GRt-390" style="edgeStyle=orthogonalEdgeStyle;rounded=0;orthogonalLoop=1;jettySize=auto;html=1;exitX=0.5;exitY=1;exitDx=0;exitDy=0;fontSize=17;" edge="1" parent="1" source="2rr1QFybe_x9lLwn6GRt-327" target="2rr1QFybe_x9lLwn6GRt-344">
          <mxGeometry relative="1" as="geometry" />
        </mxCell>
        <mxCell id="2rr1QFybe_x9lLwn6GRt-327" value="&lt;p class=&quot;MsoNormal&quot; style=&quot;margin-bottom: 0.0001pt ; line-height: normal ; font-size: 24px&quot;&gt;Dhan Bdr.&lt;/p&gt;" style="whiteSpace=wrap;html=1;rounded=1;shadow=1;strokeWidth=1;fontSize=24;align=center;fillColor=#f5f5f5;strokeColor=#666666;verticalAlign=bottom;" vertex="1" parent="1">
          <mxGeometry x="514.5" y="8370" width="150" height="40" as="geometry" />
        </mxCell>
        <mxCell id="2rr1QFybe_x9lLwn6GRt-328" value="&lt;p class=&quot;MsoNormal&quot; style=&quot;margin-bottom: 0.0001pt; line-height: normal; font-size: 18px;&quot;&gt;Baghe = I&lt;/p&gt;" style="whiteSpace=wrap;html=1;rounded=1;shadow=1;strokeWidth=1;fontSize=18;align=center;fillColor=#f5f5f5;strokeColor=#666666;verticalAlign=bottom;" vertex="1" parent="1">
          <mxGeometry x="210" y="8490" width="100" height="40" as="geometry" />
        </mxCell>
        <mxCell id="2rr1QFybe_x9lLwn6GRt-406" style="edgeStyle=orthogonalEdgeStyle;rounded=0;orthogonalLoop=1;jettySize=auto;html=1;exitX=0.5;exitY=1;exitDx=0;exitDy=0;entryX=0.5;entryY=0;entryDx=0;entryDy=0;fontSize=14;" edge="1" parent="1" source="2rr1QFybe_x9lLwn6GRt-331" target="2rr1QFybe_x9lLwn6GRt-359">
          <mxGeometry relative="1" as="geometry" />
        </mxCell>
        <mxCell id="2rr1QFybe_x9lLwn6GRt-408" style="edgeStyle=orthogonalEdgeStyle;rounded=0;orthogonalLoop=1;jettySize=auto;html=1;exitX=0.5;exitY=1;exitDx=0;exitDy=0;entryX=0.313;entryY=0.5;entryDx=0;entryDy=0;entryPerimeter=0;fontSize=14;" edge="1" parent="1" source="2rr1QFybe_x9lLwn6GRt-331" target="2rr1QFybe_x9lLwn6GRt-386">
          <mxGeometry relative="1" as="geometry" />
        </mxCell>
        <mxCell id="2rr1QFybe_x9lLwn6GRt-331" value="&lt;p class=&quot;MsoNormal&quot; style=&quot;margin-bottom: 0.0001pt; line-height: normal; font-size: 18px;&quot;&gt;Lakh Bdr.&lt;/p&gt;" style="whiteSpace=wrap;html=1;rounded=1;shadow=1;strokeWidth=1;fontSize=18;align=center;fillColor=#f5f5f5;strokeColor=#666666;verticalAlign=bottom;" vertex="1" parent="1">
          <mxGeometry x="47.490000000000016" y="8490" width="100" height="40" as="geometry" />
        </mxCell>
        <mxCell id="2rr1QFybe_x9lLwn6GRt-332" value="&lt;p class=&quot;MsoNormal&quot; style=&quot;margin-bottom: 0.0001pt; line-height: normal; font-size: 18px;&quot;&gt;Dil Bdr.&lt;/p&gt;" style="whiteSpace=wrap;html=1;rounded=1;shadow=1;strokeWidth=1;fontSize=18;align=center;fillColor=#f5f5f5;strokeColor=#666666;verticalAlign=bottom;" vertex="1" parent="1">
          <mxGeometry x="812.74" y="8490" width="100" height="40" as="geometry" />
        </mxCell>
        <mxCell id="2rr1QFybe_x9lLwn6GRt-333" value="&lt;p class=&quot;MsoNormal&quot; style=&quot;margin-bottom: 0.0001pt; line-height: normal; font-size: 18px;&quot;&gt;Bir Bdr.&lt;/p&gt;" style="whiteSpace=wrap;html=1;rounded=1;shadow=1;strokeWidth=1;fontSize=18;align=center;fillColor=#f5f5f5;strokeColor=#666666;verticalAlign=bottom;" vertex="1" parent="1">
          <mxGeometry x="927.74" y="8490" width="100" height="40" as="geometry" />
        </mxCell>
        <mxCell id="2rr1QFybe_x9lLwn6GRt-393" style="edgeStyle=orthogonalEdgeStyle;rounded=0;orthogonalLoop=1;jettySize=auto;html=1;exitX=0.5;exitY=1;exitDx=0;exitDy=0;entryX=0.5;entryY=0;entryDx=0;entryDy=0;fontSize=17;" edge="1" parent="1" source="2rr1QFybe_x9lLwn6GRt-334" target="2rr1QFybe_x9lLwn6GRt-342">
          <mxGeometry relative="1" as="geometry" />
        </mxCell>
        <mxCell id="2rr1QFybe_x9lLwn6GRt-334" value="&lt;p class=&quot;MsoNormal&quot; style=&quot;margin-bottom: 0.0001pt; line-height: normal; font-size: 18px;&quot;&gt;Burja&lt;/p&gt;" style="whiteSpace=wrap;html=1;rounded=1;shadow=1;strokeWidth=1;fontSize=18;align=center;fillColor=#f5f5f5;strokeColor=#666666;verticalAlign=bottom;" vertex="1" parent="1">
          <mxGeometry x="1040" y="8490" width="100" height="40" as="geometry" />
        </mxCell>
        <mxCell id="2rr1QFybe_x9lLwn6GRt-335" style="edgeStyle=orthogonalEdgeStyle;rounded=0;orthogonalLoop=1;jettySize=auto;html=1;exitX=0.5;exitY=1;exitDx=0;exitDy=0;" edge="1" parent="1" source="2rr1QFybe_x9lLwn6GRt-336" target="2rr1QFybe_x9lLwn6GRt-337">
          <mxGeometry relative="1" as="geometry" />
        </mxCell>
        <mxCell id="2rr1QFybe_x9lLwn6GRt-336" value="&lt;p class=&quot;MsoNormal&quot; style=&quot;margin-bottom: 0.0001pt; line-height: normal; font-size: 18px;&quot;&gt;Padam Bdr.&lt;/p&gt;" style="whiteSpace=wrap;html=1;rounded=1;shadow=1;strokeWidth=1;fontSize=18;align=center;fillColor=#f5f5f5;strokeColor=#666666;verticalAlign=bottom;" vertex="1" parent="1">
          <mxGeometry x="696.24" y="8490" width="100" height="40" as="geometry" />
        </mxCell>
        <mxCell id="2rr1QFybe_x9lLwn6GRt-337" value="&lt;p class=&quot;MsoNormal&quot; style=&quot;margin-bottom: 0.0001pt ; line-height: normal ; font-size: 18px&quot;&gt;Jeet Bdr. = I&lt;/p&gt;" style="whiteSpace=wrap;html=1;rounded=1;shadow=1;strokeWidth=1;fontSize=18;align=center;fillColor=#f5f5f5;strokeColor=#666666;verticalAlign=bottom;" vertex="1" parent="1">
          <mxGeometry x="696.24" y="8630" width="100" height="40" as="geometry" />
        </mxCell>
        <mxCell id="2rr1QFybe_x9lLwn6GRt-338" style="edgeStyle=orthogonalEdgeStyle;rounded=0;orthogonalLoop=1;jettySize=auto;html=1;exitX=0.5;exitY=1;exitDx=0;exitDy=0;" edge="1" parent="1" source="2rr1QFybe_x9lLwn6GRt-332" target="2rr1QFybe_x9lLwn6GRt-339">
          <mxGeometry relative="1" as="geometry">
            <mxPoint x="693.5" y="8590" as="sourcePoint" />
          </mxGeometry>
        </mxCell>
        <mxCell id="2rr1QFybe_x9lLwn6GRt-339" value="&lt;p class=&quot;MsoNormal&quot; style=&quot;margin-bottom: 0.0001pt; line-height: normal; font-size: 18px;&quot;&gt;(A)&lt;/p&gt;" style="whiteSpace=wrap;html=1;rounded=1;shadow=1;strokeWidth=1;fontSize=18;align=center;fillColor=#f5f5f5;strokeColor=#666666;verticalAlign=bottom;" vertex="1" parent="1">
          <mxGeometry x="812.74" y="8630" width="100" height="40" as="geometry" />
        </mxCell>
        <mxCell id="2rr1QFybe_x9lLwn6GRt-340" value="&lt;p class=&quot;MsoNormal&quot; style=&quot;margin-bottom: 0.0001pt; line-height: normal; font-size: 18px;&quot;&gt;Bhiman&lt;/p&gt;" style="whiteSpace=wrap;html=1;rounded=1;shadow=1;strokeWidth=1;fontSize=18;align=center;fillColor=#f5f5f5;strokeColor=#666666;verticalAlign=bottom;" vertex="1" parent="1">
          <mxGeometry x="927.74" y="8630" width="100" height="40" as="geometry" />
        </mxCell>
        <mxCell id="2rr1QFybe_x9lLwn6GRt-341" style="edgeStyle=orthogonalEdgeStyle;rounded=0;orthogonalLoop=1;jettySize=auto;html=1;exitX=0.5;exitY=1;exitDx=0;exitDy=0;" edge="1" parent="1" source="2rr1QFybe_x9lLwn6GRt-333" target="2rr1QFybe_x9lLwn6GRt-340">
          <mxGeometry relative="1" as="geometry">
            <mxPoint x="867" y="8590" as="sourcePoint" />
          </mxGeometry>
        </mxCell>
        <mxCell id="2rr1QFybe_x9lLwn6GRt-342" value="&lt;p class=&quot;MsoNormal&quot; style=&quot;margin-bottom: 0.0001pt; line-height: normal; font-size: 18px;&quot;&gt;(A)&lt;/p&gt;" style="whiteSpace=wrap;html=1;rounded=1;shadow=1;strokeWidth=1;fontSize=18;align=center;fillColor=#f5f5f5;strokeColor=#666666;verticalAlign=bottom;" vertex="1" parent="1">
          <mxGeometry x="1040" y="8630" width="100" height="40" as="geometry" />
        </mxCell>
        <mxCell id="2rr1QFybe_x9lLwn6GRt-400" style="edgeStyle=orthogonalEdgeStyle;rounded=0;orthogonalLoop=1;jettySize=auto;html=1;exitX=0.5;exitY=1;exitDx=0;exitDy=0;fontSize=14;" edge="1" parent="1" source="2rr1QFybe_x9lLwn6GRt-344" target="2rr1QFybe_x9lLwn6GRt-350">
          <mxGeometry relative="1" as="geometry" />
        </mxCell>
        <mxCell id="2rr1QFybe_x9lLwn6GRt-401" style="edgeStyle=orthogonalEdgeStyle;rounded=0;orthogonalLoop=1;jettySize=auto;html=1;exitX=0.5;exitY=1;exitDx=0;exitDy=0;fontSize=14;" edge="1" parent="1" source="2rr1QFybe_x9lLwn6GRt-344" target="2rr1QFybe_x9lLwn6GRt-399">
          <mxGeometry relative="1" as="geometry" />
        </mxCell>
        <mxCell id="2rr1QFybe_x9lLwn6GRt-344" value="&lt;p class=&quot;MsoNormal&quot; style=&quot;margin-bottom: 0.0001pt; line-height: normal; font-size: 18px;&quot;&gt;Ram Prasad&lt;/p&gt;" style="whiteSpace=wrap;html=1;rounded=1;shadow=1;strokeWidth=1;fontSize=18;align=center;fillColor=#f5f5f5;strokeColor=#666666;verticalAlign=bottom;" vertex="1" parent="1">
          <mxGeometry x="529.5" y="8490" width="120" height="40" as="geometry" />
        </mxCell>
        <mxCell id="2rr1QFybe_x9lLwn6GRt-402" style="edgeStyle=orthogonalEdgeStyle;rounded=0;orthogonalLoop=1;jettySize=auto;html=1;exitX=0.5;exitY=1;exitDx=0;exitDy=0;entryX=0.5;entryY=0;entryDx=0;entryDy=0;fontSize=14;" edge="1" parent="1" source="2rr1QFybe_x9lLwn6GRt-350" target="2rr1QFybe_x9lLwn6GRt-353">
          <mxGeometry relative="1" as="geometry" />
        </mxCell>
        <mxCell id="2rr1QFybe_x9lLwn6GRt-403" style="edgeStyle=orthogonalEdgeStyle;rounded=0;orthogonalLoop=1;jettySize=auto;html=1;exitX=0.5;exitY=1;exitDx=0;exitDy=0;fontSize=14;" edge="1" parent="1" source="2rr1QFybe_x9lLwn6GRt-350" target="2rr1QFybe_x9lLwn6GRt-354">
          <mxGeometry relative="1" as="geometry" />
        </mxCell>
        <mxCell id="2rr1QFybe_x9lLwn6GRt-404" style="edgeStyle=orthogonalEdgeStyle;rounded=0;orthogonalLoop=1;jettySize=auto;html=1;exitX=0.5;exitY=1;exitDx=0;exitDy=0;fontSize=14;" edge="1" parent="1" source="2rr1QFybe_x9lLwn6GRt-350" target="2rr1QFybe_x9lLwn6GRt-355">
          <mxGeometry relative="1" as="geometry" />
        </mxCell>
        <mxCell id="2rr1QFybe_x9lLwn6GRt-405" style="edgeStyle=orthogonalEdgeStyle;rounded=0;orthogonalLoop=1;jettySize=auto;html=1;exitX=0.5;exitY=1;exitDx=0;exitDy=0;fontSize=14;" edge="1" parent="1" source="2rr1QFybe_x9lLwn6GRt-350" target="2rr1QFybe_x9lLwn6GRt-356">
          <mxGeometry relative="1" as="geometry" />
        </mxCell>
        <mxCell id="2rr1QFybe_x9lLwn6GRt-350" value="&lt;p class=&quot;MsoNormal&quot; style=&quot;margin-bottom: 0.0001pt; line-height: normal; font-size: 20px;&quot;&gt;Sher Bdr.&lt;/p&gt;" style="whiteSpace=wrap;html=1;rounded=1;shadow=1;strokeWidth=1;fontSize=20;align=center;fillColor=#f5f5f5;strokeColor=#666666;verticalAlign=bottom;" vertex="1" parent="1">
          <mxGeometry x="394" y="8630" width="120" height="40" as="geometry" />
        </mxCell>
        <mxCell id="2rr1QFybe_x9lLwn6GRt-353" value="&lt;p class=&quot;MsoNormal&quot; style=&quot;margin-bottom: 0.0001pt; line-height: normal; font-size: 18px;&quot;&gt;Biren&lt;/p&gt;" style="whiteSpace=wrap;html=1;rounded=1;shadow=1;strokeWidth=1;fontSize=18;align=center;fillColor=#f5f5f5;strokeColor=#666666;verticalAlign=bottom;" vertex="1" parent="1">
          <mxGeometry x="149.25" y="8790" width="100" height="40" as="geometry" />
        </mxCell>
        <mxCell id="2rr1QFybe_x9lLwn6GRt-354" value="&lt;p class=&quot;MsoNormal&quot; style=&quot;margin-bottom: 0.0001pt; line-height: normal; font-size: 18px;&quot;&gt;Jeevan&lt;/p&gt;" style="whiteSpace=wrap;html=1;rounded=1;shadow=1;strokeWidth=1;fontSize=18;align=center;fillColor=#f5f5f5;strokeColor=#666666;verticalAlign=bottom;" vertex="1" parent="1">
          <mxGeometry x="322.75" y="8790" width="100" height="40" as="geometry" />
        </mxCell>
        <mxCell id="2rr1QFybe_x9lLwn6GRt-355" value="&lt;p class=&quot;MsoNormal&quot; style=&quot;margin-bottom: 0.0001pt; line-height: normal; font-size: 18px;&quot;&gt;Suren&lt;/p&gt;" style="whiteSpace=wrap;html=1;rounded=1;shadow=1;strokeWidth=1;fontSize=18;align=center;fillColor=#f5f5f5;strokeColor=#666666;verticalAlign=bottom;" vertex="1" parent="1">
          <mxGeometry x="496.25" y="8790" width="100" height="40" as="geometry" />
        </mxCell>
        <mxCell id="2rr1QFybe_x9lLwn6GRt-356" value="&lt;p class=&quot;MsoNormal&quot; style=&quot;margin-bottom: 0.0001pt; line-height: normal; font-size: 18px;&quot;&gt;Niren&lt;/p&gt;" style="whiteSpace=wrap;html=1;rounded=1;shadow=1;strokeWidth=1;fontSize=18;align=center;fillColor=#f5f5f5;strokeColor=#666666;verticalAlign=bottom;" vertex="1" parent="1">
          <mxGeometry x="670" y="8790" width="100" height="40" as="geometry" />
        </mxCell>
        <mxCell id="2rr1QFybe_x9lLwn6GRt-357" value="&lt;span style=&quot;font-size: 20px&quot;&gt;(&lt;/span&gt;&lt;span style=&quot;font-size: 20px&quot;&gt;Kanchi-pati&lt;/span&gt;&lt;span style=&quot;font-size: 20px&quot;&gt;)&lt;/span&gt;" style="text;html=1;align=center;verticalAlign=middle;resizable=0;points=[];autosize=1;strokeColor=none;fillColor=none;" vertex="1" parent="1">
          <mxGeometry x="570.64" y="8850" width="130" height="20" as="geometry" />
        </mxCell>
        <mxCell id="2rr1QFybe_x9lLwn6GRt-358" value="&lt;span style=&quot;font-size: 20px&quot;&gt;(&lt;/span&gt;&lt;span style=&quot;font-size: 20px&quot;&gt;Jethi-pati&lt;/span&gt;&lt;span style=&quot;font-size: 20px&quot;&gt;)&lt;/span&gt;" style="text;html=1;align=center;verticalAlign=middle;resizable=0;points=[];autosize=1;strokeColor=none;fillColor=none;" vertex="1" parent="1">
          <mxGeometry x="222.64" y="8850" width="110" height="20" as="geometry" />
        </mxCell>
        <mxCell id="2rr1QFybe_x9lLwn6GRt-359" value="&lt;p class=&quot;MsoNormal&quot; style=&quot;margin-bottom: 0.0001pt; line-height: normal; font-size: 18px;&quot;&gt;Kami = I&lt;/p&gt;" style="whiteSpace=wrap;html=1;rounded=1;shadow=1;strokeWidth=1;fontSize=18;align=center;fillColor=#f5f5f5;strokeColor=#666666;verticalAlign=bottom;" vertex="1" parent="1">
          <mxGeometry x="34" y="8630" width="80" height="40" as="geometry" />
        </mxCell>
        <mxCell id="2rr1QFybe_x9lLwn6GRt-360" value="&lt;p class=&quot;MsoNormal&quot; style=&quot;margin-bottom: 0.0001pt; line-height: normal; font-size: 18px;&quot;&gt;Tilak&lt;/p&gt;" style="whiteSpace=wrap;html=1;rounded=1;shadow=1;strokeWidth=1;fontSize=18;align=center;fillColor=#f5f5f5;strokeColor=#666666;verticalAlign=bottom;" vertex="1" parent="1">
          <mxGeometry x="234.49" y="8630" width="80" height="40" as="geometry" />
        </mxCell>
        <mxCell id="2rr1QFybe_x9lLwn6GRt-386" value="&lt;p class=&quot;MsoNormal&quot; style=&quot;margin-bottom: 0.0001pt ; line-height: normal&quot;&gt;&lt;font style=&quot;font-size: 17px&quot;&gt;Dhan Bdr.&lt;/font&gt;&lt;/p&gt;" style="whiteSpace=wrap;html=1;rounded=1;shadow=1;strokeWidth=1;fontSize=18;align=center;fillColor=#f5f5f5;strokeColor=#666666;verticalAlign=bottom;" vertex="1" parent="1">
          <mxGeometry x="134.99" y="8630" width="80" height="40" as="geometry" />
        </mxCell>
        <mxCell id="2rr1QFybe_x9lLwn6GRt-399" value="&lt;p class=&quot;MsoNormal&quot; style=&quot;margin-bottom: 0.0001pt; line-height: normal; font-size: 14px;&quot;&gt;Surya Prakash = I&lt;br style=&quot;font-size: 14px;&quot;&gt;&lt;/p&gt;" style="whiteSpace=wrap;html=1;rounded=1;shadow=1;strokeWidth=1;fontSize=14;align=center;fillColor=#f5f5f5;strokeColor=#666666;verticalAlign=bottom;" vertex="1" parent="1">
          <mxGeometry x="550" y="8630" width="120" height="40" as="geometry" />
        </mxCell>
      </root>
    </mxGraphModel>
  </diagram>
</mxfile>
